<?xml version="1.0" encoding="utf-8"?>
<!-- Generator: Adobe Illustrator 15.0.0, SVG Export Plug-In . SVG Version: 6.00 Build 0)  -->
<!DOCTYPE svg PUBLIC "-//W3C//DTD SVG 1.1//EN" "http://www.w3.org/Graphics/SVG/1.1/DTD/svg11.dtd">
<svg version="1.1" id="Capa_1" xmlns="http://www.w3.org/2000/svg" xmlns:xlink="http://www.w3.org/1999/xlink" x="0px" y="0px"
	 width="591.837px" height="238.775px" viewBox="0 0 591.837 238.775" enable-background="new 0 0 591.837 238.775"
	 xml:space="preserve">
<path fill="#A9B4B3" d="M88.275,16.866v1.741l6.964-0.87C92.965,16.781,90.744,16.872,88.275,16.866z"/>
<path fill="#A4A7A0" d="M91.757,17.737c3.365,1.398,6.905,0.28,10.448,0C98.815,16.318,95.309,17.288,91.757,17.737z"/>
<path fill="#939797" d="M97.852,17.737c5.188,2.176,12.68,0.87,18.283,0.87v-1.741C109.952,16.866,103.994,17.252,97.852,17.737z"/>
<path fill="#9AA8A9" d="M116.135,16.866c2.276,0.956,4.497,0.865,6.965,0.871C120.825,16.781,118.604,16.872,116.135,16.866z"/>
<path fill="#7E8D93" d="M116.135,17.737c2.518,1.055,5.115,0.87,7.836,0.87C121.455,17.551,118.857,17.737,116.135,17.737z"/>
<path fill="#99ADC1" d="M123.971,17.737c1.542,0.677,2.644,0.793,4.354,0.87C126.784,17.93,125.681,17.814,123.971,17.737z"/>
<path fill="#B1A783" d="M77.827,27.313h13.93c-0.011,3.052-2.844,9.377-1.741,11.319l-1.741,0.871c0.565,1.13,0.127,0.87,1.741,0.87
	l-3.482,0.871c0.013,4.031,1.242,7.408,1.741,11.32c1.041-0.521,0.852-0.407,1.741-1.741c0.82,1.991,1.36,2.313-0.87,2.611
	c2.647,1.556,4.854,1.36,7.836,0.871c-1.313-0.595-2.017-0.719-3.484-0.871l3.484-0.87c-2.016-1.386-3.648-1.617-6.095-1.741
	c1.262-1.401,1.786-1.798,3.482-2.612c-1.087-0.598-1.348-0.654-2.612-0.871c1.249-2.199,1.825-2.526,4.353-2.614
	c1.657-1.007,2.371-1.007,4.354-0.871c-2.182-3.052-6.111-2.264-8.707-5.224c3.09-0.703,5.042-0.672,7.836,0.871l0.871-3.482
	l-2.612,0.871v-4.353c-1.564,0-1.325,0.013-2.613,0.87c1.53-3.337,2.985-10.307-1.741-11.32l2.612-2.611
	c-3.402-1.427-11.298-2.058-14.306,0.526C79.782,21.736,78.784,24.901,77.827,27.313z"/>
<path fill="#A1A081" d="M93.498,22.089c4.01,2.591,2.916,7.289,1.741,11.32l2.613-0.87v4.353c1.564,0,1.324-0.013,2.612-0.871
	l-0.871,3.482c4.565-0.665,8.637-0.42,13.06,0.87c0-4.206-2.957-4.211-6.094-6.093l0.871-0.871
	c-6.976-0.538-7.518-5.658-3.483-10.449c-0.411-1.234-0.708-1.579-1.741-2.612h9.577c0.111,3.397,0.521,5.151,3.482,6.964
	c-0.435-2.336-0.767-4.587-0.87-6.964c-1.131,0.567-0.871,0.129-0.871,1.741C110.276,17.134,96.164,16.331,93.498,22.089z"/>
<path fill="#938E73" d="M109.171,18.607c1.577,1.103,2.51,1.832,3.482,3.482c1.132-0.563,0.87-0.125,0.87-1.741
	c1.788,5.803,1.336,10.882-4.352,13.932c2.544,4.97,6.026,2.727,10.447,1.741c-1.494-4.214-0.125-7.06,0.484-11.32
	c0.245-1.721,0.537-3.963-1.009-5.198C116.824,17.692,111.899,18.607,109.171,18.607z"/>
<path fill="#686754" d="M119.618,18.607c4.076,4.119,2.723,7.734,3.482,13.061c-1.564,0-1.325,0.013-2.611,0.871v1.741l2.611,0.87
	c-1.232,2.465-0.652,3.101-2.611,2.612c0.517,2.429,0.822,5.27,2.611,6.964c-1.319,2.194-3.611,4.803-1.741,6.967
	c-1.832,0.559-3.304,0.788-5.225,0.871v4.353c2.468,0.788,3.854,1.288,5.225,3.482l3.482-0.87c-0.668-1.144-0.597-1.072-1.742-1.741
	c3.677-4.245,2.733-11.137,3.483-16.543c2.959,0.059,5.799,0.492,8.706,0c-1.706-3.773-0.776-8.136-1.741-12.187l-2.611,3.482v1.741
	c1.423,0.474,1.267,0.316,1.741,1.741c-1.917,0.227-3.406,1-5.224,1.741c0.051-6.161,0.694-11.92,3.483-17.414h-5.225
	c1.569-0.489,2.719-0.716,4.354-0.871C126.847,18.128,123.085,18.607,119.618,18.607z"/>
<path fill="#7F7E67" d="M120.489,19.478c-0.171,3.998-3.896,12.039-0.871,14.802l-0.87,3.482l3.482,0.87l0.87-3.482
	c-1.286-0.857-1.046-0.87-2.611-0.87v-1.741l2.611-0.871C122.898,27.405,124.288,22.218,120.489,19.478z"/>
<path fill="#60686A" d="M125.712,19.478c2.276,0.956,4.497,0.865,6.966,0.871C130.402,19.393,128.182,19.485,125.712,19.478z"/>
<path fill="#849CB5" d="M133.259,19.769c-0.387,0.386,0.532,0.337,0.58,0.288C134.226,19.671,133.308,19.72,133.259,19.769z"/>
<path fill="#A1A7A5" d="M74.344,23.831c3.406-0.111,5.016-0.629,6.965-3.482C78.202,20.487,75.948,21.054,74.344,23.831z"/>
<path fill="#8CA08B" d="M102.205,20.348c2.668,2.024,6.4,2.267,9.577,3.482v-3.482H102.205z"/>
<path fill="#585949" d="M127.454,37.762c2.946,0,2.726-0.577,4.353-2.612l0.871,0.871c-0.668-1.144-0.596-1.074-1.741-1.741v-1.741
	c3.267-2.65,2.605-7.57,1.741-11.32h3.482C126.963,17.497,127.469,32.266,127.454,37.762z"/>
<path fill="#414950" d="M132.678,21.219c0.923,2.001,2.03,3.565,3.482,5.223c0.597-1.087,0.653-1.347,0.87-2.611
	c4.188,0.09,8.052,1.38,12.19,1.741C144.389,22.532,138.33,21.265,132.678,21.219z"/>
<path fill="#8D9EB7" d="M139.354,21.51c-0.388,0.386,0.531,0.337,0.58,0.291C140.319,21.412,139.401,21.461,139.354,21.51z"/>
<path fill="#C5D4CA" d="M103.946,22.089c1.541,0.68,2.643,0.796,4.354,0.871C106.759,22.283,105.657,22.166,103.946,22.089z"/>
<path fill="#A8B9AB" d="M108.88,22.38c-0.387,0.386,0.531,0.337,0.582,0.291C109.846,22.283,108.929,22.331,108.88,22.38z"/>
<path fill="#8B9AA6" d="M141.385,22.089c1.086,0.598,1.347,0.652,2.611,0.871C142.909,22.365,142.649,22.309,141.385,22.089z"/>
<path fill="#DEE4E1" d="M102.205,23.831c1.936,0.693,4.85,0.543,6.268,2.241c3.593,4.301-4.077,4.35-6.268,3.855l-0.87,0.87
	c6.728,9.329,17.367-7.603,5.242-7.768C104.98,23.006,103.711,23.387,102.205,23.831z"/>
<path fill="#7D97B3" d="M144.577,23.251c-0.386,0.386,0.532,0.337,0.58,0.291C145.544,23.153,144.626,23.202,144.577,23.251z"/>
<path fill="#9BA5A4" d="M70.862,23.831v1.741h3.482v-1.741H70.862z"/>
<path fill="#B4AC8C" d="M69.991,25.572c0.228,10.06,1.567,20.344,0.871,30.474l20.896-0.871c-1.087-0.597-1.349-0.651-2.611-0.87
	c1.286-0.858,1.046-0.871,2.611-0.871c-1.113-1.504-1.468-2.421-2.611-0.87c-1.443-3.843-2.567-7.181-2.612-11.32h3.482
	c-0.52-1.041-0.405-0.85-1.741-1.741h1.741c-0.566-1.131-0.128-0.871-1.741-0.871c3.131-3.701,3.479-6.593,3.482-11.319h-13.93
	l1.741-3.482C76.2,23.931,73.288,25.154,69.991,25.572z"/>
<path fill="#F2F9FB" d="M100.464,30.797c1.763-0.121,3.532,0.029,5.287-0.095c9.086-0.642-1.269-11.225-4.761-4.039
	C100.38,27.917,100.507,29.455,100.464,30.797z"/>
<path fill="#4B4C39" d="M133.548,23.831l-0.871,3.482c1.772-1.066,2.026-1.481,2.611-3.482H133.548z"/>
<path fill="#37372F" d="M137.03,23.831c-0.004,7.17-0.162,20.983-6.964,25.25c0.79,3.498,1.835,6.246,0,9.576
	c0.79,1.834,0.466,2.066-0.87,3.483c3.026,1.017,5.543,1.373,8.707,0.87c-2.175-5.21,0.017-11.994-2.613-16.543
	c2.159-2.187,5.513-3.922,7.238-6.39c2.202-3.155,1.422-9.869,1.469-13.635c1.956,0.294,3.29,0.34,5.225,0
	C145.424,24.381,141.306,23.866,137.03,23.831z"/>
<path fill="#697888" d="M146.608,23.831l0.872,0.87L146.608,23.831z"/>
<path fill="#515E6B" d="M149.802,25.862c-0.388,0.387,0.53,0.337,0.58,0.291C150.767,25.768,149.849,25.813,149.802,25.862z"/>
<path fill="#9D9A8D" d="M61.284,57.787c3.186,1.041,5.699-1.582,8.707-2.612c-6.993-7.067-2.226-20.944,0.871-28.733
	C57.543,31.603,71.454,51.549,61.284,57.787z"/>
<path fill="#646962" d="M112.653,26.442v2.615c0.885-0.992,1.14-1.404,1.741-2.615H112.653z"/>
<path fill="#737163" d="M134.419,26.442c-1.109,4.389-0.29,9.331-0.871,13.931C137.566,37.535,136.152,30.46,134.419,26.442z"/>
<path fill="#938F8A" d="M135.289,26.442v6.097h1.741v-6.097H135.289z"/>
<path fill="#2C2B26" d="M143.996,26.442c-0.138,3.681,0.26,9.687-1.641,12.896c-1.67,2.817-5.106,4.392-7.066,7.129
	c2.25,5.265-0.641,11.562,2.613,16.543c-1.339,0.6-1.166,0.286-0.872,1.741c-7.042-0.361-13.781-3.176-20.896-3.482
	c3.955,3.171,8.314,2.952,13.061,3.931c8.248,1.703,18.382,3.539,26.038,7.049c3.9,1.787,3.584,4.664,5.279,8.025
	c1.501,2.977,4.144,5.512,6.993,7.114c0-4.567-0.448-9.398,0.182-13.929c1.41-10.15,3.477-20.767-1.054-30.474
	c1.249,1.213,1.781,1.944,2.613,3.482c0.761-1.785,0.829-3.26,0.87-5.223c-3.33-1.571-5.093-3.402-6.095-6.964
	C156.79,33.229,151.03,27.565,143.996,26.442z"/>
<path fill="#242D3A" d="M148.35,26.442c2.554,4.515,9.805,7.111,14.801,7.838C159.499,29.87,154.107,26.753,148.35,26.442z"/>
<path fill="#3E3A2B" d="M113.523,27.313l-2.611,6.096C113.588,31.933,114.642,30.292,113.523,27.313z"/>
<path fill="#768B9B" d="M154.444,27.313l0.871,0.871L154.444,27.313z"/>
<path fill="#516378" d="M155.314,28.183l0.871,0.874L155.314,28.183z"/>
<path fill="#5A6273" d="M157.055,29.057l0.872,0.87L157.055,29.057z"/>
<path fill="#A8A8A0" d="M111.782,29.927l0.871,0.87L111.782,29.927z"/>
<path fill="#7A89A8" d="M158.798,29.927l0.871,0.87L158.798,29.927z"/>
<path fill="#A8A382" d="M67.38,30.797c0,5.559-0.572,11.005-0.582,16.543c-0.005,3.274-0.317,5.937,3.193,6.965l-4.353,1.741
	c2.753,1.157,5.733,0.871,8.706,0.871c-1.311-0.595-2.016-0.719-3.482-0.871c0.838-7.628,0.908-17.773-0.871-25.249H67.38z"/>
<path fill="#706C5D" d="M111.782,30.797l0.871,0.871L111.782,30.797z"/>
<path fill="#6C7583" d="M159.669,30.797l0.87,0.871L159.669,30.797z"/>
<path fill="#8A8A7D" d="M110.912,31.668l0.871,0.871L110.912,31.668z"/>
<path fill="#7C7C6F" d="M110.041,32.539l0.871,0.87L110.041,32.539z"/>
<path fill="#6D7E99" d="M162.28,32.539l0.871,0.87L162.28,32.539z"/>
<path fill="#848164" d="M106.559,35.15c1.821-0.353,1.757-0.188,2.612-1.741C107.795,34.004,107.623,34.109,106.559,35.15z"/>
<path fill="#515144" d="M109.75,33.7c-0.386,0.386,0.532,0.337,0.582,0.288C110.717,33.603,109.799,33.651,109.75,33.7z"/>
<path fill="#5A7492" d="M163.151,33.409l0.87,0.871L163.151,33.409z"/>
<path fill="#8E999A" d="M63.896,34.28l-0.871,22.636h1.741C64.766,50.158,66.516,40.52,63.896,34.28z"/>
<path fill="#2B3537" d="M164.021,34.28c0.561,3.621,1.932,5.377,5.225,6.964C167.958,38.436,166.275,36.391,164.021,34.28z"/>
<path fill="#BFCFDB" d="M164.892,34.28c1.065,1.041,1.236,1.146,2.613,1.741C166.439,34.98,166.269,34.874,164.892,34.28z"/>
<path fill="#5D666E" d="M164.892,35.15l0.87,0.871L164.892,35.15z"/>
<path fill="#998F5F" d="M115.264,36.891c1.792,1.378,2.951,1.589,5.225,1.741C118.71,36.77,117.787,36.43,115.264,36.891z"/>
<path fill="#515F68" d="M165.762,36.021l0.871,0.871L165.762,36.021z"/>
<path fill="#516374" d="M166.633,36.891l0.872,0.871L166.633,36.891z"/>
<path fill="#F6EBCA" d="M92.628,37.762l-0.871,0.87v1.741c2.636,0.763,4.33,0.763,6.966,0C96.802,38.792,95.068,38.29,92.628,37.762
	z"/>
<path fill="#CBBD97" d="M94.369,37.762c1.434,0.804,2.765,1.262,4.354,1.741C97.382,37.934,96.46,37.908,94.369,37.762z"/>
<path fill="#B6AB78" d="M113.523,37.762l2.612,3.482C116.207,38.833,115.867,38.416,113.523,37.762z"/>
<path fill="#627283" d="M167.505,37.762l0.87,0.87L167.505,37.762z"/>
<path fill="#FFF8DA" d="M97.852,40.373c1.064,1.041,1.236,1.146,2.612,1.742l-1.741,3.482c1.375,0.595,1.546,0.7,2.612,1.743
	c2.042-1.359,8.387-7,2.561-8.218C102.013,38.728,99.674,39.969,97.852,40.373z"/>
<path fill="#D0C48C" d="M106.559,38.632c0.784,1.674,0.937,1.741,2.612,2.612C108.385,39.569,108.233,39.505,106.559,38.632z"/>
<path fill="#F9EEBD" d="M107.43,38.632l1.741,2.612c-1.675,0.873-1.828,0.938-2.612,2.612c2.779-0.974,3.155-2.365,3.482-5.224
	H107.43z"/>
<path fill="#D8CA8F" d="M110.041,39.503c-0.818,2.297-1.375,3.15-3.482,4.353l0.871,2.611c2.967-1.923,5.911-4.867,7.834-7.835
	L110.041,39.503z"/>
<path fill="#F5EBA2" d="M116.135,38.632c1.311,0.595,2.016,0.719,3.483,0.871C118.307,38.908,117.603,38.784,116.135,38.632z"/>
<path fill="#D8C685" d="M119.618,38.632c-1.288,0.857-1.048,0.871-2.613,0.871C118.331,40.247,120.441,40.625,119.618,38.632z"/>
<path fill="#6F849B" d="M168.375,38.632l0.871,0.871L168.375,38.632z"/>
<path fill="#D8CFA7" d="M94.079,39.794c-0.387,0.386,0.532,0.337,0.581,0.289C95.046,39.696,94.127,39.745,94.079,39.794z"/>
<path fill="#D3C39C" d="M98.723,39.503c1.087,0.597,1.348,0.651,2.612,0.87C100.248,39.778,99.986,39.722,98.723,39.503z"/>
<path fill="#D6CDA4" d="M102.205,39.503v1.741c1.423-0.474,1.267-0.316,1.741-1.741H102.205z"/>
<path fill="#D0B87E" d="M114.394,39.503c-1.064,1.041-1.236,1.146-2.612,1.741c1.787,0.762,3.262,0.83,5.223,0.871
	C116.159,41.009,115.5,40.35,114.394,39.503z"/>
<path fill="#BAAC8C" d="M103.367,40.953c-0.049,0.049-0.098,0.968,0.288,0.582C103.705,41.486,103.753,40.566,103.367,40.953z"/>
<path fill="#E2D4B4" d="M104.237,40.953c-0.049,0.049-0.097,0.968,0.29,0.582C104.576,41.486,104.624,40.566,104.237,40.953z"/>
<path fill="#A79A66" d="M106.559,40.373v1.742h1.741v-1.742H106.559z"/>
<path fill="#A7976B" d="M116.135,40.373c1.75,1.283,2.196,1.275,4.354,0.871C118.948,40.566,117.845,40.451,116.135,40.373z"/>
<path fill="#58442C" d="M120.489,40.373c-0.845,1.394-1.498,2.318-2.612,3.482c2.926,0.994,3.769-0.793,4.353-3.482H120.489z"/>
<path fill="#57677E" d="M169.246,40.373l0.87,0.871L169.246,40.373z"/>
<path fill="#9BAEB8" d="M63.025,41.244v6.967C64.038,45.797,64.038,43.657,63.025,41.244z"/>
<path fill="#DCD3AB" d="M93.498,41.244c1.087,0.597,1.349,0.652,2.612,0.871C95.023,41.52,94.763,41.463,93.498,41.244z"/>
<path fill="#515343" d="M126.583,41.244c-0.83,3.675-1.266,6.679-0.871,10.449c4.439-1.438,4.595-6.048,6.966-9.578
	C130.647,41.256,128.798,41.259,126.583,41.244z"/>
<path fill="#5E6672" d="M170.406,41.823c-0.049,0.049-0.097,0.969,0.291,0.582C170.745,42.356,170.792,41.437,170.406,41.823z"/>
<path fill="#857134" d="M110.041,42.985c2.969,0.915,6.436,0.026,9.577,0C116.5,41.677,113.237,42.04,110.041,42.985z"/>
<path fill="#47473B" d="M130.937,42.115c-0.129,4.036-1.609,7.633-5.225,9.578c0.451,2.707,2.624,4.363,4.354,6.094h-1.741
	c1.311,0.595,2.014,0.719,3.482,0.87c-0.219-3.477-0.574-6.287-1.741-9.576c2.974-0.639,3.858-4.115,4.353-6.966H130.937z"/>
<path fill="#FFFDEE" d="M92.628,44.726c0.353,1.824,0.189,1.759,1.741,2.614c-1.518,0.966-1.844,1.105-2.612,2.612h12.189
	c-1.358-2.714-3.802-4.322-5.223-6.967L92.628,44.726z"/>
<path fill="#F1DFA6" d="M112.653,42.985l-0.871,3.482c2.349-0.502,2.429-1.097,2.612-3.482H112.653z"/>
<path fill="#DAC488" d="M114.394,42.985v3.482h3.483L114.394,42.985z"/>
<path fill="#4E3915" d="M115.264,42.985c1.542,0.677,2.644,0.796,4.354,0.871C118.077,43.178,116.976,43.062,115.264,42.985z"/>
<path fill="#353334" d="M166.633,42.985c4.393,13.2,0.872,24.877,0.872,38.309c4.739-10.287,6.717-27.363,3.482-38.309
	c-0.595,1.311-0.72,2.017-0.871,3.482C168.987,44.888,168.256,43.989,166.633,42.985z"/>
<path fill="#8A8A95" d="M170.987,42.985l0.871,0.871L170.987,42.985z"/>
<path fill="#E2DAB7" d="M92.628,43.855c1.087,0.597,1.348,0.651,2.611,0.871C94.153,44.131,93.893,44.075,92.628,43.855z"/>
<path fill="#EDE1B3" d="M104.817,45.597h2.613l-0.871-1.741C105.135,44.332,105.292,44.175,104.817,45.597z"/>
<path fill="#CFBC76" d="M110.041,43.855v1.741h1.741v-1.741H110.041z"/>
<path fill="#866E35" d="M115.264,43.855l0.871,0.871L115.264,43.855z"/>
<path fill="#B69C73" d="M116.716,44.146c-0.387,0.386,0.532,0.337,0.581,0.291C117.683,44.049,116.765,44.098,116.716,44.146z"/>
<path fill="#DFD7B7" d="M91.757,44.726v2.614C92.364,45.985,92.364,46.081,91.757,44.726z"/>
<path fill="#E5D6A8" d="M116.135,44.726c0.992,0.883,1.404,1.141,2.613,1.741C117.894,44.917,117.957,45.079,116.135,44.726z"/>
<path fill="#AE9D79" d="M119.038,45.308c-0.049,0.046-0.097,0.966,0.291,0.579C119.376,45.839,119.424,44.919,119.038,45.308z"/>
<path fill="#796F65" d="M119.618,44.726c0,1.566,0.012,1.326,0.871,2.614h1.741l0.87-2.614H119.618z"/>
<path fill="#A89A74" d="M102.205,45.597c1.087,0.597,1.348,0.651,2.612,0.87C103.731,45.872,103.468,45.815,102.205,45.597z"/>
<path fill="#615828" d="M103.075,46.467c1.783,0.654,2.261,0.572,3.484-0.87L103.075,46.467z"/>
<path fill="#ACA05E" d="M106.849,46.178c-0.049,0.049-0.097,0.966,0.29,0.58C107.187,46.709,107.235,45.79,106.849,46.178z"/>
<path fill="#F1E2AD" d="M105.687,49.952c4.344,0.793,8.634,0.026,13.061,0.871c-2.701-2.514-5.969-2.941-9.577-2.612l0.87-2.614
	C107.703,46.75,106.841,47.611,105.687,49.952z"/>
<path fill="#E4D88B" d="M109.171,48.21c1.911-0.02,3.385,0.319,5.223,0.871c1.558-1.239,2.355-1.478,4.354-1.741
	C115.624,46.016,111.253,45.187,109.171,48.21z"/>
<path fill="#557089" d="M172.147,46.178c-0.049,0.049-0.097,0.966,0.291,0.58C172.486,46.709,172.533,45.79,172.147,46.178z"/>
<path fill="#CEC89E" d="M102.205,46.467l0.87,0.873L102.205,46.467z"/>
<path fill="#39351E" d="M117.005,49.081l3.483,0.871l0.871-0.871V47.34l-0.871-0.873C118.792,47.284,118.269,47.68,117.005,49.081z"
	/>
<path fill="#CFC598" d="M103.075,47.34l0.871,0.871L103.075,47.34z"/>
<path fill="#99905B" d="M104.527,47.629c-0.386,0.386,0.532,0.34,0.581,0.291C105.494,47.533,104.576,47.58,104.527,47.629z"/>
<path fill="#C5BF80" d="M105.687,47.34l0.872,0.871L105.687,47.34z"/>
<path fill="#C6B069" d="M114.975,47.629c-0.387,0.386,0.532,0.34,0.581,0.291C115.942,47.533,115.024,47.58,114.975,47.629z"/>
<path fill="#A39A49" d="M116.135,47.34v1.741c1.425-0.477,1.268-0.319,1.742-1.741H116.135z"/>
<path fill="#2D3E4B" d="M171.857,47.34v9.576C173.104,53.947,173.104,50.308,171.857,47.34z"/>
<path fill="#E9DAB2" d="M104.237,48.791c-0.049,0.048-0.097,0.965,0.29,0.58C104.576,49.324,104.624,48.404,104.237,48.791z"/>
<path fill="#C7B585" d="M105.107,48.791c-0.048,0.048-0.096,0.965,0.29,0.58C105.446,49.324,105.494,48.404,105.107,48.791z"/>
<path fill="#8AA5BA" d="M172.728,48.21v6.964C173.739,52.762,173.739,50.621,172.728,48.21z"/>
<path fill="#CDC09E" d="M90.887,49.081c1.341,1.569,2.261,1.594,4.353,1.741C93.805,50.016,92.476,49.56,90.887,49.081z"/>
<path fill="#EBE1CC" d="M96.982,49.081c1.523,1.092,2.487,1.404,4.353,1.741C99.811,49.728,98.847,49.416,96.982,49.081z"/>
<path fill="#CBB97D" d="M111.491,49.37c-0.386,0.386,0.534,0.339,0.583,0.291C112.46,49.274,111.54,49.324,111.491,49.37z"/>
<path fill="#8B8564" d="M117.877,49.081l0.871,0.871L117.877,49.081z"/>
<path fill="#A29C79" d="M96.982,51.693l-3.484,0.871c1.313,0.595,2.016,0.719,3.484,0.87c-4.569,1.927-9.048,1.741-13.932,1.741
	c2.796,1.172,5.706,0.742,8.707,0.948c5.269,0.36,10.369,0.793,15.672,0.793c0-5.55-1.706-4.234-6.095-5.515
	c-1.877-0.548-3.045-1.746-5.08-1.015C94.528,51.005,96.933,51.672,96.982,51.693z"/>
<path fill="#B5A583" d="M101.335,49.952c1.086,0.595,1.348,0.652,2.611,0.871C102.859,50.225,102.598,50.171,101.335,49.952z"/>
<path fill="#5A523A" d="M103.946,49.952l-3.482,0.871C101.816,51.597,104.887,52.229,103.946,49.952z"/>
<path fill="#4D3D1D" d="M104.817,49.952c2.26,2.599,6.36,2.253,9.577,1.741C111.545,49.918,108.088,50.666,104.817,49.952z"/>
<path fill="#75663F" d="M106.268,50.24c-0.386,0.389,0.532,0.34,0.581,0.291C107.235,50.145,106.317,50.194,106.268,50.24z"/>
<path fill="#BCAF7E" d="M110.041,49.952l0.871,0.871L110.041,49.952z"/>
<path fill="#D7C89C" d="M112.653,49.952c1.311,0.592,2.015,0.719,3.482,0.871C114.824,50.228,114.121,50.101,112.653,49.952z"/>
<path fill="#969168" d="M116.135,49.952l0.871,0.871L116.135,49.952z"/>
<path fill="#9B9576" d="M118.748,49.952l0.87,0.871L118.748,49.952z"/>
<path fill="#7F7E67" d="M114.394,50.822c-0.336,2.112-0.786,4.101-2.612,5.223c2.972,1.868,6.095,2.452,9.577,2.611
	c-1.714-0.924-3.307-1.334-5.225-1.741C116.292,54.34,115.932,52.903,114.394,50.822z"/>
<path fill="#48431E" d="M115.264,50.822v1.741h6.095C119.344,51.178,117.711,50.946,115.264,50.822z"/>
<path fill="#958F77" d="M106.559,51.693l0.871,5.223h-5.225c3.652,1.53,8.242,0.729,12.189,0.871
	c-1.087-0.598-1.349-0.652-2.612-0.871c0.869-1.3,0.842-1.103,0.871-2.611c1.553-0.855,1.388-0.791,1.741-2.612H106.559z"/>
<path fill="#545044" d="M125.712,53.434c-0.831,1.538-1.364,2.27-2.612,3.482c0.783,1.664,0.937,2.511,0.871,4.353
	c2.662,0.155,5.182,0.284,7.836,0c-1.07-1.628-1.626-1.937-3.482-2.612c1.335-0.891,1.221-0.7,1.741-1.741L125.712,53.434z"/>
<path fill="#8C8265" d="M74.344,56.045c1.087,0.598,1.349,0.651,2.613,0.871C75.869,56.319,75.608,56.265,74.344,56.045z"/>
<path fill="#584D36" d="M76.957,56.045c4.112,1.726,9.497,0.871,13.93,0.871C86.773,55.19,81.388,56.045,76.957,56.045z"/>
<path fill="#7C7156" d="M90.887,56.045c1.54,0.677,2.642,0.793,4.353,0.871C93.699,56.239,92.597,56.12,90.887,56.045z"/>
<path fill="#918570" d="M65.638,56.916c1.541,0.678,2.643,0.793,4.353,0.871C68.451,57.109,67.347,56.993,65.638,56.916z"/>
<path fill="#5F5034" d="M69.991,56.916c1.54,0.678,2.644,0.793,4.353,0.871C72.804,57.109,71.701,56.993,69.991,56.916z"/>
<path fill="#3C2A1E" d="M55.189,65.622c1.257,1.282,1.563,1.715,1.743,3.485c1.423,0.474,1.266,0.316,1.741,1.741
	c2.327-0.742,4.55-1.386,6.965-1.741c1.543-4.556,4.223-6.439,8.706-7.838c-1.54-0.677-2.643-0.793-4.353-0.871
	c7.578-2.271,14.749-2.611,22.637-2.611c-2.756-1.156-5.73-0.871-8.707-0.871C75.608,56.916,58.503,56.185,55.189,65.622z"/>
<path fill="#534532" d="M92.628,56.916c2.275,0.956,4.497,0.865,6.965,0.871C97.318,56.831,95.096,56.921,92.628,56.916z"/>
<path fill="#776C52" d="M99.593,56.916c1.087,0.598,1.348,0.652,2.612,0.871C101.118,57.189,100.856,57.135,99.593,56.916z"/>
<path fill="#89826E" d="M103.946,57.787c3.708,1.664,8.188,1.857,12.188,2.611c-1.414-1.663-3.487-2.117-5.223-3.482
	C108.573,57.352,106.324,57.684,103.946,57.787z"/>
<path fill="#607283" d="M171.857,56.916v2.612C172.463,58.175,172.463,58.268,171.857,56.916z"/>
<path fill="#746851" d="M64.766,57.787c1.089,0.597,1.349,0.651,2.614,0.87C66.293,58.06,66.031,58.005,64.766,57.787z"/>
<path fill="#2E2116" d="M69.991,59.528c1.54,0.677,2.644,0.796,4.353,0.87c-4.765,2.486-6.879,4.853-10.448,8.708
	c0.596,1.375,0.7,1.545,1.742,2.611c-1.189,1.667-1.177,1.488-0.872,3.482c2.053-2.369,2.272-5.596,4.558-7.801
	c9.479-9.143,22.549-7.871,34.623-7.871C93.932,54.204,80.449,59.412,69.991,59.528z"/>
<path fill="#645A40" d="M100.464,57.787c1.311,0.595,2.015,0.719,3.482,0.87C102.635,58.063,101.931,57.938,100.464,57.787z"/>
<path fill="#737357" d="M110.912,57.787c2.208,0.992,4.575,1.291,6.965,1.741C115.647,57.838,113.691,57.817,110.912,57.787z"/>
<path fill="#ACB3BB" d="M56.061,60.398l2.612-0.87C57.124,58.695,56.913,58.86,56.061,60.398z"/>
<path fill="#979792" d="M58.673,58.657c1.087,0.598,1.349,0.652,2.611,0.871C60.198,58.931,59.937,58.876,58.673,58.657z"/>
<path fill="#6C675A" d="M61.284,58.657c1.087,0.598,1.348,0.652,2.612,0.871C62.809,58.931,62.548,58.876,61.284,58.657z"/>
<path fill="#5F5347" d="M103.946,58.657c1.787,0.763,3.263,0.83,5.225,0.871C107.383,58.768,105.907,58.698,103.946,58.657z"/>
<path fill="#51503D" d="M117.877,58.657c1.311,0.595,2.014,0.719,3.482,0.871C120.048,58.933,119.344,58.809,117.877,58.657z"/>
<path fill="#83888F" d="M53.448,64.751c2.058-1.571,3.675-3.15,5.225-5.223C55.653,60.586,54.361,61.668,53.448,64.751z"/>
<path fill="#706F6A" d="M58.673,59.528c1.087,0.597,1.349,0.652,2.611,0.87C60.198,59.801,59.937,59.747,58.673,59.528z"/>
<path fill="#1E0F0A" d="M64.766,79.553c3.214-1.041,5.37-3.827,8.708-4.793c5.197-1.501,10.607-0.907,15.671-3.042
	c-3.47-1.357-8.396-0.719-12.189-0.87c0.857-1.289,0.87-1.048,0.87-2.615c-3.736,0.42-5.765,2.169-8.707,4.355
	c10.479-18.431,36.439-9.138,52.239-5.927c4.966,1.008,9.884,1.868,14.801,3.122c5.34,1.362,12.042,4.973,17.413,3.675
	c-5.327-3.99-12.786-5.535-19.154-7.157c-4.618-1.178-9.264-1.667-13.93-2.594c-4.474-0.891-8.62-2.738-13.059-3.631
	C91.237,56.818,66.087,58.961,64.766,79.553z"/>
<path fill="#433D26" d="M106.559,59.528c3.012,1.448,6.256,1.674,9.576,1.741C113.108,59.659,109.947,59.556,106.559,59.528z"/>
<path fill="#6B674D" d="M113.232,59.819c-0.385,0.386,0.533,0.337,0.582,0.289C114.2,59.721,113.283,59.77,113.232,59.819z"/>
<path fill="#989884" d="M116.135,59.528c1.311,0.595,2.016,0.718,3.483,0.87C118.307,59.803,117.603,59.679,116.135,59.528z"/>
<path fill="#8C8979" d="M118.748,60.398c2.49,1.198,5.083,1.522,7.835,1.742C123.993,60.514,121.761,59.953,118.748,60.398z"/>
<path fill="#403D2E" d="M122.23,59.528c1.087,0.597,1.349,0.652,2.612,0.87C123.756,59.801,123.495,59.747,122.23,59.528z"/>
<path fill="#8C9FB1" d="M171.857,59.528v2.612C172.463,60.787,172.463,60.88,171.857,59.528z"/>
<path fill="#585744" d="M116.135,60.398c1.087,0.598,1.349,0.652,2.613,0.871C117.661,60.674,117.399,60.617,116.135,60.398z"/>
<path fill="#522F23" d="M81.309,63.01l1.741,4.353c2.85,0.559,4.364,1.885,6.096-0.871l-3.484-0.87V63.88
	c4.417-1.609,8.401-1.741,13.061-1.741C93.444,59.924,86.623,61.519,81.309,63.01z"/>
<path fill="#352518" d="M111.782,61.269c2.267,1.36,4.334,1.623,6.966,1.741C116.48,61.652,114.413,61.39,111.782,61.269z"/>
<path fill="#686754" d="M120.489,61.269c1.087,0.598,1.347,0.651,2.611,0.871C122.014,61.544,121.753,61.488,120.489,61.269z"/>
<path fill="#6B6558" d="M124.842,62.14c1.575,0.5,1.801,0.406,3.483,0C126.88,61.787,126.373,61.872,124.842,62.14z"/>
<path fill="#653C30" d="M85.662,63.88v1.741l3.484,0.87l-0.871,3.485c1.744-1.511,1.674-2.923,1.741-5.226
	c1.922-0.595,2.354-0.94,3.482-2.611C90.541,62.209,88.334,62.595,85.662,63.88z"/>
<path fill="#6A493B" d="M93.498,62.14c3.96,1.708,8.776,1.73,13.061,1.741C102.499,61.931,97.922,62.14,93.498,62.14z"/>
<path fill="#8B8879" d="M127.454,62.14c1.086,0.597,1.348,0.651,2.612,0.87C128.979,62.415,128.718,62.358,127.454,62.14z"/>
<path fill="#393431" d="M54.319,63.01c-0.577,3.382,2.444,12.039,6.095,6.967c-1.515,0.054-2.068-0.417-3.482-0.87l-0.871-6.097
	H54.319z"/>
<path fill="#79523E" d="M90.016,64.751v4.355h6.966c-0.984-1.638-2.224-2.903-3.484-4.355l6.095-0.871
	C96.167,62.446,93.358,63.559,90.016,64.751z"/>
<path fill="#777367" d="M130.066,63.01c1.311,0.595,2.016,0.719,3.482,0.871C132.237,63.286,131.533,63.162,130.066,63.01z"/>
<path fill="#594F44" d="M131.807,63.88c1.311,0.595,2.016,0.719,3.482,0.871C133.788,63.832,133.618,63.85,131.807,63.88z"/>
<path fill="#2B1B1B" d="M69.12,72.588c3.059-1.548,5.252-3.654,8.707-4.355l-0.87,2.615c4.217,0.329,7.971,0.329,12.189,0
	c-3.451,2.111-6.44,2.578-10.448,2.611c3.67,1.54,8.235,0.871,12.189,0.871c-0.905-5.427-6.685-5.128-11.318-5.223
	c0.264-1.999,0.503-2.797,1.741-4.355C76.55,62.948,70.703,68.341,69.12,72.588z"/>
<path fill="#885D52" d="M93.498,64.751c1.462,2.478,3.016,4.031,3.484,6.967c0.761-1.787,0.83-3.263,0.87-5.226l13.06,0.871
	c-2.435,1.506-3.539,2.475-4.353,5.226c1.715-1.063,3.163-1.873,4.353-3.482c0.89,1.334,0.701,1.221,1.741,1.741
	c1.507-0.876,2.658-1.347,4.353-1.741C114.573,61.75,99.512,63.991,93.498,64.751z"/>
<path fill="#563529" d="M106.559,63.88c1.786,0.762,3.262,0.829,5.223,0.871C109.995,63.991,108.52,63.921,106.559,63.88z"/>
<path fill="#71695F" d="M135.871,64.171c-0.387,0.386,0.532,0.337,0.581,0.291C136.837,64.074,135.919,64.123,135.871,64.171z"/>
<path fill="#3A261E" d="M79.568,64.751v4.355l8.707,0.87c-1.655-1.753-2.839-2.274-5.225-2.614v-2.612H79.568z"/>
<path fill="#4B2C21" d="M111.782,64.751c1.54,0.68,2.643,0.796,4.353,0.871C114.595,64.944,113.492,64.828,111.782,64.751z"/>
<path fill="#615D53" d="M137.03,64.751c1.313,0.595,2.016,0.718,3.484,0.871C139.203,65.026,138.499,64.903,137.03,64.751z"/>
<path fill="#4F433D" d="M138.773,65.622c3.183,1.442,6.96,2.266,10.448,2.611C146.091,65.742,142.698,65.194,138.773,65.622z"/>
<path fill="#646578" d="M170.987,64.751v2.612C171.592,66.01,171.592,66.106,170.987,64.751z"/>
<path fill="#724E44" d="M116.135,65.622l0.871,3.485c-1.848,0.265-2.337,0.332-3.482,1.741c2.15-0.374,4.044-0.987,6.095-1.741
	C118.772,66.935,118.334,66.366,116.135,65.622z"/>
<path fill="#906956" d="M97.852,66.492v6.097c0.594-1.311,0.719-2.017,0.871-3.482c2.371,1.695,5.148,2.331,7.836,3.482
	c1.152-2.339,2.014-3.201,4.353-4.355C107.859,66.211,101.605,66.533,97.852,66.492z"/>
<path fill="#533B33" d="M118.748,66.492l0.87,2.615l-3.483,0.87c4.229,1.775,9.522,0.816,13.931,0
	C127.688,66.608,122.626,66.66,118.748,66.492z"/>
<path fill="#9296AA" d="M171.276,67.944c-0.049,0.049-0.096,0.966,0.292,0.58C171.615,68.475,171.663,67.559,171.276,67.944z"/>
<path fill="#5F6773" d="M54.319,68.233l0.87,0.874L54.319,68.233z"/>
<path fill="#362C22" d="M116.135,70.848c5.399,2.264,13.464,1.926,19.154,0.87v-2.611c-3.819-0.613-5.952,0.752-9.59,1.444
	C122.602,71.141,119.274,70.848,116.135,70.848z"/>
<path fill="#2E2D32" d="M58.673,72.588l5.223,6.094l1.742-6.964c-1.034-1.033-1.33-1.38-1.742-2.611
	C61.624,69.928,60.396,70.875,58.673,72.588z"/>
<path fill="#654B43" d="M90.016,69.106v1.741h6.966v-1.741H90.016z"/>
<path fill="#987565" d="M98.723,69.106c0.491,4.551,2.855,8.494,3.482,13.058c3.575-0.278,7.083-2.934,3.482-6.094
	c1.129-1.388,1.337-1.757,1.743-3.482C104.528,71.347,101.478,70.649,98.723,69.106z"/>
<path fill="#655047" d="M110.912,69.106l-0.871,5.223c1.379-0.683,2.263-1.628,3.482-2.612
	C112.677,70.61,112.017,69.951,110.912,69.106z"/>
<path fill="#512E22" d="M134.419,69.977c2.726,3.202,5.589,5.561,9.577,6.964l0.871-3.482c-1.493-0.119-7.641-1.103-5.224-2.611
	C137.856,70.085,136.38,70.018,134.419,69.977z"/>
<path fill="#2C1D16" d="M146.608,69.977l6.965,3.482l-2.611,0.871l2.611,4.353c1.041-0.52,0.85-0.407,1.741-1.741
	c1.468,1.443,2.392,1.96,4.354,2.612C159.44,72.042,153.253,70.556,146.608,69.977z"/>
<path fill="#657B95" d="M56.061,70.848l0.871,0.87L56.061,70.848z"/>
<path fill="#3A261F" d="M90.887,70.848v3.482h-4.353c3.355,1.409,7.487,1.481,9.576-1.741L90.887,70.848z"/>
<path fill="#473023" d="M92.628,70.848v1.741h3.482c-2.375,2.426-4.503,2.573-7.835,2.611c2.987,1.255,6.355,0.871,9.577,0.871
	C97.556,72.269,96.428,71.144,92.628,70.848z"/>
<path fill="#4C3933" d="M107.43,70.848c1.84,5.697,4.937,6.088,10.447,6.093c-1.312-0.595-2.015-0.719-3.483-0.87l1.741-5.223
	c-2.674,0.566-4.05,1.718-6.094,3.482v-3.482H107.43z"/>
<path fill="#5A342C" d="M137.902,70.848c2.177,1.896,4.099,2.352,6.964,2.611c-0.536,2.743-0.326,5.071,0,7.835
	c-2.024-0.765-3.974-1.298-6.094-1.741c0.668,3.137,4.924,5.056,6.964,7.835c0.761-1.785,0.831-3.261,0.871-5.223l3.483,0.87
	l-1.741-6.964l4.353,1.741C149.822,72.254,143.678,71.303,137.902,70.848z"/>
<path fill="#575E66" d="M170.116,70.848v2.611C170.722,72.106,170.722,72.199,170.116,70.848z"/>
<path fill="#707D8B" d="M56.932,71.718l0.871,0.871L56.932,71.718z"/>
<path fill="#261E1B" d="M114.394,76.071c7.567,0,16.176-1.033,23.494,1.3c2.549,0.814,4.65,2.663,6.979,3.923
	c-0.674-4.162-5.316-8.481-9.61-9.226c-2.808-0.486-5.784,0.492-8.673,0.147C121.749,71.638,116.103,70.443,114.394,76.071z"/>
<path fill="#748297" d="M57.802,72.588l0.871,0.871L57.802,72.588z"/>
<path fill="#734D3E" d="M97.852,72.588c-0.806,2.82-1.73,3.913-4.354,5.223c-0.146,1.983-0.172,2.338-1.741,3.482
	c0.544,2.259,1.485,4.062,2.612,6.094c1.493-2.145,1.949-4.435,2.613-6.965c1.112,4.621-1.69,7.261-3.484,11.32
	c3.186-0.912,7.945-0.796,8.707-4.355c1.778,1.254,3.132,2.065,5.225,2.614v-3.485c-3.093-0.358-5.604-1.46-8.707-0.871
	c0-4.425,0.524-8.667,0.87-13.058H97.852z"/>
<path fill="#8E624F" d="M107.43,72.588c-0.597,1.375-0.701,1.548-1.743,2.611c2.108,3.892,0.868,6.271-3.482,6.965
	c-0.227-2.784-0.761-5.221-1.741-7.835c-1.254,2.987-0.871,6.354-0.871,9.576c4.305-0.546,10.563-0.459,13.06-4.353h-3.482
	C109.107,76.84,108.968,74.84,107.43,72.588z"/>
<path fill="#7C838D" d="M58.673,73.459l0.87,0.871L58.673,73.459z"/>
<path fill="#8E97A2" d="M170.116,73.459v2.612C170.722,74.718,170.722,74.811,170.116,73.459z"/>
<path fill="#787C86" d="M59.543,74.33l0.871,0.87L59.543,74.33z"/>
<path fill="#352623" d="M67.38,76.941c3.447,1.018,6.973-1.143,10.447-1.741C74.048,73.631,70.903,75.378,67.38,76.941z"/>
<path fill="#49362B" d="M77.827,74.33c2.753,1.157,5.733,0.87,8.707,0.87C83.779,74.043,80.8,74.33,77.827,74.33z"/>
<path fill="#655044" d="M74.344,75.2c4.113,1.726,9.499,0.871,13.931,0.871C84.162,74.345,78.776,75.2,74.344,75.2z"/>
<path fill="#845541" d="M109.171,75.2v4.353h3.482c-3.372,3.482-8.462,3.487-13.06,4.353v-7.835c-1.254,2.987-0.87,6.354-0.87,9.576
	c2.49-0.121,4.535,0.904,6.964,0.956c1.81,0.039,3.431-0.909,5.225-1.001c1.645-0.085,3.347,0.71,4.963,0.159
	c1.775-0.603,2.446-2.642,4-3.585c1.512-0.914,3.274-0.824,4.967-0.88l-1.742-3.482C118.516,77.616,113.222,77.454,109.171,75.2z"/>
<path fill="#303C49" d="M169.246,75.2c-1.167,3.686-1.662,7.451-1.741,11.317C169.517,83.57,170.296,78.618,169.246,75.2z"/>
<path fill="#4B5A62" d="M62.155,76.071v1.741h1.741C63.422,76.387,63.58,76.544,62.155,76.071z"/>
<path fill="#5A423A" d="M63.896,83.035l6.095-1.741c1.155-2.194,2.222-3.05,4.353-4.353C69.847,75.996,66.129,79.426,63.896,83.035z
	"/>
<path fill="#7F5A47" d="M68.25,82.165c1.995,1.316,3.933,2.47,6.094,3.482l1.741-4.353l-3.482,0.871
	c1.859-2.926,3.567-4.419,6.965-5.224C74.713,74.981,70.881,78.301,68.25,82.165z"/>
<path fill="#896251" d="M72.603,82.165l13.931-3.482C82.077,73.997,74.972,76.769,72.603,82.165z"/>
<path fill="#845642" d="M84.792,76.071c0.519,2.594,1.365,1.509,0.87,3.482c3.029,0.193,5.755,1.136,8.707,1.741
	C92.672,76.972,88.882,77.078,84.792,76.071z"/>
<path fill="#6A3A23" d="M85.662,76.071c3.571,1.602,7.57,1.947,11.32,0.87C93.535,75.494,89.375,76.071,85.662,76.071z"/>
<path fill="#372820" d="M117.877,76.071c4.548,1.909,10.769,0.87,15.671,0.87C129.001,75.033,122.78,76.071,117.877,76.071z"/>
<path fill="#694D41" d="M148.35,76.071l1.741,6.964l-3.483-0.87c0,2.148,0.169,3.492-0.871,5.223l-0.871-0.871
	c0.73,2.288,1.196,2.753,3.483,3.485v-3.485c4.018,5.854,3.323,11.457,4.577,18.137c0.846,4.495,2.016,7.626,1.517,12.337
	c4.747-6.908,1.341-14.441,0.263-21.766c-0.636-4.322,0.125-8.733-0.649-13.048C153.398,78.501,151.898,76.941,148.35,76.071z"/>
<path fill="#4D3C35" d="M117.877,76.941c5.731,2.406,12.973,0.683,19.153,2.612C133.703,74.842,123.133,76.941,117.877,76.941z"/>
<path fill="#38241D" d="M135.289,76.941c2.034,2.166,4.09,2.851,6.966,3.482C140.51,77.657,138.482,77.155,135.289,76.941z"/>
<path fill="#0D0A09" d="M154.444,76.941c0.546,2.555,0.999,3.493,3.483,4.353c-0.208,1.824-0.161,3.387,0,5.223
	c1.041-0.52,0.85-0.404,1.742-1.741c1.805,2.264,3.333,4.278,6.093,5.226C165.024,83.3,160.029,79.926,154.444,76.941z"/>
<path fill="#808B95" d="M62.155,77.812l0.871,4.353C63.823,80.163,63.792,79.226,62.155,77.812z"/>
<path fill="#836153" d="M123.1,77.812c1.625,5.756,8.191,2.583,13.06,3.482C132.767,78.682,127.348,78.005,123.1,77.812z"/>
<path fill="#695045" d="M127.454,77.812c2.516,1.507,4.929,1.68,7.835,1.741C132.848,77.704,130.472,77.822,127.454,77.812z"/>
<path fill="#4C5F6A" d="M169.536,78.391c-0.049,0.049-0.097,0.969,0.291,0.582C169.874,78.924,169.922,78.005,169.536,78.391z"/>
<path fill="#343841" d="M63.896,78.682v3.482l3.484-1.742C66.18,79.63,65.255,79.203,63.896,78.682z"/>
<path fill="#623B32" d="M77.827,79.553c4.145,2.205,10.154,2.697,14.801,3.482C89.375,77.729,83.21,79.445,77.827,79.553z"/>
<path fill="#442922" d="M153.573,78.682v3.482C154.191,80.632,154.191,80.214,153.573,78.682z"/>
<path fill="#76503F" d="M135.289,79.553c1.264,1.398,1.787,1.798,3.484,2.612C138.27,79.815,137.674,79.736,135.289,79.553z"/>
<path fill="#1C1412" d="M154.444,79.553c1.834,8.93,1.894,17.875,2.611,26.989c3.064-1.035,7.711-3.493,9.578-6.093
	c-3.223,0.036-5.694,0.667-8.706,1.741c-0.001-6.982-0.48-13.921,0-20.896L154.444,79.553z"/>
<path fill="#6F8291" d="M169.536,80.132c-0.049,0.049-0.097,0.968,0.291,0.582C169.874,80.665,169.922,79.746,169.536,80.132z"/>
<path fill="#502F20" d="M76.085,83.035c1.778-0.777,3.333-1.336,5.224-1.741C78.802,80.338,77.522,80.813,76.085,83.035z"/>
<path fill="#67443B" d="M96.982,80.423c-0.782,2.298-1.28,4.583-1.743,6.965c-2.418-3.008-7.723-8.399-11.318-4.353
	c2.232,0.268,4.004,0.899,6.095,1.741l-2.611,1.741c1.086,0.598,1.347,0.652,2.611,0.871v5.226
	C94.943,91.109,99.073,85.567,96.982,80.423z"/>
<path fill="#9D6C58" d="M127.454,80.423v2.612l8.706,1.741c-0.876-1.507-1.346-2.658-1.741-4.353H127.454z"/>
<path fill="#8F7067" d="M67.088,81.585c-0.386,0.386,0.533,0.337,0.581,0.289C68.057,81.487,67.138,81.536,67.088,81.585z"/>
<path fill="#251D1A" d="M77.827,81.294c0.883,3.276,1.81,4.659,5.223,5.223c0-1.563-0.012-1.324-0.87-2.611h2.612
	C82.911,81.296,80.938,81.33,77.827,81.294z"/>
<path fill="#5F3426" d="M113.523,89.131l-4.352-1.743c0.984,4.404,2.588,5.9,6.964,6.967v-4.353h6.095
	c-1.119-1.968-1.83-3.977-2.612-6.096c7.848-1.183,12.646,4.762,19.155,7.837c-0.333-6.742-12.73-12.702-18.969-10.034
	C117.733,82.595,114.65,87.163,113.523,89.131z"/>
<path fill="#96644C" d="M134.419,81.294c0.404,1.726,0.613,2.094,1.741,3.482c-3.308,1.44,2.102,1.741,3.483,1.741v-4.353
	L134.419,81.294z"/>
<path fill="#869BAD" d="M169.536,81.874c-0.049,0.049-0.097,0.968,0.291,0.582C169.874,82.407,169.922,81.487,169.536,81.874z"/>
<path fill="#B4BDD1" d="M63.025,82.165v6.096C64.411,85.896,64.595,84.418,63.025,82.165z"/>
<path fill="#DCA88E" d="M66.509,82.165c-0.834,2.629-1.501,5.084-1.743,7.837c0.941-1.27,1.251-1.958,1.743-3.485
	c2.113,0.229,3.981,0.229,6.094,0C71.125,83.694,69.619,82.798,66.509,82.165z"/>
<path fill="#39251E" d="M75.214,85.646l3.483-0.871c0-1.563-0.013-1.324-0.871-2.611C76.156,83.292,75.811,83.725,75.214,85.646z"/>
<path fill="#73605B" d="M85.373,82.455c-0.387,0.387,0.532,0.338,0.581,0.289C86.339,82.357,85.421,82.407,85.373,82.455z"/>
<path fill="#7D5448" d="M139.643,82.165c1.003,4.953,4.294,7.66,4.353,13.061c-1.618-2.264-2.583-4.268-5.223-5.223v4.353
	l-8.707-1.741c0.464,4.128,3.261,6.598,4.353,10.446l6.095,0.871c-0.779,1.777-1.338,3.333-1.741,5.223
	c10.391-0.257,8.168,7.06,7.835,14.8h-4.353l-3.482,7.84c2.155,2.844,1.741,6.1,1.741,9.576c-2.581,0.845-3.05,1.685-3.484,4.353
	l-5.223-0.87v3.482l-3.482-0.871c1.578,7.366,11.181-1.03,13.857-3.364c5.717-4.981,3.874-9.447,5.563-15.793
	c0.849-3.189,2.287-5.27,2.345-8.705c3.479-1.223,3.729-4.391,4.099-7.832c0.346-3.204-0.978-5.661-1.378-8.744
	c-0.763-5.882-0.67-11.199-3.591-16.509c-0.595,1.311-0.72,2.017-0.871,3.485C144.456,87.861,144.257,83.503,139.643,82.165z"/>
<path fill="#493636" d="M154.444,82.165v14.801C156.083,93.059,156.083,86.071,154.444,82.165z"/>
<path fill="#887679" d="M64.766,83.035v1.741c1.425-0.474,1.268-0.316,1.743-1.741H64.766z"/>
<path fill="#998C90" d="M83.05,83.906c2.009,2.776,4.198,2.755,6.966,0.87C87.425,83.579,85.855,83.377,83.05,83.906z"/>
<path fill="#201316" d="M119.618,83.906c1.21,4.365,2.257,5.849,6.965,5.225l0.871-4.355
	C124.588,83.573,122.644,83.148,119.618,83.906z"/>
<path fill="#352727" d="M155.314,83.035v17.414C157.131,96.119,157.131,87.365,155.314,83.035z"/>
<path fill="#562B1F" d="M74.344,83.906c0.354,1.823,0.189,1.759,1.741,2.611C75.483,85.309,75.229,84.897,74.344,83.906z"/>
<path fill="#534D4F" d="M82.18,83.906l0.87,0.87L82.18,83.906z"/>
<path fill="#B09492" d="M64.766,84.776l-0.87,1.741h1.742C65.638,84.905,65.898,85.343,64.766,84.776z"/>
<path fill="#B88460" d="M72.603,84.776v3.485c1.564,0,1.325-0.013,2.611-0.873C74.253,86.121,73.871,85.737,72.603,84.776z"/>
<path fill="#563E36" d="M76.085,86.517l2.613-0.871C77.149,84.814,76.938,84.979,76.085,86.517z"/>
<path fill="#614337" d="M83.05,84.776c-1.259,1.989-2.011,2.249-4.353,2.612c2.443,1,4.415,0.605,6.964,0
	C84.816,86.283,84.157,85.624,83.05,84.776z"/>
<path fill="#6E4530" d="M107.43,90.002l-5.225-2.614c-1.26,1.988-2.011,2.249-4.353,2.614c2.12,2.117,4.021,2.949,6.965,3.482
	c0,2.061-0.502,4.933,0.291,6.869c1.134,2.769,2.792,1.084,3.192-0.775c1.89,0.472,1.655,0.731,2.612-0.871
	c1.288,0.858,1.047,0.871,2.611,0.871v-3.482c2.051,0.754,3.946,1.37,6.095,1.741c0.023-2.071,0.053-2.336,1.741-3.482
	c-1.674-1.125-3.343-1.864-5.225-2.612c-3.173,3.876-5.987-1.308-6.964-4.355l4.352,1.743c1.065-1.042,1.237-1.148,2.612-1.743
	C112.116,84.534,108.292,84.583,107.43,90.002z"/>
<path fill="#3C2922" d="M127.454,84.776c1.064,1.041,1.237,1.146,2.612,1.741C129.001,85.476,128.83,85.371,127.454,84.776z"/>
<path fill="#8C564B" d="M139.643,84.776c-1.065,1.041-1.236,1.146-2.613,1.741c2.089,2.941,4.298,5.551,6.096,8.708
	C144.966,90.831,143.073,87.625,139.643,84.776z"/>
<path fill="#100C12" d="M158.798,84.776c-1.684,5.991-0.875,11.289-0.871,17.414c2.683-0.631,5.049-1.561,7.835-1.741
	c0-1.563-0.012-1.324-0.87-2.612c3.389-2.583,2.717-7.557,1.741-11.32c-0.595,1.311-0.718,2.017-0.871,3.485L158.798,84.776z"/>
<path fill="#667485" d="M168.375,84.776v6.097C169.296,88.665,169.296,86.983,168.375,84.776z"/>
<path fill="#84523F" d="M75.214,86.517c1.782,0.654,2.26,0.572,3.483-0.871L75.214,86.517z"/>
<path fill="#452D23" d="M78.698,85.646c1.341,1.571,2.261,1.597,4.353,1.741C81.616,86.584,80.287,86.128,78.698,85.646z"/>
<path fill="#514744" d="M126.583,85.646v2.614C127.189,86.906,127.189,87.001,126.583,85.646z"/>
<path fill="#A19590" d="M127.454,85.646l-0.871,4.355h4.354C130.11,87.766,129.462,86.927,127.454,85.646z"/>
<path fill="#8E7E83" d="M63.896,86.517v2.614C64.502,87.776,64.502,87.872,63.896,86.517z"/>
<path fill="#ECB89D" d="M66.509,86.517c-1.745,3.624-3.051,6.346-2.613,10.449c1.572-2.475,2.743-4.997,3.484-7.835l10.447,2.612
	C74.86,88.915,70.521,87.28,66.509,86.517z"/>
<path fill="#CD9371" d="M69.991,86.517c2.163,2.212,3.896,2.516,6.966,2.614c-1.67-0.997-2.379-1.022-4.354-0.87
	C71.749,86.708,71.812,86.873,69.991,86.517z"/>
<path fill="#764F49" d="M83.921,89.131l3.484-0.87c-1.336,0.888-1.221,0.7-1.743,1.741c1.288,0.857,1.048,0.871,2.613,0.871
	c0,2.459,0.995,2.429,3.482,2.611l-1.741-1.741c0,0.366,1.67-1.545,0.871-2.612c-1.261-1.681-1.429,0.49-0.871-1.743
	C87.257,87.022,85.615,86.803,83.921,89.131z"/>
<path fill="#52494A" d="M125.131,87.099c-0.047,0.049-0.095,0.966,0.291,0.58C125.472,87.63,125.519,86.71,125.131,87.099z"/>
<path fill="#4B2F26" d="M130.066,86.517c1.01,1.726,1.784,2.388,3.482,3.485l0.871-0.871
	C132.952,87.689,132.029,87.171,130.066,86.517z"/>
<path fill="#131E33" d="M167.505,86.517c-0.236,2.182-0.369,3.946,0,6.097C168.425,90.406,168.425,88.725,167.505,86.517z"/>
<path fill="#AF7C69" d="M75.214,87.388c1.311,0.595,2.017,0.721,3.483,0.873C77.387,87.666,76.682,87.54,75.214,87.388z"/>
<path fill="#9993A0" d="M63.025,88.261v4.353C64.021,90.736,64.075,90.087,63.025,88.261z"/>
<path fill="#C79081" d="M75.214,89.131c2.923,2.52,5.83,2.599,9.578,2.612C81.684,89.443,79.06,88.423,75.214,89.131z"/>
<path fill="#986258" d="M79.568,88.261c2.54,2.323,5.442,4.121,8.707,5.223v-2.611c-1.46-0.876-2.252-0.878-0.87-1.742
	C84.941,88.163,82.217,88.322,79.568,88.261z"/>
<path fill="#85665E" d="M130.937,88.261c-1.557,1.236-2.357,1.476-4.354,1.741c2.03,0.855,3.881,0.853,6.095,0.871
	C132.083,89.495,131.978,89.325,130.937,88.261z"/>
<path fill="#F2CAB4" d="M67.38,89.131l-0.871,4.353l2.611-1.741l-0.87,3.482c5.757-0.064,10.68-2.596,16.542-2.611
	C79.67,90.463,72.901,90.46,67.38,89.131z"/>
<path fill="#6C4E45" d="M116.135,90.002c1.369,2.367,2.547,2.936,5.225,3.482c-1.799,1.164-2.198,1.422-2.611,3.482l5.223-1.741
	c0-1.566-0.012-1.324-0.871-2.611c2.494-0.49,4.461-0.415,6.966,0C126.764,88.188,120.974,89.986,116.135,90.002z"/>
<path fill="#482417" d="M133.548,89.131c1.206,2.849,2.149,3.849,5.225,4.353C137.512,91.006,136.16,90.046,133.548,89.131z"/>
<path fill="#A3A8BD" d="M62.155,90.002c0.267,1.847,0.334,2.339,1.741,3.482C63.377,92.124,62.95,91.2,62.155,90.002z"/>
<path fill="#5C3D32" d="M130.066,92.614c2.952,0.605,5.678,1.547,8.707,1.741c-2-1.326-3.22-2.225-4.354-4.353
	C132.334,90.566,131.341,90.898,130.066,92.614z"/>
<path fill="#9A6754" d="M92.628,91.743c2.083,0.644,3.912,0.263,6.095,0C96.526,90.88,94.928,91.205,92.628,91.743z"/>
<path fill="#FCD8C6" d="M67.38,91.743c-1.703,7.15,0.985,10.862,2.611,17.411c5.048,1.36,10.4,1.442,12.189-4.353
	c-7.346,5.045-11.7,0.425-14.8-6.964c5.227-0.984,9.824-2.524,14.8-4.353c-0.583,2.854-2.028,4.533-3.482,6.965
	c2.201-0.044,3.99-0.242,6.094-0.871l-0.871,4.353c4.727-0.819,6.567-8.631,1.613-10.792c-5.64-2.462-11.686,1.921-17.284,2.086
	l0.87-3.482H67.38z"/>
<path fill="#D29179" d="M95.82,92.031c-0.386,0.389,0.532,0.34,0.582,0.291C96.787,91.937,95.869,91.985,95.82,92.031z"/>
<path fill="#F7B396" d="M91.757,99.578c2.693-0.265,4.522-0.35,6.966,0.871c1.079-2.96,1.667-5.553,1.741-8.706
	C95.82,92.269,92.533,94.864,91.757,99.578z"/>
<path fill="#855848" d="M123.1,92.614l0.871,2.611c-3.947,1.231-6.352,1.844-10.448,0.871v3.482l-2.611-0.871
	c0.249,2.73-0.384,9.087,2.611,9.576c-0.68,2.563-1.214,3.85-3.482,5.226c1.613,2.62,3.108,3.626,6.094,4.353
	c-0.635-4.806-1.741-8.963-1.741-13.931c4.377,1.594,7.648,1.228,12.189,0.87c-2.866-4.695-2.082-7.015-1.741-12.187h3.483
	C126.303,91.81,125.208,92.014,123.1,92.614z"/>
<path fill="#B97E6E" d="M92.338,92.902c-0.388,0.389,0.532,0.34,0.581,0.292C93.305,92.807,92.386,92.855,92.338,92.902z"/>
<path fill="#DA9987" d="M94.079,92.902c-0.387,0.389,0.532,0.34,0.581,0.292C95.046,92.807,94.127,92.855,94.079,92.902z"/>
<path fill="#EBA07C" d="M100.464,92.614v6.093c1.531-2.009,1.669-3.562,1.741-6.093H100.464z"/>
<path fill="#966551" d="M124.842,92.614c-0.566,4.45-2.568,8.103,1.741,11.317l-0.871-3.482c2.621,1.607,4.775,2.335,7.836,2.611
	l-0.871,1.741c3.01,0.626,4.292,1.391,5.225,4.353c-1.834-0.559-3.305-0.788-5.225-0.871c0.854,1.553,0.791,1.389,2.611,1.744
	c0.303,2.97,0.909,5.841,1.741,8.706c-2.285,0.731-2.752,1.195-3.482,3.48l3.482-0.869c-0.403,1.89-0.962,3.445-1.741,5.222
	c-1.667-1.185-1.489-1.175-3.482-0.871c-0.909-4.237-3.83-1.112-6.894-2.055c-1.91-0.587-2.692-2.443-3.554-4.038
	c-1.067,4.352,1.738,10.806,1.741,15.674l8.707-1.741c0.367-2.478,0.818-3.493,2.612-5.229l-0.871,3.487
	c4.173-0.7,7.424-3.843,8.707-7.84h4.353c0.337-4.274,3.133-13.206-2.771-14.909c-1.606-0.463-3.445-0.057-5.064,0.108l1.741-5.223
	l-6.095-0.871c-0.623-3.938-3.558-6.524-4.353-10.446H124.842z"/>
<path fill="#424F61" d="M167.505,92.614l0.87,0.87L167.505,92.614z"/>
<path fill="#E7BFB2" d="M62.155,93.484l-1.741,3.482c1.288,0.858,1.046,0.871,2.611,0.871l0.871-4.353H62.155z"/>
<path fill="#F6BBA8" d="M64.766,93.484c-0.823,6.514-0.31,9.798,2.614,15.67c1.803-4.43-0.868-10.789-0.871-15.67H64.766z"/>
<path fill="#FDE2D0" d="M81.309,93.484c-4.663,1.751-9.096,3.161-13.929,4.353c0.978,3.727,4.239,10.132,8.737,10.132
	c3.043,0,5.766-2.445,8.675-3.168c-0.214-1.846-0.2-3.371,0-5.223c-2.07,0.497-3.968,0.775-6.094,0.871
	C80.669,98.161,82.379,96.562,81.309,93.484z"/>
<path fill="#C18B6B" d="M87.405,93.484c1.54,0.677,2.642,0.793,4.353,0.871C90.217,93.675,89.113,93.559,87.405,93.484z"/>
<path fill="#F6C0A3" d="M89.146,94.354c1.211,4.827-1.687,8.989-1.741,13.929c2.136-2.952,4.236-5.401,6.964-7.834
	c-1.087-0.598-1.348-0.652-2.612-0.871c0.713-2.429,1.999-4.043,3.482-6.094L89.146,94.354z"/>
<path fill="#C07D6D" d="M102.205,93.484v6.094C103.127,97.371,103.127,95.688,102.205,93.484z"/>
<path fill="#A8725E" d="M103.075,93.484v3.482C103.695,95.434,103.695,95.014,103.075,93.484z"/>
<path fill="#86503C" d="M103.946,93.484c0,3.055-0.681,6.588,1.741,8.706C105,99.3,105.086,96.193,103.946,93.484z"/>
<path fill="#8B9CAE" d="M167.505,93.484v2.612C168.11,94.744,168.11,94.836,167.505,93.484z"/>
<path fill="#FBCCB1" d="M88.275,94.354v7.835C90.204,99.245,90.784,97,88.275,94.354z"/>
<path fill="#D3C0C7" d="M56.932,95.225c0,6.98,1.443,13.921,0.622,20.896c-0.483,4.093-1.59,9.292,1.989,12.187
	c-1.888-10.167-0.927-21.023-1.741-31.341l3.482-0.87C59.745,95.418,58.64,95.3,56.932,95.225z"/>
<path fill="#1E2E42" d="M166.633,95.225v3.482C167.251,97.175,167.251,96.755,166.633,95.225z"/>
<path fill="#68819E" d="M167.505,96.096v2.611C168.11,97.355,168.11,97.448,167.505,96.096z"/>
<path fill="#BB9391" d="M57.802,96.966v4.353C58.524,99.552,58.524,98.733,57.802,96.966z"/>
<path fill="#B17E73" d="M58.673,96.966v3.483c1.27-1.141,1.877-1.942,2.611-3.483H58.673z"/>
<path fill="#F7B697" d="M63.025,96.966c-0.78,2.297-1.278,4.583-1.741,6.965c1.958,2.544,2.21,5.545,2.612,8.708l2.613-1.741
	c0.067,2.303-0.004,3.714,1.741,5.223l-0.87,3.482c4.987,1.615,6.624,7.829,5.223,12.191h3.482v-3.487l7.836-1.741
	c-1.087-0.592-1.348-0.649-2.612-0.871l0.871-3.482h-4.353v2.612c-1.656-0.732-2.902-1.519-4.354-2.612
	c2.148-3.797-0.591-6.721-4.353-7.833c-0.467-4.536-3.02-7.449-4.559-11.566C63.839,100.879,63.831,98.859,63.025,96.966z"/>
<path fill="#E9AE8F" d="M99.593,96.966c-1.948,3.604-3.773,4.562-7.836,4.353l-2.611,4.353c5.771-0.632,12.5-0.637,13.059-7.835
	C100.692,97.891,100.777,97.855,99.593,96.966z"/>
<path fill="#8D5E54" d="M103.075,96.966c0,3.055-0.858,6.22,2.612,6.965c-1.287,0.86-1.047,0.87-2.612,0.87
	c4.08,1.911,5.297,2.213,4.354,6.967c3.6-1.095,5.962-5.035,2.335-8.062c-1.658-1.383-3.789-1.406-5.819-1.517
	C103.906,100.229,103.838,98.754,103.075,96.966z"/>
<path fill="#E2A080" d="M61.284,97.837v4.353C62.007,100.423,62.007,99.604,61.284,97.837z"/>
<path fill="#1A1D2C" d="M164.892,97.837l0.87,2.612c0.598-1.087,0.653-1.348,0.871-2.612H164.892z"/>
<path fill="#BD7458" d="M59.543,98.707l-0.87,3.482c2.348-0.502,2.429-1.097,2.611-3.482H59.543z"/>
<path fill="#FEEEDD" d="M69.991,98.707c0.694,2.9,2.318,5.128,3.482,7.835c2.202-0.043,3.989-0.242,6.095-0.87v-1.741
	C76.268,101.265,74.452,99.006,69.991,98.707z"/>
<path fill="#FBD2BC" d="M94.369,98.707v3.482c2.287-0.729,2.753-1.195,3.483-3.482H94.369z"/>
<path fill="#5D4D50" d="M166.633,98.707l-0.871,5.224h6.966c-1.753-1.066-3.186-1.432-5.223-1.741
	C167.353,100.724,167.229,100.019,166.633,98.707z"/>
<path fill="#A4A4B2" d="M167.505,98.707v3.482C168.123,100.657,168.123,100.24,167.505,98.707z"/>
<path fill="#A06856" d="M102.205,99.578c-1.6,3.246-3.776,4.505-6.966,6.094l1.743,2.611l8.705-3.482
	c-1.085-0.595-1.348-0.651-2.612-0.87C103,102.22,102.884,101.118,102.205,99.578z"/>
<path fill="#5C311D" d="M108.3,99.578c0.442,2.625,1.01,3.372,3.482,4.353C111.066,101.571,110.418,100.85,108.3,99.578z"/>
<path fill="#A26F5B" d="M125.712,100.449l0.871,4.352c-4.437,0.188-7.851,0.265-12.189-0.87c0,8.525,1.099,14.631,9.153,19.143
	c3.076,1.726,6.054-0.577,8.26,2.622c1.493,0.114,2.118,0.268,3.482,0.871c1.041-1.886,1.474-3.09,1.741-5.222l-3.482,0.869
	c1.006-1.956,1.525-2.476,3.482-3.48c-0.494-4.263-1.653-7.14-4.353-10.449l5.225,0.871c-0.575-3.32-1.968-3.977-5.225-4.353
	l0.871-1.741C130.693,102.617,128.328,101.669,125.712,100.449z"/>
<path fill="#402825" d="M166.052,101.898c-0.048,0.049-0.095,0.968,0.291,0.582C166.392,102.432,166.439,101.512,166.052,101.898z"
	/>
<path fill="#ECAC8C" d="M58.673,102.189c0.183,2.761,1.31,5.154,1.629,7.871c0.671,5.71-0.134,10.969,1.853,16.505l-2.612,0.871
	c2.142,0.778,3.845,0.407,6.095,0l-0.872,2.616c1.484,2.993,1.316,7.078,1.743,10.447c8.847,0.592,9.477-4.718,11.318-12.192
	c-1.409,1.148-1.474,1.638-1.742,3.487h-3.482c0.475-1.427,0.317-1.267,1.741-1.741c-1.356-4.229-2.353-8.936-6.964-10.45
	l0.87-3.482c-1.378-1.793-1.59-2.949-1.741-5.223c-1.145,0.667-1.072,0.595-1.743,1.741
	C63.196,108.443,63.588,103.581,58.673,102.189z"/>
<path fill="#838296" d="M170.697,102.48c-0.388,0.386,0.531,0.337,0.58,0.288C171.663,102.383,170.745,102.432,170.697,102.48z"/>
<path fill="#C88E72" d="M97.852,104.801l2.612-0.87C98.916,103.099,98.704,103.263,97.852,104.801z"/>
<path fill="#39281F" d="M160.539,103.06c1.787,0.762,3.262,0.829,5.223,0.871C163.976,103.171,162.5,103.101,160.539,103.06z"/>
<path fill="#BAC3D6" d="M56.932,103.931v13.931C58.509,114.101,58.509,107.691,56.932,103.931z"/>
<path fill="#FBCFB2" d="M69.991,109.154c2.117,4.255,5.686,7.454,6.966,12.19l5.223-2.611c-2.98-4.548,0.471-9.051,5.225-10.449
	v-4.353c-4.473,0.731-6.305,4.371-10.418,5.679C74.645,110.354,72.313,109.563,69.991,109.154z"/>
<path fill="#5E3828" d="M159.669,105.672l3.482-0.871C161.37,104.147,160.89,104.232,159.669,105.672z"/>
<path fill="#854C33" d="M163.151,103.931c1.75,1.285,2.195,1.274,4.354,0.87C165.963,104.124,164.861,104.008,163.151,103.931z"/>
<path fill="#A1664D" d="M159.669,111.768c1.423-0.477,1.266-0.319,1.74-1.741c1.032,0.901,1.396,1.164,2.612,1.741
	c5.902-5.489,6.962,2.192,6.966,6.964c5.159-3.511,3.329-9.713,1.741-14.802C166.643,104.103,160.204,104.68,159.669,111.768z"/>
<path fill="#745454" d="M172.728,103.931l0.87,3.482c0.595-1.311,0.72-2.014,0.871-3.482H172.728z"/>
<path fill="#854736" d="M90.887,104.801l0.871,4.353c0.574-1.283,0.854-2.432,1.741-3.482
	C92.411,105.077,92.15,105.02,90.887,104.801z"/>
<path fill="#654336" d="M157.055,106.542c-0.763,6.017-0.98,16.608-5.223,20.895l0.871,2.616c-4.541,2.38-4.863,10.071-5.223,14.8
	c6.373-4.786,3.93-15.69,13.059-18.287l-1.741,5.228c7.39,3.045,10.913-3.827,12.189-10.45c-4.286,1.487-4.359,6.01-9.578,6.093
	l1.742-2.612c-1.847-0.211-3.373-0.201-5.224,0c0.778-1.777,1.337-3.332,1.742-5.222c-2.305,0-1.742-1.339-1.742-3.482l4.353,0.871
	c-1.779-5.012-2.674-7.304,0-12.19L157.055,106.542z"/>
<path fill="#F9C2A1" d="M68.25,105.672l0.87,8.708c2.933,1.442,5.508,3.534,4.353,6.964c1.274,2.121,1.993,2.765,4.354,3.481
	l0.871-3.481c-3.571-3.899-8.343-10.369-8.707-15.672H68.25z"/>
<path fill="#CC907A" d="M88.275,105.672c0.363,2.341,0.625,3.095,2.612,4.355l-0.871-4.355H88.275z"/>
<path fill="#A0614C" d="M90.306,106.253c-0.048,0.046-0.097,0.966,0.29,0.58C90.645,106.784,90.693,105.865,90.306,106.253z"/>
<path fill="#3D120F" d="M91.757,105.672l0.871,3.482l3.482-0.871v-1.741C94.542,106.053,93.393,105.826,91.757,105.672z"/>
<path fill="#401F14" d="M101.335,108.283h3.482l-0.871-1.741h4.354C105.361,105.321,103.203,105.692,101.335,108.283z"/>
<path fill="#7C767E" d="M174.759,106.253c-0.048,0.046-0.096,0.966,0.291,0.58C175.099,106.784,175.146,105.865,174.759,106.253z"/>
<path fill="#F5BBA3" d="M58.673,106.542l0.87,11.32c1.447-3.446,0.871-7.605,0.871-11.32H58.673z"/>
<path fill="#804F3E" d="M96.11,106.542c-0.474,1.424-0.317,1.267-1.741,1.741C96.14,108.968,96.794,108.314,96.11,106.542z"/>
<path fill="#613D31" d="M100.464,106.542c0.554,2.596,1.87,2.748,4.353,3.485c-0.499-2.496-1.286-1.295-3.482-2.614l0.87-0.871
	H100.464z"/>
<path fill="#240C0A" d="M103.946,106.542l0.871,3.485c2.287-0.731,2.752-1.198,3.483-3.485H103.946z"/>
<path fill="#4C2717" d="M108.3,106.542v2.612C108.906,107.801,108.906,107.897,108.3,106.542z"/>
<path fill="#B67C66" d="M90.016,107.413v1.741h1.741v-1.741H90.016z"/>
<path fill="#8F6753" d="M96.11,109.154c2.165,1.73,4.251,3.114,6.095,5.226c0.679-1.54,0.794-2.645,0.87-4.353
	c-1.848-0.783-1.828-0.765-2.611-2.614C98.831,107.889,97.629,108.381,96.11,109.154z"/>
<path fill="#625D6D" d="M174.469,107.413c-0.013,5.11-1.953,9.058-2.612,13.931C175.287,117.795,176.399,112.013,174.469,107.413z"
	/>
<path fill="#FCD7BF" d="M80.439,117.862c3.123-2.547,5.403-4.52,9.577-4.353C88.527,104.175,79.208,111.201,80.439,117.862z"/>
<path fill="#744135" d="M112.653,108.283c-2.804,2.593-4.857,4.064-8.707,4.355c0.476,1.63,0.965,2.833,1.741,4.353l5.225-0.871
	c0-1.566-0.011-1.324-0.871-2.612C112.735,112.721,113.66,110.938,112.653,108.283z"/>
<path fill="#D3A590" d="M90.016,110.027c2.037,0.492,3.979,0.152,6.094,0C93.859,109.1,92.348,109.345,90.016,110.027z"/>
<path fill="#825349" d="M100.464,109.154c1.087,0.597,1.349,0.654,2.611,0.873v4.353c2.085-1.167,3.71-1.586,6.096-1.741
	C106.71,110.016,103.972,109.445,100.464,109.154z"/>
<path fill="#8D5242" d="M164.021,111.768l-2.612-1.741c-1.502,4.386,1.447,4.183,3.831,7.222c1.354,1.726,1.326,3.761,1.393,5.835
	c-2.911-0.438-4.22-1.217-6.094-3.481c-1.034,1.898-1.075,3.059-0.87,5.222h5.223l-1.741,3.482c7.798-2.982,3.002-12.29,2.611-18.28
	c4.29,1.355,4.317,4.644,4.354,8.706C172.152,113.877,168.833,105.1,164.021,111.768z"/>
<path fill="#EEC3AC" d="M90.016,113.509c-4.047-0.669-7.91,0.683-7.836,5.224c-2.198,0.744-2.637,1.313-3.482,3.48
	c1.468,0.191,2.015,0.196,3.482,0l-0.871,3.482c4.841-0.803,8.487-5.088,13.06-6.962c0.036-3.217,0.482-5.736,1.741-8.706
	C93.004,110.197,91.098,110.429,90.016,113.509z"/>
<path fill="#E7B19B" d="M91.757,120.474l3.482-0.871v-6.964l4.354,0.87C96.482,105.643,93.193,117.532,91.757,120.474z"/>
<path fill="#74422E" d="M165.762,110.027c0.133,4.484,1.727,8.509,1.743,13.057C171.221,119.549,171.803,111.075,165.762,110.027z"
	/>
<path fill="#A7A4AC" d="M175.629,110.606c-0.047,0.049-0.095,0.968,0.291,0.58C175.969,111.137,176.017,110.22,175.629,110.606z"/>
<path fill="#F4C1B3" d="M58.673,110.897c0,5.435-0.678,11.306,0.87,16.539h1.741l0.871-0.871
	C60.915,121.501,60.693,115.657,58.673,110.897z"/>
<path fill="#A57C67" d="M98.723,110.897c1.063,1.038,1.236,1.144,2.612,1.741C100.27,111.598,100.098,111.492,98.723,110.897z"/>
<path fill="#734A38" d="M154.444,110.897c-0.887,3.587-0.976,6.733-4.353,8.705c-0.335,3.11-1.803,5.681-2.375,8.705
	c-0.762,4.054-0.098,7.567-2.399,11.286c-2.293,3.704-6.332,5.723-8.287,9.612c4.543-1.38,6.973-5.244,11.32-6.964
	c0.101-4.492,0.68-9.318,4.353-12.188c0-1.565-0.012-1.328-0.871-2.616C156.062,124.557,156.084,115.425,154.444,110.897z"/>
<path fill="#D1A594" d="M95.239,112.639v3.482c2.39,0.853,4.417,1.571,6.966,1.741c-0.082-1.918-0.311-3.39-0.87-5.223H95.239z"/>
<path fill="#B89E85" d="M102.205,114.379v6.094C103.127,118.266,103.127,116.584,102.205,114.379z"/>
<path fill="#A37261" d="M103.075,114.379c-0.072,2.532-0.209,4.085-1.74,6.094c1.988,1.063,3.854,1.439,6.095,1.739
	C106.539,119.456,104.561,116.914,103.075,114.379z"/>
<path fill="#8A5E4D" d="M103.946,114.379c0.327,2.859,0.703,4.25,3.483,5.223C106.518,117.455,105.588,116.036,103.946,114.379z"/>
<path fill="#7E574B" d="M162.28,115.25c-1.593,0.827-2.517,0.878-4.353,0.871v4.353c1.041-1.064,1.146-1.236,1.742-2.612
	l3.482,1.741C163.075,117.893,162.959,116.79,162.28,115.25z"/>
<path fill="#A36954" d="M163.151,115.25c-0.155,2.661-0.285,5.182,0,7.834h3.482C166.59,119.464,166.484,117.089,163.151,115.25z"/>
<path fill="#CC8E7F" d="M95.239,116.121v3.482c-4.533,0.67-8.312,1.823-10.447,6.092l16.543-4.351
	c-1.645-1.646-2.602-3.064-3.483-5.223H95.239z"/>
<path fill="#67483D" d="M106.559,116.121c1.695,4.474,5.112,5.118,9.576,5.223v-3.482
	C112.86,116.839,110.005,116.159,106.559,116.121z"/>
<path fill="#B6AEB0" d="M174.759,116.7c-0.048,0.049-0.096,0.968,0.291,0.579C175.099,117.233,175.146,116.313,174.759,116.7z"/>
<path fill="#EDB8A3" d="M98.723,117.862v2.612h3.482v-2.612H98.723z"/>
<path fill="#805845" d="M116.135,117.862v3.482c-3.057-0.157-5.763-0.96-8.705-1.741c-1.409,2.445-2.416,2.713-5.225,2.61
	c5.402,4.276,11.566,3.951,15.672,10.452c-4.091-0.005-8.229-1.23-12.19-0.871c2.013,1.211,3.751,1.535,6.095,1.742
	c0.745,2.194,1.313,2.637,3.482,3.482c-0.489,2.235-0.378,3.822,0,6.094c-4.571,0.906-13.238,2.282-14.8,6.964
	c-4.4,0.685-7.656,3.786-12.189,4.353c3.155,1.324,6.236,0.499,9.577,0.499c4.379,0,8.694,1.056,13.06,1.241
	c-0.011-3.518-0.36-6.315-1.741-9.575h6.964l0.871-4.353c2.826,0.5,3.873,0.01,6.095-1.741v5.223h1.742
	c-0.013-3.765-1.202-6.84-1.629-10.482C122.414,128.446,123.594,121.133,116.135,117.862z"/>
<path fill="#9E7266" d="M159.669,117.862c0.811,2.385,1.582,3.572,3.482,5.222C162.533,120.522,161.908,119.26,159.669,117.862z"/>
<path fill="#785047" d="M170.116,118.732l0.871,4.352c0.679-1.54,0.793-2.641,0.871-4.352H170.116z"/>
<path fill="#9B6255" d="M99.593,121.344c2.229,1.076,4.507,1.426,6.966,1.74C104.307,121.547,102.305,121.408,99.593,121.344z"/>
<path fill="#80809F" d="M171.857,121.344l0.871,0.869L171.857,121.344z"/>
<path fill="#B47368" d="M89.146,123.954c3.355,1.412,7.487,1.483,9.577-1.741C95.407,122.996,92.616,123.918,89.146,123.954z"/>
<path fill="#9C584F" d="M98.723,122.213c-1.495,1.602-2.235,2.045-4.354,2.612c1.752,1.066,3.186,1.432,5.224,1.741
	C99.444,124.969,99.343,123.681,98.723,122.213z"/>
<path fill="#8A473D" d="M99.593,122.213c-0.169,1.618-0.183,2.746,0,4.353c-4.592-0.654-13.64-1.494-16.543,2.617
	c7.072-0.86,12.886-0.566,20.025,0c-1.086-0.598-1.348-0.654-2.611-0.875c2.436-1.144,3.967-1.942,5.223-4.353L99.593,122.213z"/>
<path fill="#8E6750" d="M157.927,123.084v1.741h1.742v-1.741H157.927z"/>
<path fill="#919699" d="M170.987,123.084l0.871,0.87L170.987,123.084z"/>
<path fill="#74423A" d="M105.687,123.954l-1.741,3.482l12.188,2.616C113.986,126.262,109.725,124.99,105.687,123.954z"/>
<path fill="#857E76" d="M170.116,123.954l0.871,0.871L170.116,123.954z"/>
<path fill="#A9645A" d="M83.921,127.437c3.777-0.896,7.455-0.871,11.318-0.871C91.981,124.099,86.43,123.887,83.921,127.437z"/>
<path fill="#623024" d="M161.409,127.437c1.856-0.675,2.414-0.984,3.483-2.612C163.036,125.5,162.479,125.809,161.409,127.437z"/>
<path fill="#E3A88A" d="M69.991,140.5c0.104,3.214,0.909,5.131,2.612,7.835c1.04-0.521,0.851-0.407,1.741-1.741
	c3.387,4.713,7.674,4.352,13.061,4.352v-3.482c-1.882-0.046-4.175,0.119-5.803-1.024c-2.406-1.695-0.851-4.199,1.5-4.78
	c2.008-0.5,4.101,0.118,6.045,0.582c1.164-1.113,2.088-1.767,3.482-2.612c-4.625-2.446-7.849-6.588-13.06-7.835
	c0.403-1.896,0.962-3.446,1.741-5.228C75.102,129.698,77.47,138.707,69.991,140.5z"/>
<path fill="#CE9C84" d="M79.568,131.794h3.482c-0.161-1.891-0.121-2.761,0.871-4.357C80.803,126.782,80.009,129.013,79.568,131.794z
	"/>
<path fill="#915F4A" d="M140.514,126.566c-2.213,2.328-3.873,4.286-6.966,5.228l0.871-3.487c-2.215,1.426-2.42,2.611-2.612,5.229
	c-3.048,0.031-5.691,1.318-8.707,1.741c0.822,6.202,1.84,11.961,8.707,13.058c0.19-1.468,0.196-2.02,0-3.482l5.223,0.87
	c0.708-2.421,1.266-3.158,3.484-4.353c0-3.229,0.828-7.335-1.741-9.576C139.798,129.919,140.652,128.652,140.514,126.566z"/>
<path fill="#734B3F" d="M154.444,130.924l4.354,0.87c0.778-1.782,1.337-3.333,1.741-5.228
	C157.319,127.065,155.909,128.008,154.444,130.924z"/>
<path fill="#7F808B" d="M168.375,126.566l0.871,0.871L168.375,126.566z"/>
<path fill="#DFAF98" d="M63.025,127.437c-0.783,1.849-0.762,1.834-2.611,2.616c1.523,1.093,2.488,1.401,4.352,1.741v5.224
	c1.05-2.344,1.885-5.033,0-6.965c0.859-1.288,0.872-1.05,0.872-2.616H63.025z"/>
<path fill="#A7705E" d="M82.471,128.019c-0.049,0.051-0.098,0.968,0.29,0.582C82.808,128.549,82.857,127.632,82.471,128.019z"/>
<path fill="#C17C72" d="M87.405,127.437c1.54,0.68,2.642,0.798,4.353,0.871C90.217,127.632,89.114,127.514,87.405,127.437z"/>
<path fill="#51231D" d="M100.464,127.437c3.267,1.973,7.563,2.849,11.318,3.487C109.129,127.318,104.612,127.452,100.464,127.437z"
	/>
<path fill="#B3887C" d="M60.414,128.307v1.746h2.611v-1.746H60.414z"/>
<path fill="#E9B0A2" d="M82.18,130.053c3.487,2.632,6,0.644,9.577-0.87C88.479,127.854,85.501,129.368,82.18,130.053z"/>
<path fill="#E5A497" d="M91.757,128.307c1.714,0.927,3.307,1.334,5.225,1.746c-1.288,0.855-1.048,0.871-2.613,0.871
	c3.072,1.252,5.731,0.381,8.706-0.871C99.543,128.173,95.684,128.312,91.757,128.307z"/>
<path fill="#582C26" d="M109.171,128.307l2.611,2.617l-6.095-1.741c2.628,2.462,5.194,2.576,8.707,2.611
	C113.112,129.343,111.889,128.709,109.171,128.307z"/>
<path fill="#787780" d="M167.505,128.307l0.87,0.875L167.505,128.307z"/>
<path fill="#B67B6B" d="M83.05,129.183c1.087,0.592,1.348,0.649,2.612,0.87C84.575,129.456,84.315,129.399,83.05,129.183z"/>
<path fill="#F8C1B5" d="M88.275,131.794c2.979-0.025,5.779-0.329,8.707-0.87C93.949,128.848,90.401,128.513,88.275,131.794z"/>
<path fill="#C78D8B" d="M103.075,129.183c-1.32,0.83-2.036,1.206-3.482,1.741c2.183,0.772,3.321,0.427,5.224-0.871L103.075,129.183z
	"/>
<path fill="#8D5550" d="M104.527,129.471c-0.386,0.387,0.532,0.34,0.581,0.288C105.494,129.373,104.576,129.42,104.527,129.471z"/>
<path fill="#A8706E" d="M102.205,133.536c2.046-0.83,3.254-1.577,4.354-3.483C104.263,130.867,103.408,131.428,102.205,133.536z"/>
<path fill="#69372D" d="M114.394,130.053c-1.79,1.375-2.949,1.587-5.223,1.741c2.753,1.154,5.733,0.871,8.706,0.871
	C116.807,131.032,116.251,130.728,114.394,130.053z"/>
<path fill="#E3C2C2" d="M60.995,131.212c-0.388,0.386,0.532,0.339,0.581,0.288C61.962,131.114,61.042,131.161,60.995,131.212z"/>
<path fill="#927060" d="M152.703,132.665c2.728,2.864,5.814,2.606,9.577,2.612C158.983,132.892,156.645,130.805,152.703,132.665z"/>
<path fill="#C3B6BA" d="M63.025,131.794v5.224C63.854,135.024,63.854,133.783,63.025,131.794z"/>
<path fill="#C6A69B" d="M63.896,131.794c0.017,5.584,1.277,9.257,4.354,13.929C69.499,142.117,65.518,135.271,63.896,131.794z"/>
<path fill="#DE9C7F" d="M82.18,131.794v1.742c2.749,0.814,3.717,1.916,5.225,4.352c2.32-1.607,3.164-3.549,4.353-6.094H82.18z"/>
<path fill="#BF8071" d="M90.016,137.888h6.966c-2.031-0.86-3.88-0.854-6.095-0.87c2.421-4.801,6.48-4.353,11.318-4.353
	C96.816,130.404,90.511,131.397,90.016,137.888z"/>
<path fill="#8F5D4C" d="M103.946,131.794c-4.025,3.05-10.15-0.139-13.06,4.353l8.707-1.741l-2.611,2.612
	c2.317,0.83,4.541,0.01,6.917,0.577c3.47,0.824,4.433,4.234,5.272,7.258l-5.225-0.871v1.741c4.361-0.015,7.27-1.313,11.318-2.611
	c-0.175-2.107-0.235-3.998,0-6.094c-1.844-1.061-2.476-1.628-3.482-3.482L103.946,131.794z"/>
<path fill="#89432F" d="M157.927,131.794c1.144,1.406,1.635,1.474,3.482,1.742C160.066,132.428,159.626,132.237,157.927,131.794z"/>
<path fill="#A9ABC0" d="M166.052,132.372c-0.048,0.051-0.095,0.968,0.291,0.582C166.392,132.902,166.439,131.985,166.052,132.372z"
	/>
<path fill="#A66656" d="M92.628,132.665c2.988,1.252,6.355,0.871,9.577,0.871C99.216,132.279,95.85,132.665,92.628,132.665z"/>
<path fill="#807682" d="M164.892,132.665l0.87,0.871L164.892,132.665z"/>
<path fill="#A69797" d="M153.284,133.824c-0.387,0.386,0.532,0.34,0.58,0.289C154.251,133.726,153.333,133.772,153.284,133.824z"/>
<path fill="#694E51" d="M159.669,133.536l2.611,1.741l-2.611,0.871c2.659,0.922,3.979-0.237,5.223-2.611H159.669z"/>
<path fill="#704735" d="M94.369,137.018c2.609-0.196,3.7-0.484,5.224-2.612C96.975,134.597,95.792,134.802,94.369,137.018z"/>
<path fill="#858184" d="M151.832,135.276l0.871,0.871L151.832,135.276z"/>
<path fill="#8B8F9F" d="M155.896,135.565c-0.387,0.386,0.532,0.34,0.581,0.289C156.862,135.467,155.944,135.519,155.896,135.565z"/>
<path fill="#7F686E" d="M157.055,137.018l4.354-0.871C159.407,135.348,158.469,135.38,157.055,137.018z"/>
<path fill="#A1A3B1" d="M163.151,135.276v1.741c1.423-0.474,1.267-0.319,1.741-1.741H163.151z"/>
<path fill="#A27159" d="M90.887,136.147c1.311,0.592,2.015,0.716,3.482,0.871C93.058,136.42,92.354,136.296,90.887,136.147z"/>
<path fill="#CDA28E" d="M88.275,137.018c2.366,2.704,7.056,1.741,10.448,1.741C95.552,137.43,91.695,137.651,88.275,137.018z"/>
<path fill="#9E6B5A" d="M98.723,137.888c1.939,1.093,4.001,1.824,6.094,2.612c-1.029,2.025-1.936,3.925-2.612,6.094
	c2.496-1.623,3.996-2.086,6.966-1.741C108.076,138.542,104.974,136.451,98.723,137.888z"/>
<path fill="#948E92" d="M150.962,137.888l0.87,0.871L150.962,137.888z"/>
<path fill="#E5B9A8" d="M92.628,138.759c2.305,3.678,0.746,4.522-0.871,7.835c2.623-0.958,3.543-1.541,3.482-4.353h3.484v-2.612
	L92.628,138.759z"/>
<path fill="#DDAF9F" d="M95.239,138.759c1.313,0.592,2.017,0.716,3.484,0.87v2.612h-3.484c3.464,2.503,4.944,0.108,5.225-3.482
	H95.239z"/>
<path fill="#CAA084" d="M100.464,138.759c-0.444,2.89-1.306,4.146-3.482,6.094c4.048,1.35,5.741-2.647,5.223-6.094H100.464z"/>
<path fill="#F8C9A8" d="M89.146,142.241c-1.289-0.86-1.048-0.871-2.612-0.871c1.289,4.08,3.971,4.105,7.835,3.482v-5.224
	C91.98,140.01,90.604,140.304,89.146,142.241z"/>
<path fill="#B17F6E" d="M103.075,139.629c-1.299,3.256-2.928,6.074-3.482,9.576C102.244,146.779,105.029,143.04,103.075,139.629z"/>
<path fill="#7E7475" d="M150.091,139.629l0.871,0.871L150.091,139.629z"/>
<path fill="#D29374" d="M67.38,140.5c2.342,6.053,4.189,9.973,11.318,10.446c-2.032-1.926-3.341-3.935-6.095-2.611
	c-1.221-2.73-2.389-4.8-2.612-7.835H67.38z"/>
<path fill="#76503C" d="M121.359,140.5c-1.332,1.87-2.036,1.844-4.354,1.741c-0.489,1.566-0.717,2.72-0.871,4.353h-6.964
	c1.021,3.276,1.704,6.129,1.741,9.575c-4.333-0.339-8.708-1.442-13.06-1.442c-7.213-0.005-12.925,1.917-20.025-0.298
	c2.413,4.27,7.019,2.483,11.319,2.647c5.831,0.216,12.532,1.365,18.282,0.571c3.439-0.474,6.271-2.405,9.577-3.219l0.872-3.483
	c-1.042-1.066-1.146-1.236-1.742-2.611h4.354c1.241,7.428,11.62,3.41,16.542,1.741c-2.76-0.665-5.827-0.026-8.705,0
	c-0.853-3.013-2.155-3.904-5.225-4.353V140.5H121.359z"/>
<path fill="#F2B99A" d="M91.757,146.594c-2.26-1.623-3.927-2.726-5.223-5.224c-2.43,0.026-10.73,2.524-4.946,5.445
	C84.481,148.278,88.697,146.836,91.757,146.594z"/>
<path fill="#6A3F29" d="M81.309,157.04c1.401,2.838,3.182,4.054,6.096,5.223c-1.005-1.623-1.903-2.354-3.484-3.482
	c5.74-0.793,11.574,1.809,17.414,1.695c3.79-0.077,6.9-1.695,10.526-2.338c4.785-0.85,9.877-1.313,14.722-1.968
	c-4.477,4.703-15.084,4.827-17.412,11.318l-10.448-0.871c4.838,4.415,12.8,5.208,19.154,5.229l-1.742-6.1
	c5.741-1.334,15.862-10.812,20.896-3.482c3.472-3.75,6.551-9.859,7.836-14.799l0.871,1.741l2.613-3.482l-0.87-3.482
	c-5.321,2.168-8.591,7.768-14.01,9.952C117.095,158.792,98.521,157.04,81.309,157.04z"/>
<path fill="#A4A6AC" d="M149.51,142.823c-0.049,0.046-0.096,0.963,0.292,0.577C149.849,143.354,149.897,142.432,149.51,142.823z"/>
<path fill="#D3A98E" d="M87.405,146.594c3.934,1.648,8.077,1.035,10.447-2.612C94.246,145.26,91.289,146.501,87.405,146.594z"/>
<path fill="#827E7E" d="M148.35,144.853l0.871,0.87L148.35,144.853z"/>
<path fill="#BBB8B1" d="M68.25,145.723c-0.157,3.055-0.962,5.764-1.741,8.706C70.143,153.65,69.818,148.443,68.25,145.723z"/>
<path fill="#C38970" d="M87.405,150.076c-2.859,4.667-6.3,2.045-10.448,0.87c5.193,8.469,15.906-0.726,22.636-1.741l0.871-3.482
	C95.543,146.284,92.531,149.911,87.405,150.076z"/>
<path fill="#63504C" d="M146.608,145.723c-0.863,4.863-2.596,8.865-2.612,13.929c2.233-4.106,3.67-9.308,4.354-13.929H146.608z"/>
<path fill="#BBB290" d="M69.12,146.594v7.835c-3.687,0.639-4.158,2.565-4.354,6.093c3.968,2.288,4.06,7.222,7.837,9.582
	c0.486-3.58,2.118-7.639,4.354-10.452C74.89,155.14,71.612,150.936,69.12,146.594z"/>
<path fill="#D3987E" d="M87.405,147.464v2.612c3.331-0.036,5.46-0.185,7.834-2.612H87.405z"/>
<path fill="#7C533F" d="M144.867,147.464c-0.324,0.968-0.416,2.576-0.871,3.482c-0.697,1.391-2.786,2.091-3.482,3.483
	c-1.247,2.493,0,4.759,0,6.964c0,1.618-1.283,0.119-1.741,0c0.741,7.536-2.076,13.841-3.288,20.929
	c-0.668,3.905-0.196,8.206-0.196,12.157c4.073-7.604,2.87-16.345,5.019-24.375c0.751-2.808,2.625-5.136,3.328-7.917
	c0.638-2.524,0.213-5.197,0.688-7.757C144.801,151.848,145.743,149.988,144.867,147.464z"/>
<path fill="#8A735F" d="M69.991,148.334v1.741c1.424-0.474,1.267-0.319,1.741-1.741H69.991z"/>
<path fill="#6F4733" d="M116.135,148.334c0.354,1.823,0.189,1.757,1.742,2.611l-0.872,3.483c-1.848,0.268-2.337,0.334-3.482,1.74
	c7.759-0.978,15.144-2.055,22.637-4.352c-5.435-2.122-13.295,4.342-15.671-3.482H116.135z"/>
<path fill="#442815" d="M70.862,149.205l0.87,3.482C72.213,150.941,71.996,150.658,70.862,149.205z"/>
<path fill="#A57D68" d="M71.732,149.205c0.873,2.746,1.457,4.904,3.482,6.964l-0.871-3.482c1.802,0.042,1.973,0.042,3.483-0.87
	C75.813,150.797,73.87,149.921,71.732,149.205z"/>
<path fill="#A4715F" d="M79.568,154.429c7.776,3.26,13.916-2.447,20.896-4.353c-3.745-1.509-6.157,0.762-9.577,2.194
	C87.219,153.805,83.506,154.392,79.568,154.429z"/>
<path fill="#715941" d="M70.862,150.946l0.87,0.871L70.862,150.946z"/>
<path fill="#CD987E" d="M79.568,150.946c2.042,3.138,5.608,2.926,7.836,0H79.568z"/>
<path fill="#ACA6AD" d="M146.898,151.528c-0.048,0.046-0.096,0.963,0.29,0.577C147.238,152.059,147.285,151.142,146.898,151.528z"/>
<path fill="#64503A" d="M72.894,152.398c-0.049,0.046-0.098,0.963,0.29,0.577C73.231,152.93,73.28,152.013,72.894,152.398z"/>
<path fill="#A59578" d="M74.344,152.687c0.953,3.642,2.864,5.857,5.225,8.706c-2.287,0.731-2.752,1.2-3.483,3.482
	c2.216,1.427,2.421,2.606,2.613,5.229c0.856-2.035,0.854-3.884,0.871-6.1c2.018,1.36,3.83,2.591,6.094,3.483
	c-1-1.989-2.055-3.498-3.482-5.224l2.612,0.871C82.66,158.771,78.286,155.438,74.344,152.687z"/>
<path fill="#8F6249" d="M76.085,152.687c0.596,1.375,0.702,1.546,1.742,2.612l0.871-0.87l-0.871-1.742H76.085z"/>
<path fill="#96959A" d="M146.027,154.14c-0.048,0.047-0.096,0.968,0.291,0.577C146.367,154.671,146.415,153.753,146.027,154.14z"/>
<path fill="#8E654F" d="M80.439,155.299c2.517,1.056,5.114,0.87,7.836,0.87C85.759,155.114,83.16,155.299,80.439,155.299z"/>
<path fill="#522C1A" d="M83.921,158.781c3.169,2.715,6.628,3.395,10.436,4.842c5.4,2.045,8.843,3.848,14.814,3.864
	c3.758-6.31,13.694-5.419,17.412-11.318c-5.026,0.413-10.575,1.062-15.523,1.968c-3.333,0.608-6.244,2.179-9.725,2.271
	C95.532,160.568,89.509,157.416,83.921,158.781z"/>
<path fill="#8B8A93" d="M145.156,156.751c-0.047,0.046-0.095,0.968,0.292,0.577C145.496,157.282,145.544,156.365,145.156,156.751z"
	/>
<path fill="#B1A788" d="M63.896,157.911c-0.254,5.568-1.828,11.24-3.482,16.545c1.531,2.009,1.668,3.56,1.741,6.094
	c6.035-5.98,12.834-1.329,20.025-0.87c0-4.714-0.869-6.48-2.878-10.524c-1.19-2.391-0.33-3.663-3.217-4.281
	c1.006-1.958,1.525-2.478,3.483-3.482c-3.928-5.229-6.753,5.651-6.965,8.711c-1.602-1.499-2.045-2.236-2.612-4.358
	c-0.679,1.541-0.795,2.647-0.871,4.358c-1.568-0.495-2.718-0.721-4.354-0.876c0.11-3.42,1.157-5.671,2.614-8.706
	C65.86,159.806,65.072,159.131,63.896,157.911z"/>
<path fill="#754837" d="M81.891,159.075c-0.388,0.386,0.531,0.335,0.581,0.289C82.857,158.977,81.938,159.023,81.891,159.075z"/>
<path fill="#754430" d="M116.135,165.745c0.156,1.494,0.12,3.281,1.169,4.482c3.751,4.296,6.804-0.701,5.796-4.482
	c5.793,0.026,7.56,2.633,12.189,5.229c0.044-3.971,1.484-7.428,1.741-11.322c-3.227,0.118-7.076-0.49-10.182,0.417
	C123.069,161.177,120.082,164.447,116.135,165.745z"/>
<path fill="#804D35" d="M138.773,159.652c-2.47,3.92-3.468,6.67-3.484,11.322c-4.133-3.647-6.534-5.208-12.189-5.229
	c0.855,5.198-2.238,6.187-6.965,6.084c-3.813-0.088-8.396-1.025-12.041-2.159c-3.431-1.071-5.102-2.905-8.855-2.184
	c-0.842-2.565-1.865-3.323-4.353-4.353c-1.065,1.041-1.236,1.149-2.612,1.741c2.197,2.271,3.792,3.559,6.964,3.482
	c2.716,3.936,7.736,4.342,12.19,4.358c-1.335,0.891-1.221,0.7-1.743,1.741c2.525,2.132,11.354,3.023,12.19-0.871
	c2.579,0.896,4.247,1.365,6.965,0.871v5.224h-7.836l5.225,6.094l6.095-1.741l0.871-4.353c10.447,3.06,11.012-10.828,9.577-18.287
	c1.819,0.34,1.488,0.335,1.741-1.741H138.773z"/>
<path fill="#8E9BA7" d="M144.286,160.233c-0.048,0.046-0.095,0.969,0.291,0.583C144.626,160.764,144.673,159.848,144.286,160.233z"
	/>
<path fill="#704232" d="M84.792,161.393c2.349,2.462,4.633,3.972,6.965,0.871L84.792,161.393z"/>
<path fill="#A49673" d="M64.766,169.228l4.354,0.876c-0.055-2.684-0.381-5.203-0.87-7.84
	C64.727,163.433,64.808,165.802,64.766,169.228z"/>
<path fill="#A9836E" d="M82.18,162.263l2.612,4.353c4.042,0.912,6.885,4.039,10.447,6.099
	C92.786,167.461,88.013,163.082,82.18,162.263z"/>
<path fill="#684230" d="M92.628,163.134l2.611,4.353l3.484-0.871C97.141,164.231,95.416,163.644,92.628,163.134z"/>
<path fill="#AEA8A5" d="M143.416,163.716c-0.048,0.047-0.096,0.968,0.291,0.582C143.756,164.246,143.803,163.33,143.416,163.716z"/>
<path fill="#988C74" d="M79.568,164.004c0.018,5.301,2.485,9.571,2.612,14.805h1.741v-5.223l4.354,0.871
	c-1.803-2.771-2.054-4.569-1.741-7.84C83.899,166.25,81.97,165.091,79.568,164.004z"/>
<path fill="#655457" d="M141.385,164.875c-0.881,3.853-1.709,7.346-1.742,11.322C141.563,173.209,142.698,168.249,141.385,164.875z"
	/>
<path fill="#817470" d="M142.544,165.457c-0.048,0.052-0.095,0.969,0.292,0.583C142.885,165.987,142.932,165.071,142.544,165.457z"
	/>
<path fill="#8E725E" d="M85.662,165.745c1.279,2.009,2.118,2.658,4.354,3.482C88.602,167.45,87.715,166.708,85.662,165.745z"/>
<path fill="#C0B695" d="M61.284,168.357c-2.548,1.638-6.334,3.503-7.557,6.496c-2.072,5.074,3.704,7.495,7.557,6.567
	c0,1.561,0.013,1.324,0.871,2.612c0.707-2.942,0.608-7.526-1.741-9.576C61.367,172.195,62.059,170.696,61.284,168.357z"/>
<path fill="#8B806A" d="M86.534,168.357c-0.635,2.668-0.499,3.611,1.741,5.229h-4.354c-0.658,8.515-8.913,5.563-14.801,4.353
	c0.576,4.131,1.881,8.124,6.094,9.576c-1.334,0.892-1.221,0.7-1.741,1.742l2.612,0.87c-0.09-3.122-0.815-5.739-1.741-8.706
	c3.514-0.654,6.878-0.87,10.448-0.87v-5.223c3.911,1.808,6.914,5.914,11.318,3.482c-1.972-1.741-3.604-3.508-6.094-4.353
	l1.741-1.741C90.159,170.582,88.939,169.49,86.534,168.357z"/>
<path fill="#895E42" d="M94.369,168.357c0.499,5.125,7.796,6.464,12.19,7.84c-0.062-1.7-0.309-1.689,0.871-2.611
	C102.961,171.685,98.613,171.19,94.369,168.357z"/>
<path fill="#8B654E" d="M89.146,169.228c3.602,4.317,9.355,6.563,13.747,10.138c2.47,2.009,3.881,3.925,7.148,3.796
	c-1.049-1.643-1.857-2.38-3.482-3.481c1.287-0.86,1.047-0.871,2.612-0.871c-1.452-2.076-2.72-2.339-5.225-2.612v-2.611
	C98.116,173.534,94.424,171.216,89.146,169.228z"/>
<path fill="#7F7761" d="M91.757,171.845c-1.033,1.03-1.331,1.375-1.741,2.611l6.094,4.353c-4.592,1.226-7.067-2.297-11.318-3.482
	v5.223h-8.707c4.926,2.128,9.786,2.658,14.802,0.87l-0.871,2.612c2.372-0.211,5.595,0.289,7.812-0.458
	c2.679-0.907,2.384-2.52,0.024-3.024c0.857-1.288,0.871-1.05,0.871-2.612C96.359,175.842,94.45,173.544,91.757,171.845z"/>
<path fill="#A0AFCA" d="M46.484,172.715c2.274,0.953,4.496,0.86,6.964,0.871C51.174,172.627,48.953,172.72,46.484,172.715z"/>
<path fill="#BBC7CA" d="M39.518,173.585c1.557,1.236,2.355,1.473,4.353,1.741v-1.741H39.518z"/>
<path fill="#889082" d="M34.294,178.809c4.648-1.453,9.243-1.499,13.931-2.612c-1.188-1.586-1.299-0.901-0.871-2.611
	C43.191,174.147,37.207,175.821,34.294,178.809z"/>
<path fill="#787965" d="M47.354,173.585c1.944,0.876,4.009,1.221,6.094,1.741C51.772,173.4,49.857,173.611,47.354,173.585z"/>
<path fill="#73553E" d="M95.239,173.585c1.9,4.621,7.094,10.05,12.19,10.447C104.792,179.462,99.864,176.017,95.239,173.585z"/>
<path fill="#8F5D41" d="M117.877,173.585c-2.203,3.297-6.802,1.772-10.447,2.611l1.741,2.612h-2.612
	c0.926,1.654,2.224,2.895,3.482,4.353l-2.611,0.871c3.579,3.42,7.558,6.319,11.361,9.483c1.479,1.23,3.263,3.384,5.277,3.661
	c1.97,0.269,2.614-1.313,3.387-2.698c-2.647-3.199-3.256-6.237-7.836-6.965c1.567-0.489,2.719-0.716,4.353-0.87
	c-2.072-2.39-4.165-4.604-6.966-6.094c2.647-0.783,5.078-0.866,7.836-0.87v-5.224C122.334,174.621,120.313,174.101,117.877,173.585z
	"/>
<path fill="#5D5F49" d="M46.484,174.456c0.846,1.102,1.505,1.762,2.612,2.612l0.87-2.612H46.484z"/>
<path fill="#353624" d="M49.096,177.068l3.482-1.741C50.569,174.837,50.178,175.327,49.096,177.068z"/>
<path fill="#A4B1AA" d="M40.099,175.615c-0.388,0.386,0.532,0.339,0.58,0.288C41.066,175.517,40.147,175.569,40.099,175.615z"/>
<path fill="#A9A588" d="M51.707,175.327c-1.033,1.03-1.33,1.375-1.741,2.611c1.525-0.494,2.214-0.804,3.482-1.741L51.707,175.327z"
	/>
<path fill="#1C1D17" d="M156.185,223.212c-0.778-1.777-1.337-3.333-1.741-5.224h-2.612c-0.396-7.345-6.195-10.246-7.836-16.546
	l-6.966,0.871v-1.741h6.096c-1.517-1.782-3.189-3.199-4.353-5.223h5.223c-0.374-7.542,2.297-13.795-3.482-20.023
	c-1.216,9.024-4.354,16.87-4.354,26.116c-4.156,0.036-9.75-0.294-12.189,3.483c-2.859-0.521-5.023-0.773-7.836,0
	c2.853,3.42,6.044,4.825,10.448,5.223l0.871,5.228c-1.042-1.065-1.146-1.235-1.742-2.61c-1.624,0.587-1.621,0.953-2.612,0
	c-1.177,1.22-1.962,1.891-3.482,2.61c-0.728-2.302-2.206-4.038-3.483-6.099c-1.856,4.456-0.304,9.469,0.871,13.935l8.271-3.05
	c0,0,9.152,2.611,10.453,0.87c1.3-1.74,5.219-3.328,5.219-3.328L156.185,223.212z"/>
<path fill="#827A5B" d="M42.13,177.068c1.168,1.107,2.092,1.777,3.483,2.612v-1.742c2.375,1.185,4.322,1.51,6.964,1.742
	C49.97,176.141,46.11,176.789,42.13,177.068z"/>
<path fill="#56553F" d="M49.966,176.197l0.871,0.871L49.966,176.197z"/>
<path fill="#392B2A" d="M139.643,176.197v2.612C140.249,177.454,140.249,177.547,139.643,176.197z"/>
<path fill="#606574" d="M141.385,176.197l0.87,0.871L141.385,176.197z"/>
<path fill="#8C8A6F" d="M29.941,180.55c0.082,1.917,0.311,3.39,0.87,5.224l6.096-3.483c-1.087-0.597-1.348-0.654-2.613-0.871
	c3.255-1.473,5.974-2.508,9.577-2.611C39.133,175.574,34.652,178.809,29.941,180.55z"/>
<path fill="#999172" d="M51.707,177.068l1.741,3.482C53.77,178.613,53.326,178.17,51.707,177.068z"/>
<path fill="#A59C7E" d="M62.155,182.291c2.666-0.566,2.739-3.06,5.248-3.894c3.016-1.004,7.272,1.123,10.425,1.283
	C73,175.965,64.042,175.548,62.155,182.291z"/>
<path fill="#88909F" d="M142.255,177.068l0.871,0.87L142.255,177.068z"/>
<path fill="#726A4C" d="M45.613,177.938c-1.044,1.082-0.988,0.933-2.613,0.871l-3.482,5.224l5.223,0.871
	c-0.901,1.03-1.164,1.396-1.741,2.611l4.354-1.74l-0.87-3.483c3.787,3.246,5.427,2.576,9.577,0c0.871,1.675,0.938,1.824,2.612,2.612
	l-1.741,3.481c1.608-0.643,3.324-2.631,4.353-1.74c1.4-0.876,1.772-1.041,3.482-0.87l-0.87-2.612
	C58.221,183.501,51.12,179.689,45.613,177.938z"/>
<path fill="#787057" d="M69.12,185.773l2.612-0.871c-1.325-2.272-2.055-4.399-2.612-6.965
	C64.224,179.551,66.97,182.733,69.12,185.773z"/>
<path fill="#746C5B" d="M98.723,177.938l-0.871,2.612c1.564,0,1.324,0.01,2.612,0.87c-3.367,2.081-6.622,1.968-10.448,2.612
	c0.857-1.289,0.871-1.051,0.871-2.612l-5.225,1.741c4.684,2.493,12.123,4.019,17.413,4.353
	C102.432,183.445,102.01,180.673,98.723,177.938z"/>
<path fill="#847E65" d="M64.766,178.809c0.126,3.776,0.901,5.321,4.354,6.965L64.766,178.809z"/>
<path fill="#5B533B" d="M67.38,178.809c-0.859,1.288-0.871,1.045-0.871,2.611C67.631,180.164,67.729,180.344,67.38,178.809z"/>
<path fill="#3C2A20" d="M138.773,178.809v3.482C139.391,180.756,139.391,180.338,138.773,178.809z"/>
<path fill="#738091" d="M143.126,178.809l0.87,0.871L143.126,178.809z"/>
<path fill="#946249" d="M129.196,179.68l-0.871,4.353l-8.707,2.611c3.374,2.256,4.916,5.471,7.836,7.835l-1.742,3.481
	c2.317,0,6.129,0.67,8.061-0.891c3.294-2.668,1.517-12.671,1.517-16.52C133.165,180.453,131.265,180.174,129.196,179.68z"/>
<path fill="#899BAD" d="M143.996,180.55l0.871,0.87L143.996,180.55z"/>
<path fill="#A09A7C" d="M58.673,182.291c1.27,0.943,1.957,1.248,3.482,1.742l-0.871-2.612L58.673,182.291z"/>
<path fill="#726A52" d="M74.344,181.42l0.871,3.483c0.597-1.087,0.653-1.351,0.871-2.612h6.095
	C79.664,181.234,77.066,181.42,74.344,181.42z"/>
<path fill="#5D6F80" d="M143.996,181.42l0.871,0.871L143.996,181.42z"/>
<path fill="#696643" d="M42.13,195.35c-0.595,1.374-0.7,1.55-1.741,2.61c5.697,3.092,9.14,9.021,15.672,10.447l-0.872-2.611
	c2.06,1.034,2.974,1.298,5.225,0.87c-1.087-0.593-1.349-0.648-2.612-0.87l3.482-3.482c-0.312,3.106,0.59,4.121,3.482,5.223
	c-0.474-1.422-0.316-1.268-1.741-1.74l4.354-3.482c-1.541-0.675-2.645-0.793-4.354-0.871c1.288-0.854,1.048-0.87,2.613-0.87
	c0.528-2.189,1.712-4.013,2.612-6.094c-0.031,1.905-0.353,3.369-0.87,5.224c2.539-1.319,3.415-2.52,4.352-5.224
	c0.23,2.081,0.124,4.002,0,6.094c2.036-1.87,2.787-3.415,3.482-6.094c0.182,2.71-0.481,5.151-0.871,7.835
	c1.447-0.53,2.162-0.906,3.483-1.741v3.481h-4.354c0,1.566,0.013,1.324,0.871,2.612l5.225-1.74
	c0.862-4.179,1.992-8.191,3.482-12.188c-3.501-0.634-6.291-2.245-9.577-3.481l1.741-0.872c-1.22-1.173-1.895-1.962-2.611-3.481
	c-2.214,0.458-3.078,0.762-4.353,2.611c-2.117-0.974-4.166-2.369-6.095-0.87c-0.89-1.334-0.7-1.221-1.741-1.741
	c-1.157,1.401-2.075,2.348-3.482,3.481c0.833-1.323,1.207-2.033,1.741-3.481l-2.612-2.612c-4.253,1.742-5.589,2.318-9.577,0
	c1.914,7.557-4.652,5.456-9.577,6.093c1.575,1.082,1.546,1.03,3.482,0.872l-0.871,2.61"/>
<path fill="#696643" d="M29.941,189.256"/>
<path fill="#958E76" d="M63.025,182.291c1.454,2.391,2.46,3.045,5.225,3.483C66.614,184.269,65.049,183.202,63.025,182.291z"/>
<path fill="#645D4A" d="M76.085,182.291c0.184,2.385,0.264,2.978,2.613,3.483l-1.741-2.612h6.964
	C81.406,182.106,78.807,182.291,76.085,182.291z"/>
<path fill="#57503C" d="M76.957,183.161l2.611,4.353c0.595-1.313,0.718-2.014,0.871-3.481h5.223
	C82.909,182.878,79.929,183.161,76.957,183.161z"/>
<path fill="#383429" d="M80.439,184.032v4.352c10.631,0.237,19.065,8.026,28.732,11.318c1.168-4.209,0.278-8.047-0.871-12.188
	c1.499,0.814,2.703,1.335,4.353,1.742c-1.731-1.794-2.748-2.247-5.223-2.612c-4.172,7.134-13.958-0.231-19.403-2.128
	C85.675,183.702,82.89,184.032,80.439,184.032z"/>
<path fill="#5D5742" d="M102.205,184.032l0.87,3.481c-4.745-0.576-9.083-2.405-13.929-2.611c3.634,3.446,15.968,8.324,18.284,1.741
	h3.482C108.212,184.496,105.605,184.109,102.205,184.032z"/>
<path fill="#313027" d="M144.867,184.032c-0.484,3.817-1.513,7.5-0.871,11.317h-5.223c2.952,8.38,12.021,13.021,13.059,22.639h2.612
	c0.98,6.146,6.234,5.224,11.318,5.224c-2.833-3.766-7.617-7.423-12.189-8.706c-0.175-3.358-0.584-5.913-3.482-7.84l0.871-5.224
	C144.903,196.967,147.639,190.208,144.867,184.032z"/>
<path fill="#4E4D2D" d="M54.319,184.903v1.741c1.424-0.475,1.267-0.319,1.742-1.741H54.319z"/>
<path fill="#7F7962" d="M64.766,185.773c1.2,0.793,2.125,1.22,3.484,1.74C67.105,186.104,66.614,186.04,64.766,185.773z"/>
<path fill="#4D4336" d="M69.991,185.773v1.74h1.741v-1.74H69.991z"/>
<path fill="#76725D" d="M76.085,185.773c0.068,2.302-0.003,3.714,1.742,5.223c0-2.045,1.498-2.972,1.741-5.223H76.085z"/>
<path fill="#8B98A2" d="M146.027,186.354c-0.048,0.047-0.096,0.964,0.291,0.577C146.367,186.886,146.415,185.969,146.027,186.354z"
	/>
<path fill="#74714E" d="M48.225,193.607c0.458-2.91,1.777-4.599,3.482-6.964C48.065,187.52,43.7,190.646,48.225,193.607z"/>
<path fill="#4B472B" d="M63.025,186.644c-0.858,1.287-0.871,1.046-0.871,2.612C63.278,187.998,63.375,188.179,63.025,186.644z"/>
<path fill="#7D7958" d="M52.578,187.514c-1.369,1.839-2.047,3.024-2.612,5.224C51.94,191.104,53.12,190.09,52.578,187.514z"/>
<path fill="#716C50" d="M63.896,187.514c-2.325,2.787-4.366,5.136-5.223,8.706C61.501,194.098,64.938,191.326,63.896,187.514z"/>
<path fill="#494429" d="M65.928,188.097c-0.049,0.046-0.097,0.963,0.29,0.576C66.267,188.627,66.314,187.71,65.928,188.097z"/>
<path fill="#847F68" d="M76.957,189.256l1.741,3.481c5.66-0.046,10.915,2.988,16.542,3.482c-1.689-1.221-3.246-1.933-5.223-2.612
	l0.871-2.611C85.74,189.58,82.278,187.251,76.957,189.256z"/>
<path fill="#382B22" d="M108.3,187.514c0.844,2.581,1.684,3.05,4.353,3.482c0.693,2.482,1.883,4.07,3.482,6.094l5.225-0.87
	l-2.611,5.223C128.713,196.369,113.103,189.379,108.3,187.514z"/>
<path fill="#433125" d="M137.321,188.097c-0.049,0.046-0.096,0.963,0.29,0.576C137.66,188.627,137.708,187.71,137.321,188.097z"/>
<path fill="#676A74" d="M146.027,188.097c-0.048,0.046-0.096,0.963,0.291,0.576C146.367,188.627,146.415,187.71,146.027,188.097z"/>
<path fill="#494429" d="M68.25,188.384l-0.87,3.482C68.376,190.44,68.592,190.059,68.25,188.384z"/>
<path fill="#4F4B2F" d="M64.766,189.256c-0.857,1.287-0.87,1.045-0.87,2.61C65.019,190.61,65.115,190.79,64.766,189.256z"/>
<path fill="#747053" d="M65.638,189.256c-1.774,2.89-3.566,5.382-4.354,8.704C63.905,195.684,67.527,192.759,65.638,189.256z"/>
<path fill="#655F4E" d="M86.534,189.256c1.268,0.941,1.956,1.252,3.482,1.74C88.673,189.895,88.232,189.698,86.534,189.256z"/>
<path fill="#7D7F71" d="M29.941,190.126"/>
<path fill="#4D4A29" d="M52.578,190.126c-0.833,1.319-1.208,2.035-1.741,3.481C52.456,192.506,52.898,192.063,52.578,190.126z"/>
<path fill="#4E4B2B" d="M56.061,190.126c-1.626,1.818-2.234,2.828-2.613,5.224C55.204,193.69,56.279,192.557,56.061,190.126z"/>
<path fill="#575335" d="M59.543,190.126c-1.626,2.751-2.924,4.62-2.611,7.834C58.737,195.627,60.258,193.072,59.543,190.126z"/>
<path fill="#332F19" d="M73.473,190.126v2.611C74.08,191.382,74.08,191.48,73.473,190.126z"/>
<path fill="#5A4431" d="M114.975,190.415c-0.387,0.386,0.532,0.34,0.581,0.293C115.942,190.321,115.024,190.367,114.975,190.415z"/>
<path fill="#747051" d="M56.932,190.996c-0.835,1.323-1.208,2.035-1.743,3.482C56.928,193.397,57.417,193.006,56.932,190.996z"/>
<path fill="#6F6E57" d="M90.016,191.866c1.399,2.241,2.66,2.864,5.223,3.483l-3.482,0.87l-0.871,7.834h1.741l0.87-6.964
	c7.844,2.483,18.779,6.058,26.991,5.224c-0.52-1.041-0.406-0.851-1.741-1.741c1.308-1.447,1.915-2.52,2.611-4.353
	c-1.632,0.479-2.834,0.969-4.354,1.74l0.872,3.482c-2.034-0.809-4.074-2.369-6.208-2.813c-3.31-0.689-6.133-0.087-9.465-1.499
	C98.009,195.35,94.716,191.655,90.016,191.866z"/>
<path fill="#4B453F" d="M110.041,197.96c2.728,1.159,4.831,2.386,7.836,2.612l-5.224-9.576
	C109.033,192.212,109.651,194.582,110.041,197.96z"/>
<path fill="#2D2E2C" d="M41.259,197.96c-1.201-1.561-2.063-1.776-0.871-3.481"/>
<path fill="#585438" d="M62.155,191.866v2.612c0.885-0.988,1.14-1.401,1.741-2.612H62.155z"/>
<path fill="#575434" d="M66.509,191.866c-2.03,2.231-6.263,5.93-3.483,8.706C62.908,197.275,68.208,194.983,66.509,191.866z"/>
<path fill="#4F4B2D" d="M72.603,191.866v2.612C73.209,193.124,73.209,193.222,72.603,191.866z"/>
<path fill="#3E3A1E" d="M76.085,191.866v2.612C76.691,193.124,76.691,193.222,76.085,191.866z"/>
<path fill="#8D979B" d="M146.608,191.866v5.224C147.436,195.102,147.436,193.854,146.608,191.866z"/>
<path fill="#4D4A3A" d="M94.369,192.737c1.27,0.942,1.957,1.252,3.483,1.741C96.509,193.376,96.069,193.186,94.369,192.737z"/>
<path fill="#484225" d="M61.284,193.607c-0.833,1.324-1.208,2.035-1.741,3.482C61.162,195.988,61.605,195.545,61.284,193.607z"/>
<path fill="#49482A" d="M82.18,193.607l-3.482,13.059C81.621,203.585,83.451,197.755,82.18,193.607z"/>
<path fill="#6A664C" d="M83.05,193.607l-0.87,4.353c1.849-0.783,1.829-0.762,2.612-2.61c0.412,3.847-0.821,7.525,0,11.316
	c1.233-1.777,1.519-3.055,1.742-5.224c0.628,2.107,0.825,3.895,0.871,6.094c3.567-4.1,2.104-7.036,0-11.316h4.353
	C89.031,194.438,86.271,193.87,83.05,193.607z"/>
<path fill="#565333" d="M71.732,194.479l-0.87,2.611C72.399,196.239,72.564,196.029,71.732,194.479z"/>
<path fill="#4D4A29" d="M75.214,194.479c-1.054,2.932-2.224,5.604-2.611,8.705h1.741C74.776,200.248,76.064,197.348,75.214,194.479z
	"/>
<path fill="#514E2E" d="M78.698,194.479l-0.871,5.224C79.129,197.802,79.472,196.663,78.698,194.479z"/>
<path fill="#545044" d="M97.852,194.479c1.064,1.041,1.236,1.148,2.612,1.741C99.61,194.669,99.673,194.833,97.852,194.479z"/>
<path fill="#3D3125" d="M135.289,194.479v5.224h-3.482c1.541,0.679,2.644,0.793,4.353,0.87
	C136.144,198.357,136.147,196.508,135.289,194.479z"/>
<path fill="#282118" d="M38.648,195.35c1.211,1.246,1.943,1.781,3.482,2.61C41.626,195.612,41.031,195.535,38.648,195.35z"/>
<path fill="#48452C" d="M84.792,195.35c-0.779,3.168-2.162,7.041-2.09,10.302c0.06,2.849,2.13,4.255-0.521,6.243l1.741,2.611
	c1.041-0.521,0.852-0.407,1.741-1.74c1.034,0.901,1.397,1.163,2.613,1.74c-1.32-3.271-3.042-6.943-3.509-10.452
	C84.367,201.057,85.684,198.255,84.792,195.35 M87.405,196.22c2.487,4.909,2.627,8.669,0.87,13.929
	c3.744-2.699,3.137-9.55,3.482-13.929H87.405z"/>
<path fill="#53503E" d="M101.045,196.508c-0.388,0.392,0.531,0.341,0.58,0.294C102.012,196.415,101.092,196.461,101.045,196.508z"/>
<path fill="#767265" d="M117.005,196.22c-0.857,1.287-0.871,1.046-0.871,2.611C117.258,197.574,117.354,197.76,117.005,196.22z"/>
<path fill="#564536" d="M134.419,196.22c-1.817,4.096-6.895,0.834-7.836,5.223c2.883-1.602,5.45-1.726,8.706-1.74
	C135.139,198.233,135.014,197.533,134.419,196.22z"/>
<path fill="#423F21" d="M70.862,197.09c-1.288,2.014-1.712,2.874-1.742,5.224C71.209,200.846,71.711,199.526,70.862,197.09z"/>
<path fill="#37331C" d="M87.694,197.672c-0.049,0.047-0.097,0.969,0.29,0.577C88.033,198.203,88.082,197.286,87.694,197.672z"/>
<path fill="#4E4C32" d="M93.498,197.09c-0.489,2.638-0.815,5.156-0.87,7.836l2.611-4.354l0.871,0.87
	C95.739,199.141,95.396,198.429,93.498,197.09z"/>
<path fill="#525543" d="M102.786,197.379c-0.388,0.392,0.532,0.34,0.581,0.293C103.753,197.286,102.833,197.331,102.786,197.379z"/>
<path fill="#545651" d="M146.898,197.672c-0.048,0.047-0.096,0.969,0.29,0.577C147.238,198.203,147.285,197.286,146.898,197.672z"/>
<path fill="#535349" d="M36.907,198.831"/>
<path fill="#7E795D" d="M82.18,197.96l0.87,3.482c0.595-1.309,0.719-2.014,0.871-3.482H82.18z"/>
<path fill="#3A391C" d="M96.11,197.96v3.482C96.729,199.912,96.729,199.495,96.11,197.96z"/>
<path fill="#5B593F" d="M96.982,197.96v3.482l-2.613-0.87c-0.51,3.426,0.047,5.476,2.613,7.835l2.611-10.447H96.982z"/>
<path fill="#7A675A" d="M120.489,201.442h6.094v-2.611h7.836C129.721,196.864,123.778,197.497,120.489,201.442z"/>
<path fill="#828A8C" d="M148.059,198.249c-0.386,0.392,0.532,0.34,0.581,0.294C149.026,198.156,148.108,198.203,148.059,198.249z"/>
<path fill="#908B76" d="M37.777,199.702"/>
<path fill="#908B76" d="M29.941,206.666"/>
<path fill="#807F6C" d="M37.777,198.831"/>
<path fill="#7E7E5D" d="M43.871,198.831c0.354,1.823,0.189,1.762,1.742,2.611C45.01,200.238,44.755,199.825,43.871,198.831z"/>
<path fill="#47472B" d="M98.723,198.831c-0.186,4.033-1.563,7.475-2.613,11.317l5.225-0.871v-4.352
	c0.628,2.106,0.825,3.894,0.87,6.098h1.741v-4.357l0.871,3.482c1.638-1.36,2.561-2.437,3.483-4.353h-3.483v-1.742
	c4.816-0.509,9.042-0.957,13.931-0.87C113.142,200.47,104.921,199.15,98.723,198.831z"/>
<path fill="#5A6365" d="M148.059,199.119c-0.386,0.392,0.532,0.34,0.581,0.294C149.026,199.026,148.108,199.073,148.059,199.119z"/>
<path fill="#8C9BA5" d="M149.802,199.119c-0.388,0.392,0.53,0.34,0.58,0.294C150.767,199.026,149.849,199.073,149.802,199.119z"/>
<path fill="#272717" d="M108.3,203.184c1.494,1.602,2.233,2.045,4.353,2.612v5.228c0.678-1.545,0.795-2.646,0.87-4.357h3.482
	c0.471-3.601,4.202-2.029,6.966-1.74c3.178-3.256,7.79-3.39,12.189-3.483c-6.179-2.967-12.008,0.242-18.283,1.313
	C114.61,203.313,111.556,202.271,108.3,203.184z"/>
<path fill="#4C5960" d="M149.221,199.702c1.144,1.41,1.634,1.474,3.482,1.74C151.433,200.505,150.745,200.196,149.221,199.702z"/>
<path fill="#9FB2BF" d="M151.542,199.995c-0.388,0.386,0.531,0.335,0.58,0.289C152.51,199.897,151.59,199.943,151.542,199.995z"/>
<path fill="#515031" d="M76.957,200.572l-1.743,3.481C77.521,203.56,78.136,202.674,76.957,200.572z"/>
<path fill="#727254" d="M81.309,200.572v3.481C81.927,202.524,81.927,202.107,81.309,200.572z"/>
<path fill="#83786B" d="M116.716,200.865c-0.387,0.388,0.532,0.336,0.581,0.289C117.683,200.769,116.765,200.814,116.716,200.865z"
	/>
<path fill="#0B0E0F" d="M137.03,200.572v1.741l6.966-0.871C141.721,200.489,139.499,200.577,137.03,200.572z"/>
<path fill="#8CA1B0" d="M152.703,200.572l0.87,0.87L152.703,200.572z"/>
<path fill="#3B3920" d="M86.534,201.442c-0.421,3.586-0.351,6.155,0.871,9.581c1.363-1.694,2.091-3.115,2.611-5.228
	c-1.232,0.411-1.579,0.71-2.611,1.74C87.388,205.327,87.391,203.472,86.534,201.442z"/>
<path fill="#605E48" d="M100.464,201.442c-0.56,1.834-0.788,3.308-0.871,5.224C100.895,204.766,101.238,203.627,100.464,201.442z"/>
<path fill="#555345" d="M146.608,201.442v1.741h1.742v-1.741H146.608z"/>
<path fill="#23261F" d="M150.091,202.313v4.353c1.423,0.475,1.267,0.319,1.741,1.741c1.565,0,1.325-0.011,2.612-0.871
	c1.145,1.412,1.634,1.479,3.483,1.741c-0.407,2.345-0.798,4.003,1.742,4.358c1.253,4.234,4.766,6.196,8.706,7.834
	c-2.156-5.002-6.68-9.602-7.836-14.804c-3.648-0.51-5.275-1.993-6.966-5.224L150.091,202.313z"/>
<path fill="#656968" d="M153.573,202.313l0.871,0.87L153.573,202.313z"/>
<path fill="#6A6850" d="M102.205,203.184v1.742h1.741v-1.742H102.205z"/>
<path fill="#91969A" d="M154.444,203.184c1.788,0.763,3.263,0.83,5.225,0.87C157.881,203.298,156.405,203.225,154.444,203.184z"/>
<path fill="#5D5B41" d="M90.887,204.054v5.224c1.232-1.776,1.52-3.055,1.741-5.224H90.887z"/>
<path fill="#67654D" d="M93.498,204.054v6.095C94.911,207.877,94.821,206.378,93.498,204.054z"/>
<path fill="#5E5E45" d="M104.817,204.054v1.742c1.7,0.447,2.139,0.639,3.483,1.74c1.817,0.165,2.165,0.479,3.482,1.741l0.871-3.481
	C109.998,204.966,107.604,204.235,104.817,204.054z"/>
<path fill="#737472" d="M154.444,204.054c1.525,1.093,2.488,1.406,4.354,1.742C157.456,204.229,156.535,204.204,154.444,204.054z"/>
<path fill="#353D40" d="M158.798,204.054c-1.065,1.042-1.236,1.149-2.613,1.742c1.542,0.68,2.644,0.799,4.354,0.87
	C159.936,205.46,159.682,205.049,158.798,204.054z"/>
<path fill="#34311E" d="M92.628,204.926l-1.741,6.098c3.395,1.206,8.268,3.72,9.577-0.875c1.976,1.504,3.667,2.081,6.095,2.617
	v-3.488l-1.742,0.871v-3.482c-0.679,1.54-0.793,2.648-0.871,4.357h-1.741v-6.098c-0.677,1.539-0.795,2.646-0.87,4.352l-5.225,0.871
	v-3.482c-0.94,1.272-1.249,1.958-1.741,3.482L92.628,204.926z"/>
<path fill="#899195" d="M159.669,204.926l0.87,0.87L159.669,204.926z"/>
<path fill="#474731" d="M107.43,211.023c1.762-1.225,2.47-2.441,3.482-4.357C108.694,207.86,108.137,208.598,107.43,211.023z"/>
<path fill="#62614B" d="M113.523,206.666v1.741h1.741v-1.741H113.523z"/>
<path fill="#2D2A21" d="M114.394,217.988h-4.353l0.871,4.354l6.094-0.872c-1.555-4.718-2.788-10.023,0.872-13.934
	C112.059,206.002,113.995,214.826,114.394,217.988z"/>
<path fill="#82888E" d="M160.539,206.666l0.87,0.87L160.539,206.666z"/>
<path fill="#636244" d="M83.05,207.536c-1.04,1.891-1.472,3.096-1.741,5.229l3.483-0.871
	C84.456,210.024,84.144,209.062,83.05,207.536z"/>
<path fill="#211E17" d="M106.559,207.536v5.229c-2.098-0.66-3.549-1.217-5.224-2.617c-0.928,2.256-0.682,3.765,0,6.099
	c0.596-1.087,0.651-1.35,0.87-2.611l1.741,2.611l2.613-0.871l0.871,2.612h6.964l-0.871-6.965l-2.611,1.742v-5.229
	c-1.102,2.365-1.57,4.24-3.482,6.1c0.095-2.128,0.372-4.028,0.87-6.1H106.559z"/>
<path fill="#4C4F43" d="M116.135,207.536v1.741h1.742v-1.741H116.135z"/>
<path fill="#333325" d="M117.877,207.536c-0.475,1.428-0.317,1.268-1.742,1.741l3.483,6.099h2.612v-2.61
	c1.837,0.983,1.516,0.89,3.482,0c0.354,1.817,0.189,1.756,1.742,2.61l-0.871-5.228C123.52,209.674,120.804,208.516,117.877,207.536z
	"/>
<path fill="#1A1B19" d="M153.573,207.536c-0.407,2.396-0.175,4.539,0,6.97c2.484,0.438,4.336,1.066,6.096-0.87
	c-2.691,0-1.982-2.071-1.742-4.358C156.231,208.886,155.08,208.412,153.573,207.536z"/>
<path fill="#383C47" d="M159.669,207.536c0.781,1.85,0.762,1.834,2.611,2.612C161.408,208.474,161.343,208.325,159.669,207.536z"/>
<path fill="#333325" d="M109.171,208.407l-1.741,5.229C109.653,212.198,110.126,210.916,109.171,208.407z"/>
<path fill="#343428" d="M111.782,208.407c-0.489,1.571-0.718,2.721-0.871,4.358h1.741
	C112.577,211.055,112.461,209.953,111.782,208.407z"/>
<path fill="#7D808B" d="M161.409,208.407l0.871,0.87L161.409,208.407z"/>
<path fill="#69684E" d="M85.662,209.277c0.815,1.7,1.213,2.221,2.613,3.488C87.599,210.906,87.291,210.349,85.662,209.277z"/>
<path fill="#747980" d="M162.28,210.148l0.871,0.875L162.28,210.148z"/>
<path fill="#4A4A2D" d="M96.11,211.895c-0.253,1.854-0.426,2.235,0.872,3.481v1.742c-1.145,0.663-1.073,0.598-1.743,1.74
	c-1.286-0.859-1.047-0.87-2.611-0.87c2.014,4.404,8.308,7.922,12.189,3.481l-2.612,0.872l0.87-3.483
	c-1.833,1.144-2.992,0.928-5.223,0.871c1.336-2.328,2.189-4.307,2.612-6.964C98.768,212.718,97.699,212.497,96.11,211.895z"/>
<path fill="#646872" d="M163.151,211.895l0.87,0.871L163.151,211.895z"/>
<path fill="#6F6B52" d="M85.373,213.054c-0.387,0.386,0.532,0.339,0.581,0.288C86.339,212.955,85.421,213.003,85.373,213.054z"/>
<path fill="#5E6771" d="M164.021,213.636l0.871,0.87L164.021,213.636z"/>
<path fill="#443C34" d="M157.055,217.118l2.614-0.871C158.121,215.412,157.908,215.578,157.055,217.118z"/>
<path fill="#545452" d="M164.892,215.376l0.87,0.871L164.892,215.376z"/>
<path fill="#9B968F" d="M157.927,216.247c1.343,1.103,1.782,1.293,3.482,1.741C160.066,216.881,159.626,216.689,157.927,216.247z"/>
<path fill="#8B9497" d="M165.762,216.247l0.871,0.871L165.762,216.247z"/>
<path fill="#605A54" d="M159.669,217.988c1.841,1.272,2.992,1.653,5.223,1.741C163.114,218.493,161.834,218.21,159.669,217.988z"/>
<path fill="#748288" d="M166.633,217.988l0.872,0.87L166.633,217.988z"/>
<path fill="#8F918E" d="M164.021,219.729c1.006,1.854,1.638,2.421,3.484,3.482C166.499,221.254,165.98,220.733,164.021,219.729z"/>
<path fill="#5A656F" d="M167.505,219.729l0.87,0.87L167.505,219.729z"/>
<path fill="#849095" d="M168.375,220.6l0.871,0.87L168.375,220.6z"/>
<path fill="#757453" d="M86.824,222.047c-0.049,0.052-0.097,0.969,0.29,0.582C87.162,222.583,87.21,221.661,86.824,222.047z"/>
<path fill="#414D51" d="M167.505,221.47v1.742h1.741v-1.742H167.505z"/>
<path fill="#53523C" d="M108.88,222.629c-0.387,0.387,0.531,0.34,0.582,0.294C109.846,222.531,108.929,222.583,108.88,222.629z"/>
<path fill="#616362" d="M165.762,222.342l0.871,0.87L165.762,222.342z"/>
<path fill="#74797D" d="M169.246,222.342l0.87,0.87L169.246,222.342z"/>
<g>
	<path fill="#5B593F" d="M234.108,182.916h-25.709l-4.078,13.564h-9.486l21.011-65.072h10.195l21.986,65.072h-9.486L234.108,182.916
		z M231.537,175.38l-10.284-33.156c-0.089-0.177-0.177-0.354-0.443-0.354s-0.354,0.266-0.443,0.443l-9.663,33.068H231.537z"/>
	<path fill="#5B593F" d="M290.135,147.631c-0.976-2.925-3.28-9.752-10.639-9.752c-2.305,0-8.954,0.887-12.057,11.525
		c-1.685,5.674-1.685,14.451-1.685,14.717c0,7.003,0.798,13.652,3.458,19.149c3.28,6.738,8.599,7.092,10.461,7.092
		c4.876,0,7.979-2.748,8.954-3.813c3.458-3.989,3.635-7.446,3.812-11.791h-12.589v-8.245h21.188v31.295h-3.191l-2.039-4.078
		c-0.798-1.685-1.418-2.306-1.951-2.306c-0.354,0-0.798,0.178-1.152,0.443c-0.354,0.354-0.975,0.976-1.418,1.33
		c-1.773,1.507-6.117,5.319-13.032,5.319c-2.66,0-8.599,0-14.096-6.826c-6.117-7.447-7.536-19.77-7.536-27.04
		c0-7.536,1.152-17.199,5.23-23.937c5.23-8.777,13.298-10.55,17.11-10.55c11.082,0,17.819,7.536,19.592,15.692L290.135,147.631z"/>
	<path fill="#5B593F" d="M330.47,131.408v43.352c0,7.004,1.596,15.426,12.234,15.426c3.014,0,7.624-1.33,9.929-5.585
		c1.773-3.546,1.95-8.511,1.95-12.057v-41.135h8.156v43.706c0,6.383-1.329,12.944-5.762,17.465
		c-5.231,5.407-11.525,5.851-16.313,5.851c-3.191,0-10.55-1.063-15.071-7.624c-3.635-5.319-4.167-10.639-4.167-16.49v-42.908H330.47
		z"/>
	<path fill="#5B593F" d="M381.087,190.717h5.497v-53.369h-5.497v-5.94h20.479v5.94h-5.763v53.369h5.763v5.763h-20.479V190.717z"/>
	<path fill="#5B593F" d="M419.207,131.408h8.954v56.827h30.054v8.245h-39.008V131.408z"/>
	<path fill="#5B593F" d="M505.021,182.916h-25.71l-4.078,13.564h-9.485l21.011-65.072h10.195l21.985,65.072h-9.485L505.021,182.916z
		 M502.45,175.38l-10.284-33.156c-0.088-0.177-0.177-0.354-0.443-0.354c-0.266,0-0.354,0.266-0.442,0.443l-9.664,33.068H502.45z"/>
	<path fill="#5B593F" d="M561.58,148.429c-3.015-6.028-5.852-10.461-13.387-10.461c-3.989,0-9.929,2.305-9.929,8.599
		c0,5.851,4.964,8.333,7.092,9.309l12.943,5.852c2.217,1.063,7.004,3.723,9.752,8.511c0.798,1.507,2.217,3.989,2.217,8.776
		c0,6.117-2.217,11.171-6.384,14.717c-5.319,4.609-10.638,4.609-14.096,4.609c-3.989,0-10.372-1.329-14.894-5.142
		c-4.167-3.457-5.763-6.737-7.27-9.84l7.802-4.876c1.861,5.23,6.205,11.703,14.982,11.703c5.496,0,11.436-3.369,11.436-10.461
		c0-3.014-1.152-6.827-7.979-9.929l-11.525-5.23c-3.989-1.773-8.688-5.054-10.727-8.688c-0.887-1.596-1.95-4.521-1.95-9.042
		c0-9.84,8.333-16.755,18.528-16.755c9.93,0,17.021,4.964,21.011,13.83L561.58,148.429z"/>
</g>
</svg>
