<?xml version="1.0" encoding="utf-8"?>
<!-- Generator: Adobe Illustrator 16.0.0, SVG Export Plug-In . SVG Version: 6.00 Build 0)  -->
<!DOCTYPE svg PUBLIC "-//W3C//DTD SVG 1.1//EN" "http://www.w3.org/Graphics/SVG/1.1/DTD/svg11.dtd">
<svg version="1.1" id="Capa_1" xmlns="http://www.w3.org/2000/svg" xmlns:xlink="http://www.w3.org/1999/xlink" x="0px" y="0px"
	 width="595.28px" height="841.89px" viewBox="0 0 595.28 841.89" enable-background="new 0 0 595.28 841.89" xml:space="preserve">
<rect x="23.739" y="376" fill="#FAFAFA" width="549.376" height="119"/>
<g opacity="0.8">
	<g opacity="0.2">
		
			<rect x="193.59" y="386.132" transform="matrix(-0.7071 -0.7071 0.7071 -0.7071 60.7781 804.1116)" opacity="0.7" fill="#B2B3B2" stroke="#B2B3B2" stroke-width="3" stroke-miterlimit="10" width="6.672" height="6.672"/>
		
			<rect x="201.055" y="378.794" transform="matrix(-0.7071 -0.7071 0.7071 -0.7071 78.689 796.8572)" fill="none" stroke="#B2B3B2" stroke-width="3" stroke-miterlimit="10" width="6.672" height="6.672"/>
		<polygon fill="none" stroke="#B2B3B2" stroke-width="3" stroke-miterlimit="10" points="199.688,376.607 194.164,376.607 
			196.926,379.369 		"/>
		
			<rect x="216.108" y="393.541" transform="matrix(-0.7071 -0.7071 0.7071 -0.7071 93.9801 832.6818)" opacity="0.7" fill="#B2B3B2" stroke="#B2B3B2" stroke-width="3" stroke-miterlimit="10" width="6.672" height="6.672"/>
		
			<rect x="223.574" y="386.203" transform="matrix(-0.7071 -0.7071 0.7071 -0.7071 111.9137 825.4343)" fill="none" stroke="#B2B3B2" stroke-width="3" stroke-miterlimit="10" width="6.672" height="6.672"/>
		
			<rect x="216.108" y="378.723" transform="matrix(0.7071 0.7071 -0.7071 0.7071 334.4523 -43.2619)" fill="none" stroke="#B2B3B2" stroke-width="3" stroke-miterlimit="10" width="6.673" height="6.673"/>
		
			<rect x="231.359" y="378.793" transform="matrix(0.7071 -0.7071 0.7071 0.7071 -201.4605 277.8561)" opacity="0.7" fill="#B2B3B2" stroke="#B2B3B2" stroke-width="3" stroke-miterlimit="10" width="6.674" height="6.673"/>
		
			<rect x="238.917" y="386.132" transform="matrix(0.7072 -0.707 0.707 0.7072 -204.4302 285.3257)" fill="none" stroke="#B2B3B2" stroke-width="3" stroke-miterlimit="10" width="6.673" height="6.673"/>
		<polygon fill="none" stroke="#B2B3B2" stroke-width="3" stroke-miterlimit="10" points="245.016,376.607 239.492,376.607 
			242.254,379.369 		"/>
		
			<rect x="246.483" y="392.946" transform="matrix(-0.7071 -0.7071 0.7071 -0.7071 146.2308 853.1396)" opacity="0.7" fill="#B2B3B2" stroke="#B2B3B2" stroke-width="3" stroke-miterlimit="10" width="6.673" height="6.673"/>
		
			<rect x="261.506" y="392.946" transform="matrix(-0.7071 -0.7071 0.7071 -0.7071 171.9261 863.7733)" fill="none" stroke="#B2B3B2" stroke-width="3" stroke-miterlimit="10" width="6.674" height="6.672"/>
		
			<rect x="254.041" y="385.466" transform="matrix(0.7071 -0.7071 0.7071 0.7071 -199.5408 295.871)" fill="none" stroke="#B2B3B2" stroke-width="3" stroke-miterlimit="10" width="6.673" height="6.673"/>
		<polygon opacity="0.7" fill="#B2B3B2" stroke="#B2B3B2" stroke-width="3" stroke-miterlimit="10" points="264.564,376.607 
			260.125,381.045 264.844,385.763 269.562,381.045 265.124,376.607 		"/>
		
			<rect x="284.026" y="385.118" transform="matrix(-0.7071 -0.7071 0.7071 -0.7071 215.8546 866.3256)" opacity="0.7" fill="#B2B3B2" stroke="#B2B3B2" stroke-width="3" stroke-miterlimit="10" width="6.672" height="6.673"/>
		<polygon fill="none" stroke="#B2B3B2" stroke-width="3" stroke-miterlimit="10" points="294.618,376.607 290.109,381.116 
			294.828,385.834 299.546,381.116 295.037,376.607 		"/>
		<polygon fill="none" stroke="#B2B3B2" stroke-width="3" stroke-miterlimit="10" points="310.45,376.607 309.892,376.607 
			305.453,381.045 310.171,385.763 314.89,381.045 		"/>
		
			<rect x="314.402" y="384.523" transform="matrix(-0.707 -0.7072 0.7072 -0.707 268.1024 886.7877)" fill="none" stroke="#B2B3B2" stroke-width="3" stroke-miterlimit="10" width="6.671" height="6.673"/>
		
			<rect x="329.424" y="384.523" transform="matrix(0.707 -0.7072 0.7072 0.707 -176.7986 348.9515)" fill="none" stroke="#B2B3B2" stroke-width="3" stroke-miterlimit="10" width="6.673" height="6.672"/>
		<polygon opacity="0.7" fill="#B2B3B2" stroke="#B2B3B2" stroke-width="3" stroke-miterlimit="10" points="326.24,376.607 
			324.351,376.607 320.576,380.38 325.296,385.098 330.014,380.38 		"/>
		
			<rect x="336.905" y="392.144" transform="matrix(-0.707 -0.7072 0.7072 -0.707 301.1266 915.7119)" fill="none" stroke="#B2B3B2" stroke-width="3" stroke-miterlimit="10" width="6.673" height="6.674"/>
		<polygon fill="none" stroke="#B2B3B2" stroke-width="3" stroke-miterlimit="10" points="354.092,376.607 350.269,380.43 
			354.988,385.147 359.707,380.43 355.885,376.607 		"/>
		<polygon fill="none" stroke="#B2B3B2" stroke-width="3" stroke-miterlimit="10" points="344.889,380.43 341.066,376.607 
			339.273,376.607 335.451,380.43 340.171,385.147 		"/>
		<polygon fill="none" stroke="#B2B3B2" stroke-width="3" stroke-miterlimit="10" points="182.174,379.008 184.574,376.607 
			179.772,376.607 		"/>
		
			<rect x="382.045" y="391.124" transform="matrix(-0.7071 -0.7071 0.7071 -0.7071 378.99 945.8922)" opacity="0.7" fill="#B2B3B2" stroke="#B2B3B2" stroke-width="3" stroke-miterlimit="10" width="6.673" height="6.672"/>
		
			<rect x="389.511" y="383.786" transform="matrix(-0.707 -0.7072 0.7072 -0.707 396.8392 938.6444)" fill="none" stroke="#B2B3B2" stroke-width="3" stroke-miterlimit="10" width="6.673" height="6.673"/>
		<polygon fill="none" stroke="#B2B3B2" stroke-width="3" stroke-miterlimit="10" points="390.1,379.642 387.064,376.607 
			383.697,376.607 380.663,379.642 385.382,384.361 		"/>
		
			<rect x="404.565" y="398.533" transform="matrix(-0.707 -0.7072 0.7072 -0.707 412.0763 974.4633)" opacity="0.7" fill="#B2B3B2" stroke="#B2B3B2" stroke-width="3" stroke-miterlimit="10" width="6.672" height="6.673"/>
		
			<rect x="412.028" y="391.194" transform="matrix(-0.7071 -0.7071 0.7071 -0.7071 430.1271 967.213)" fill="none" stroke="#B2B3B2" stroke-width="3" stroke-miterlimit="10" width="6.674" height="6.673"/>
		
			<rect x="404.564" y="383.715" transform="matrix(0.7072 0.707 -0.707 0.7072 393.0993 -175.063)" fill="none" stroke="#B2B3B2" stroke-width="3" stroke-miterlimit="10" width="6.673" height="6.671"/>
		
			<rect x="419.815" y="383.785" transform="matrix(0.7071 -0.7071 0.7071 0.7071 -149.797 412.6282)" opacity="0.7" fill="#B2B3B2" stroke="#B2B3B2" stroke-width="3" stroke-miterlimit="10" width="6.674" height="6.673"/>
		
			<rect x="427.372" y="391.124" transform="matrix(0.7071 -0.7071 0.7071 0.7071 -152.7753 420.0619)" fill="none" stroke="#B2B3B2" stroke-width="3" stroke-miterlimit="10" width="6.673" height="6.673"/>
		<polygon fill="none" stroke="#B2B3B2" stroke-width="3" stroke-miterlimit="10" points="435.428,379.642 432.391,376.607 
			429.027,376.607 425.99,379.642 430.709,384.361 		"/>
		
			<rect x="434.939" y="397.938" transform="matrix(-0.707 -0.7073 0.7073 -0.707 464.3162 994.9312)" opacity="0.7" fill="#B2B3B2" stroke="#B2B3B2" stroke-width="3" stroke-miterlimit="10" width="6.672" height="6.673"/>
		
			<rect x="449.962" y="397.938" transform="matrix(-0.7071 -0.7071 0.7071 -0.7071 490.0856 1005.549)" fill="none" stroke="#B2B3B2" stroke-width="3" stroke-miterlimit="10" width="6.673" height="6.673"/>
		
			<rect x="442.496" y="390.458" transform="matrix(0.7071 -0.7071 0.7071 0.7071 -147.8718 430.6214)" fill="none" stroke="#B2B3B2" stroke-width="3" stroke-miterlimit="10" width="6.672" height="6.673"/>
		
			<rect x="449.962" y="382.7" transform="matrix(-0.7071 -0.7071 0.7071 -0.7071 500.86 979.5372)" opacity="0.7" fill="#B2B3B2" stroke="#B2B3B2" stroke-width="3" stroke-miterlimit="10" width="6.673" height="6.673"/>
		<polygon fill="none" stroke="#B2B3B2" stroke-width="3" stroke-miterlimit="10" points="458.14,376.607 456.046,378.699 
			460.764,383.418 465.483,378.699 463.391,376.607 		"/>
		
			<rect x="472.48" y="390.109" transform="matrix(-0.7071 -0.7071 0.7071 -0.7071 534.062 1008.1073)" opacity="0.7" fill="#B2B3B2" stroke="#B2B3B2" stroke-width="3" stroke-miterlimit="10" width="6.673" height="6.674"/>
		
			<rect x="479.947" y="382.771" transform="matrix(-0.707 -0.7073 0.7073 -0.707 551.8693 1000.8745)" fill="none" stroke="#B2B3B2" stroke-width="3" stroke-miterlimit="10" width="6.672" height="6.673"/>
		<polygon fill="none" stroke="#B2B3B2" stroke-width="3" stroke-miterlimit="10" points="480.536,378.628 478.513,376.607 
			473.121,376.607 471.098,378.628 475.816,383.347 		"/>
		<polygon opacity="0.7" fill="#B2B3B2" stroke="#B2B3B2" stroke-width="3" stroke-miterlimit="10" points="493.693,376.607 
			488.443,376.607 486.351,378.699 491.069,383.418 495.787,378.699 		"/>
		
			<rect x="495.29" y="382.701" transform="matrix(0.7071 -0.7071 0.7071 0.7071 -126.9257 465.6496)" fill="none" stroke="#B2B3B2" stroke-width="3" stroke-miterlimit="10" width="6.672" height="6.673"/>
		
			<rect x="502.856" y="389.514" transform="matrix(-0.707 -0.7072 0.7072 -0.707 586.2382 1028.5833)" fill="none" stroke="#B2B3B2" stroke-width="3" stroke-miterlimit="10" width="6.673" height="6.674"/>
		
			<rect x="517.88" y="389.515" transform="matrix(0.7072 -0.707 0.707 0.7072 -125.1367 483.5526)" fill="none" stroke="#B2B3B2" stroke-width="3" stroke-miterlimit="10" width="6.673" height="6.674"/>
		
			<rect x="510.414" y="382.035" transform="matrix(0.7071 -0.7071 0.7071 0.7071 -122.0298 476.116)" opacity="0.7" fill="#B2B3B2" stroke="#B2B3B2" stroke-width="3" stroke-miterlimit="10" width="6.673" height="6.673"/>
		
			<rect x="525.36" y="397.137" transform="matrix(-0.7071 -0.7071 0.7071 -0.7071 619.3286 1057.5004)" fill="none" stroke="#B2B3B2" stroke-width="3" stroke-miterlimit="10" width="6.672" height="6.673"/>
		<polygon opacity="0.7" fill="#B2B3B2" stroke="#B2B3B2" stroke-width="3" stroke-miterlimit="10" points="547.355,376.607 
			546.008,377.956 550.726,382.674 555.444,377.956 554.097,376.607 		"/>
		
			<rect x="540.107" y="382.086" transform="matrix(-0.7073 -0.707 0.707 -0.7073 655.3177 1042.2048)" fill="none" stroke="#B2B3B2" stroke-width="3" stroke-miterlimit="10" width="6.673" height="6.671"/>
		<polygon opacity="0.7" fill="#B2B3B2" stroke="#B2B3B2" stroke-width="3" stroke-miterlimit="10" points="539.476,376.607 
			532.734,376.607 531.386,377.956 536.104,382.674 540.823,377.956 		"/>
		
			<rect x="525.289" y="382.084" transform="matrix(0.707 0.7072 -0.7072 0.707 427.4317 -260.9175)" fill="none" stroke="#B2B3B2" stroke-width="3" stroke-miterlimit="10" width="6.673" height="6.674"/>
		<polygon fill="none" stroke="#B2B3B2" stroke-width="3" stroke-miterlimit="10" points="368.585,376.607 365.912,379.281 
			370.629,383.999 375.348,379.281 372.673,376.607 		"/>
		
			<rect x="562.311" y="389.055" transform="matrix(0.707 -0.7073 0.7073 0.707 -111.7631 515.0414)" fill="none" stroke="#B2B3B2" stroke-width="3" stroke-miterlimit="10" width="6.671" height="6.671"/>
		<polygon fill="none" stroke="#B2B3B2" stroke-width="3" stroke-miterlimit="10" points="570.366,377.573 569.399,376.607 
			561.896,376.607 560.931,377.573 565.646,382.292 		"/>
		<polygon opacity="0.7" fill="#B2B3B2" stroke="#B2B3B2" stroke-width="3" stroke-miterlimit="10" points="264.844,376.327 
			264.564,376.607 265.124,376.607 		"/>
		<polygon fill="none" stroke="#B2B3B2" stroke-width="3" stroke-miterlimit="10" points="294.828,376.398 294.618,376.607 
			295.037,376.607 		"/>
		<polygon fill="none" stroke="#B2B3B2" stroke-width="3" stroke-miterlimit="10" points="310.171,376.327 309.892,376.607 
			310.45,376.607 		"/>
	</g>
	<g opacity="0.2">
		
			<rect x="73.802" y="385.805" transform="matrix(-0.7072 -0.707 0.707 -0.7072 -143.4474 718.874)" opacity="0.7" fill="#B2B3B2" stroke="#B2B3B2" stroke-width="3" stroke-miterlimit="10" width="6.673" height="6.673"/>
		
			<rect x="81.268" y="378.467" transform="matrix(-0.7071 -0.7071 0.7071 -0.7071 -125.5301 711.614)" fill="none" stroke="#B2B3B2" stroke-width="3" stroke-miterlimit="10" width="6.672" height="6.673"/>
		<polygon fill="none" stroke="#B2B3B2" stroke-width="3" stroke-miterlimit="10" points="79.9,376.28 74.376,376.28 
			77.139,379.042 		"/>
		
			<rect x="96.321" y="393.214" transform="matrix(-0.7071 -0.7071 0.7071 -0.7071 -110.2783 747.4218)" opacity="0.7" fill="#B2B3B2" stroke="#B2B3B2" stroke-width="3" stroke-miterlimit="10" width="6.673" height="6.673"/>
		
			<rect x="103.785" y="385.876" transform="matrix(-0.7071 -0.7071 0.7071 -0.7071 -92.327 740.1835)" fill="none" stroke="#B2B3B2" stroke-width="3" stroke-miterlimit="10" width="6.674" height="6.673"/>
		
			<rect x="96.32" y="378.396" transform="matrix(0.7071 0.7071 -0.7071 0.7071 299.0965 41.3282)" fill="none" stroke="#B2B3B2" stroke-width="3" stroke-miterlimit="10" width="6.673" height="6.673"/>
		
			<rect x="111.572" y="378.466" transform="matrix(0.707 -0.7072 0.7072 0.707 -236.3388 193.1161)" opacity="0.7" fill="#B2B3B2" stroke="#B2B3B2" stroke-width="3" stroke-miterlimit="10" width="6.673" height="6.672"/>
		
			<rect x="119.13" y="385.805" transform="matrix(0.7071 -0.7071 0.7071 0.7071 -239.2949 200.5736)" fill="none" stroke="#B2B3B2" stroke-width="3" stroke-miterlimit="10" width="6.673" height="6.673"/>
		<polygon fill="none" stroke="#B2B3B2" stroke-width="3" stroke-miterlimit="10" points="125.228,376.28 119.704,376.28 
			122.466,379.042 		"/>
		
			<rect x="126.695" y="392.619" transform="matrix(-0.7071 -0.7071 0.7071 -0.7071 -58.0236 767.8752)" opacity="0.7" fill="#B2B3B2" stroke="#B2B3B2" stroke-width="3" stroke-miterlimit="10" width="6.673" height="6.673"/>
		
			<rect x="141.719" y="392.62" transform="matrix(-0.7071 -0.7071 0.7071 -0.7071 -32.338 778.5173)" fill="none" stroke="#B2B3B2" stroke-width="3" stroke-miterlimit="10" width="6.674" height="6.672"/>
		
			<rect x="134.253" y="385.14" transform="matrix(0.7071 -0.7071 0.7071 0.7071 -234.4041 211.0916)" fill="none" stroke="#B2B3B2" stroke-width="3" stroke-miterlimit="10" width="6.672" height="6.673"/>
		<polygon opacity="0.7" fill="#B2B3B2" stroke="#B2B3B2" stroke-width="3" stroke-miterlimit="10" points="144.776,376.28 
			140.337,380.719 145.057,385.437 149.773,380.719 145.335,376.28 		"/>
		
			<rect x="164.239" y="384.791" transform="matrix(-0.7071 -0.7071 0.7071 -0.7071 11.6208 781.0684)" opacity="0.7" fill="#B2B3B2" stroke="#B2B3B2" stroke-width="3" stroke-miterlimit="10" width="6.672" height="6.673"/>
		<polygon fill="none" stroke="#B2B3B2" stroke-width="3" stroke-miterlimit="10" points="174.832,376.28 170.322,380.789 
			175.041,385.508 179.758,380.789 175.249,376.28 		"/>
		<path fill="none" stroke="#B2B3B2" stroke-width="3" stroke-miterlimit="10" d="M20.9,388.051"/>
		
			<rect x="27.869" y="384.715" transform="matrix(0.707 -0.7072 0.7072 0.707 -265.2923 135.769)" fill="none" stroke="#B2B3B2" stroke-width="3" stroke-miterlimit="10" width="6.672" height="6.672"/>
		
			<rect x="35.35" y="392.336" transform="matrix(-0.7071 -0.7071 0.7071 -0.7071 -213.7414 702.8101)" fill="none" stroke="#B2B3B2" stroke-width="3" stroke-miterlimit="10" width="6.673" height="6.673"/>
		<polygon fill="none" stroke="#B2B3B2" stroke-width="3" stroke-miterlimit="10" points="52.538,376.798 48.714,380.62 
			53.433,385.338 58.151,380.62 54.329,376.798 		"/>
		<polygon fill="none" stroke="#B2B3B2" stroke-width="3" stroke-miterlimit="10" points="43.333,380.62 39.511,376.798 
			37.719,376.798 33.896,380.62 38.615,385.338 		"/>
		<polygon fill="none" stroke="#B2B3B2" stroke-width="3" stroke-miterlimit="10" points="62.387,378.68 64.787,376.28 
			59.985,376.28 		"/>
		<polygon opacity="0.7" fill="#B2B3B2" stroke="#B2B3B2" stroke-width="3" stroke-miterlimit="10" points="145.057,376 
			144.776,376.28 145.335,376.28 		"/>
		<polygon fill="none" stroke="#B2B3B2" stroke-width="3" stroke-miterlimit="10" points="175.041,376.071 174.832,376.28 
			175.249,376.28 		"/>
	</g>
</g>
<g>
	<g>
		<rect x="98.683" y="433.653" fill="#172027" width="4.342" height="33.639"/>
		<path fill="#172027" d="M114.953,433.653v19.913c0,7.536,3.343,10.73,7.835,10.73c4.99,0,8.185-3.295,8.185-10.73v-19.913h4.393
			v19.614c0,10.33-5.44,14.572-12.727,14.572c-6.888,0-12.078-3.942-12.078-14.374v-19.813H114.953z"/>
		<path fill="#172027" d="M168.501,465.794c-1.947,0.698-5.791,1.847-10.331,1.847c-5.09,0-9.283-1.298-12.577-4.441
			c-2.895-2.796-4.691-7.288-4.691-12.526c0.049-10.032,6.937-17.368,18.216-17.368c3.892,0,6.937,0.848,8.384,1.546l-1.048,3.544
			c-1.797-0.8-4.042-1.447-7.436-1.447c-8.186,0-13.525,5.09-13.525,13.524c0,8.534,5.141,13.576,12.976,13.576
			c2.845,0,4.792-0.4,5.789-0.899v-10.03h-6.837v-3.495h11.079V465.794z"/>
		<path fill="#172027" d="M175.137,467.292v-33.639h4.742l10.78,17.02c2.494,3.942,4.441,7.485,6.039,10.93l0.099-0.05
			c-0.398-4.492-0.499-8.586-0.499-13.825v-14.074h4.092v33.639h-4.391l-10.681-17.068c-2.345-3.744-4.591-7.587-6.288-11.229
			l-0.149,0.05c0.248,4.241,0.348,8.284,0.348,13.874v14.374H175.137z"/>
		<path fill="#172027" d="M213.414,456.71l-3.492,10.582h-4.495l11.432-33.639h5.238l11.479,33.639h-4.642l-3.593-10.582H213.414z
			 M224.442,453.316l-3.292-9.682c-0.748-2.195-1.248-4.191-1.749-6.138h-0.098c-0.5,1.996-1.049,4.041-1.697,6.087l-3.296,9.732
			H224.442z"/>
		<path fill="#BEDBCE" d="M71.96,424.131c0,0,4.777-4.474,10.174-7.513c5.398-3.041,11.14-4.581,11.14-4.581
			s-10.638,23.403-6.326,46.877C75.913,448.291,71.96,424.131,71.96,424.131"/>
		<path fill="none" stroke="#A5C5B9" stroke-width="0.5" stroke-miterlimit="10" d="M71.96,424.131c0,0,4.777-4.474,10.174-7.513
			c5.398-3.041,11.14-4.581,11.14-4.581s-10.638,23.403-6.326,46.877C75.913,448.291,71.96,424.131,71.96,424.131z"/>
		<path fill="#2CA26A" d="M60.258,431.831c0,0,5.373-10.036,17.732-16.917c-1.286,6.486-5.58,27.814,6.453,47.005
			C67.016,450.466,60.258,431.831,60.258,431.831"/>
		<path fill="none" stroke="#248F66" stroke-width="0.5" stroke-miterlimit="10" d="M60.258,431.831c0,0,5.373-10.036,17.732-16.917
			c-1.286,6.486-5.58,27.814,6.453,47.005C67.016,450.466,60.258,431.831,60.258,431.831z"/>
		<path fill="#0B6731" d="M58.514,451.722c-2.626-2.227-4.588-4.163-5.936-5.595c-1.537-1.635-2.271-2.611-2.271-2.611
			s0.494-4.912,4.647-11.765c3.442-5.677,7.019-8.6,7.019-8.6s2.076,25.338,20.663,41.917c0,0-7.372-2.371-14.414-6.539
			C64.996,456.618,61.589,454.331,58.514,451.722"/>
		<path fill="none" stroke="#09563A" stroke-width="0.5" stroke-miterlimit="10" d="M58.514,451.722
			c-2.626-2.227-4.588-4.163-5.936-5.595c-1.537-1.635-2.271-2.611-2.271-2.611s0.494-4.912,4.647-11.765
			c3.442-5.677,7.019-8.6,7.019-8.6s2.076,25.338,20.663,41.917c0,0-7.372-2.371-14.414-6.539
			C64.996,456.618,61.589,454.331,58.514,451.722z"/>
		<path fill="#04472D" d="M84.813,469.645c0,0-9.098,2.177-22.048-3.888c-5.462-2.56-10.626-7.264-13.543-11.138
			c1.58-6.461,8.701-18.192,8.701-18.192s2.512,10.532,10.464,20.338C75.122,465.068,84.813,469.645,84.813,469.645"/>
		<path fill="none" stroke="#073B30" stroke-width="0.5" stroke-miterlimit="10" d="M84.813,469.645c0,0-9.098,2.177-22.048-3.888
			c-5.462-2.56-10.626-7.264-13.543-11.138c1.58-6.461,8.701-18.192,8.701-18.192s2.512,10.532,10.464,20.338
			C75.122,465.068,84.813,469.645,84.813,469.645z"/>
	</g>
	<g opacity="0.8">
		<text transform="matrix(1 0 0 1 241.3569 438.29)"><tspan x="0" y="0" fill="#172027" font-family="'Calibri'" font-size="8.3489">IN</tspan><tspan x="7.493" y="0" fill="#172027" font-family="'Calibri'" font-size="8.3489">S</tspan><tspan x="11.253" y="0" fill="#172027" font-family="'Calibri'" font-size="8.3489">TITU</tspan><tspan x="26.85" y="0" fill="#172027" font-family="'Calibri'" font-size="8.3489">T</tspan><tspan x="30.702" y="0" fill="#172027" font-family="'Calibri'" font-size="8.3489">O</tspan><tspan x="0" y="7.2" fill="#172027" font-family="'Calibri'" font-size="8.3489">UNIVE</tspan><tspan x="21.663" y="7.2" fill="#172027" font-family="'Calibri'" font-size="8.3489">R</tspan><tspan x="26.121" y="7.2" fill="#172027" font-family="'Calibri'" font-size="8.3489">SI</tspan><tspan x="32.06" y="7.2" fill="#172027" font-family="'Calibri'" font-size="8.3489">T</tspan><tspan x="35.477" y="7.2" fill="#172027" font-family="'Calibri'" font-size="8.3489">ARIO DE</tspan></text>
		<text transform="matrix(1 0 0 1 241.356 452.5947)"><tspan x="0" y="0" fill="#172027" font-family="'Calibri'" font-size="8.3489">GEN</tspan><tspan x="14.733" y="0" fill="#172027" font-family="'Calibri'" font-size="8.3489">D</tspan><tspan x="19.678" y="0" fill="#172027" font-family="'Calibri'" font-size="8.3489">ARMERÍA</tspan></text>
		<text transform="matrix(1 0 0 1 241.3569 460.2119)"><tspan x="0" y="0" fill="#172027" font-family="'Calibri'" font-size="8.3489">N</tspan><tspan x="5.389" y="0" fill="#172027" font-family="'Calibri'" font-size="8.3489">A</tspan><tspan x="10.128" y="0" fill="#172027" font-family="'Calibri'" font-size="8.3489">CIONAL</tspan><tspan x="0" y="7.263" fill="#172027" font-family="'Calibri'" font-size="8.3489">ARGENTINA</tspan></text>
	</g>
</g>
</svg>
