<?xml version="1.0" encoding="utf-8"?>
<!-- Generator: Adobe Illustrator 16.0.0, SVG Export Plug-In . SVG Version: 6.00 Build 0)  -->
<!DOCTYPE svg PUBLIC "-//W3C//DTD SVG 1.1//EN" "http://www.w3.org/Graphics/SVG/1.1/DTD/svg11.dtd">
<svg version="1.1" xmlns="http://www.w3.org/2000/svg" xmlns:xlink="http://www.w3.org/1999/xlink" x="0px" y="0px"
	 width="1023.657px" height="1363.913px" viewBox="0 0 1023.657 1363.913" enable-background="new 0 0 1023.657 1363.913"
	 xml:space="preserve">
<g id="Capa_2">
</g>
<g id="Capa_1">
	<linearGradient id="SVGID_1_" gradientUnits="userSpaceOnUse" x1="103.1968" y1="391.749" x2="937.2606" y2="391.749">
		<stop  offset="0" style="stop-color:#6AA8AE"/>
		<stop  offset="1" style="stop-color:#5D8541"/>
	</linearGradient>
	<rect x="46.041" y="207.285" fill="url(#SVGID_1_)" width="943.23" height="368.929"/>
	
		<linearGradient id="SVGID_2_" gradientUnits="userSpaceOnUse" x1="1219.8906" y1="665.5527" x2="2053.9543" y2="665.5527" gradientTransform="matrix(-1 0 0 -1 2152.0059 1057.1943)">
		<stop  offset="0" style="stop-color:#45519F"/>
		<stop  offset="1" style="stop-color:#5A4976"/>
	</linearGradient>
	<rect x="46.041" y="207.07" fill="url(#SVGID_2_)" width="943.23" height="369.144"/>
	<g opacity="0.2">
		<g>
			<circle fill="#FFFFFF" cx="714.936" cy="370.996" r="9.48"/>
			<circle fill="#FFFFFF" cx="695.975" cy="280.927" r="9.48"/>
			<circle fill="#FFFFFF" cx="797.105" cy="314.11" r="9.48"/>
			<circle fill="#FFFFFF" cx="896.857" cy="445.263" r="9.479"/>
			<circle fill="#FFFFFF" cx="857.281" cy="389.958" r="9.48"/>
			<circle fill="#FFFFFF" cx="918.102" cy="323.591" r="9.481"/>
			<circle fill="#FFFFFF" cx="778.145" cy="426.301" r="9.48"/>
			<circle fill="#FFFFFF" cx="966.303" cy="389.958" r="9.48"/>
			<circle fill="#FFFFFF" cx="733.69" cy="218.67" r="6.871"/>
			<path fill="#FFFFFF" d="M660.732,323.591c0,3.795-3.076,6.872-6.869,6.872c-3.798,0-6.873-3.077-6.873-6.872
				s3.075-6.872,6.873-6.872C657.656,316.72,660.732,319.796,660.732,323.591z"/>
			<circle fill="#FFFFFF" cx="911.261" cy="420.212" r="6.871"/>
			<circle fill="#FFFFFF" cx="907.757" cy="264.575" r="6.872"/>
			<circle fill="#FFFFFF" cx="953.296" cy="303.576" r="6.872"/>
			<circle fill="#FFFFFF" cx="787.626" cy="472.676" r="6.871"/>
			<circle fill="#FFFFFF" cx="840.93" cy="333.072" r="6.871"/>
			<g>
				
					<line fill="none" stroke="#FFFFFF" stroke-width="4" stroke-miterlimit="10" x1="695.976" y1="280.927" x2="797.104" y2="314.11"/>
				
					<line fill="none" stroke="#FFFFFF" stroke-width="4" stroke-miterlimit="10" x1="714.937" y1="370.996" x2="797.104" y2="314.11"/>
				
					<line fill="none" stroke="#FFFFFF" stroke-width="4" stroke-miterlimit="10" x1="797.104" y1="314.11" x2="731.291" y2="209.063"/>
				
					<line fill="none" stroke="#FFFFFF" stroke-width="4" stroke-miterlimit="10" x1="695.976" y1="280.927" x2="731.291" y2="212.666"/>
				
					<line fill="none" stroke="#FFFFFF" stroke-width="4" stroke-miterlimit="10" x1="695.976" y1="280.927" x2="653.863" y2="323.591"/>
				
					<line fill="none" stroke="#FFFFFF" stroke-width="4" stroke-miterlimit="10" x1="857.282" y1="389.958" x2="918.102" y2="323.591"/>
				
					<line fill="none" stroke="#FFFFFF" stroke-width="4" stroke-miterlimit="10" x1="918.102" y1="323.591" x2="840.929" y2="333.072"/>
				
					<line fill="none" stroke="#FFFFFF" stroke-width="4" stroke-miterlimit="10" x1="797.104" y1="314.11" x2="840.929" y2="333.072"/>
				
					<line fill="none" stroke="#FFFFFF" stroke-width="4" stroke-miterlimit="10" x1="857.282" y1="389.958" x2="911.262" y2="420.212"/>
				
					<line fill="none" stroke="#FFFFFF" stroke-width="4" stroke-miterlimit="10" x1="857.282" y1="389.958" x2="896.857" y2="445.263"/>
				
					<line fill="none" stroke="#FFFFFF" stroke-width="4" stroke-miterlimit="10" x1="778.146" y1="426.301" x2="840.929" y2="333.072"/>
				
					<line fill="none" stroke="#FFFFFF" stroke-width="4" stroke-miterlimit="10" x1="778.146" y1="426.301" x2="787.625" y2="472.676"/>
				
					<line fill="none" stroke="#FFFFFF" stroke-width="4" stroke-miterlimit="10" x1="787.625" y1="472.676" x2="896.857" y2="445.263"/>
				
					<line fill="none" stroke="#FFFFFF" stroke-width="4" stroke-miterlimit="10" x1="896.857" y1="445.263" x2="778.146" y2="426.301"/>
				
					<line fill="none" stroke="#FFFFFF" stroke-width="4" stroke-miterlimit="10" x1="918.102" y1="323.591" x2="966.302" y2="389.958"/>
				
					<line fill="none" stroke="#FFFFFF" stroke-width="4" stroke-miterlimit="10" x1="966.302" y1="389.958" x2="951.188" y2="297.758"/>
				
					<line fill="none" stroke="#FFFFFF" stroke-width="4" stroke-miterlimit="10" x1="951.188" y1="297.758" x2="907.755" y2="264.575"/>
				
					<line fill="none" stroke="#FFFFFF" stroke-width="4" stroke-miterlimit="10" x1="951.188" y1="297.758" x2="990.843" y2="361.005"/>
			</g>
		</g>
		<g>
			<circle fill="#FFFFFF" cx="602.945" cy="495.864" r="9.48"/>
			<circle fill="#FFFFFF" cx="583.983" cy="405.795" r="9.482"/>
			<circle fill="#FFFFFF" cx="685.114" cy="438.979" r="9.481"/>
			<path fill="#FFFFFF" d="M778.162,575.835c-1.716-1.716-2.777-3.086-2.777-5.704c0-5.236,4.245-9.481,9.482-9.481
				c5.234,0,9.478,4.245,9.478,9.481c0,2.318-0.832,4.442-2.214,6.09"/>
			<circle fill="#FFFFFF" cx="745.29" cy="514.826" r="9.482"/>
			<circle fill="#FFFFFF" cx="806.11" cy="448.459" r="9.481"/>
			<circle fill="#FFFFFF" cx="666.152" cy="551.168" r="9.481"/>
			<circle fill="#FFFFFF" cx="854.311" cy="514.826" r="9.48"/>
			<circle fill="#FFFFFF" cx="911.666" cy="538.209" r="6.871"/>
			<circle fill="#FFFFFF" cx="619.298" cy="361.551" r="6.872"/>
			<circle fill="#FFFFFF" cx="541.87" cy="448.459" r="6.872"/>
			<circle fill="#FFFFFF" cx="799.269" cy="545.08" r="6.87"/>
			<circle fill="#FFFFFF" cx="795.764" cy="389.443" r="6.871"/>
			<path fill="#FFFFFF" d="M848.176,428.444c0,3.794-3.079,6.871-6.87,6.871c-3.798,0-6.872-3.076-6.872-6.871
				c0-3.795,3.074-6.872,6.872-6.872C845.097,421.573,848.176,424.649,848.176,428.444z"/>
			<circle fill="#FFFFFF" cx="728.937" cy="457.94" r="6.871"/>
			<g>
				
					<line fill="none" stroke="#FFFFFF" stroke-width="2" stroke-miterlimit="10" x1="583.983" y1="405.795" x2="685.112" y2="438.979"/>
				
					<line fill="none" stroke="#FFFFFF" stroke-width="2" stroke-miterlimit="10" x1="602.944" y1="495.864" x2="685.112" y2="438.979"/>
				
					<line fill="none" stroke="#FFFFFF" stroke-width="2" stroke-miterlimit="10" x1="685.112" y1="438.979" x2="619.298" y2="361.551"/>
				
					<line fill="none" stroke="#FFFFFF" stroke-width="2" stroke-miterlimit="10" x1="583.983" y1="405.795" x2="619.298" y2="361.551"/>
				
					<line fill="none" stroke="#FFFFFF" stroke-width="2" stroke-miterlimit="10" x1="583.983" y1="405.795" x2="541.87" y2="448.459"/>
				
					<line fill="none" stroke="#FFFFFF" stroke-width="2" stroke-miterlimit="10" x1="745.289" y1="514.826" x2="806.111" y2="448.459"/>
				
					<line fill="none" stroke="#FFFFFF" stroke-width="2" stroke-miterlimit="10" x1="806.111" y1="448.459" x2="728.936" y2="457.94"/>
				
					<line fill="none" stroke="#FFFFFF" stroke-width="2" stroke-miterlimit="10" x1="685.112" y1="438.979" x2="728.936" y2="457.94"/>
				
					<line fill="none" stroke="#FFFFFF" stroke-width="2" stroke-miterlimit="10" x1="745.289" y1="514.826" x2="799.269" y2="545.08"/>
				
					<line fill="none" stroke="#FFFFFF" stroke-width="2" stroke-miterlimit="10" x1="745.289" y1="514.826" x2="784.865" y2="570.131"/>
				
					<line fill="none" stroke="#FFFFFF" stroke-width="2" stroke-miterlimit="10" x1="666.15" y1="551.168" x2="728.936" y2="457.94"/>
				<path fill="none" stroke="#FFFFFF" stroke-width="2" stroke-miterlimit="10" d="M666.15,551.168"/>
				<path fill="none" stroke="#FFFFFF" stroke-width="2" stroke-miterlimit="10" d="M784.865,570.131"/>
				
					<line fill="none" stroke="#FFFFFF" stroke-width="2" stroke-miterlimit="10" x1="784.865" y1="570.131" x2="666.15" y2="551.168"/>
				
					<line fill="none" stroke="#FFFFFF" stroke-width="2" stroke-miterlimit="10" x1="806.111" y1="448.459" x2="854.312" y2="514.826"/>
				
					<line fill="none" stroke="#FFFFFF" stroke-width="2" stroke-miterlimit="10" x1="854.312" y1="514.826" x2="839.197" y2="422.625"/>
				
					<line fill="none" stroke="#FFFFFF" stroke-width="2" stroke-miterlimit="10" x1="839.197" y1="422.625" x2="795.765" y2="389.443"/>
				
					<line fill="none" stroke="#FFFFFF" stroke-width="2" stroke-miterlimit="10" x1="839.197" y1="422.625" x2="911.665" y2="538.209"/>
			</g>
		</g>
		<g>
			<circle fill="#FFFFFF" cx="364.096" cy="342.043" r="9.48"/>
			<circle fill="#FFFFFF" cx="345.133" cy="251.975" r="9.482"/>
			<circle fill="#FFFFFF" cx="446.265" cy="285.157" r="9.481"/>
			<circle fill="#FFFFFF" cx="546.017" cy="416.311" r="9.479"/>
			<circle fill="#FFFFFF" cx="506.439" cy="361.005" r="9.481"/>
			<circle fill="#FFFFFF" cx="567.259" cy="294.639" r="9.481"/>
			<circle fill="#FFFFFF" cx="427.302" cy="397.349" r="9.481"/>
			<circle fill="#FFFFFF" cx="615.46" cy="361.005" r="9.48"/>
			<circle fill="#FFFFFF" cx="672.815" cy="384.389" r="6.871"/>
			<circle fill="#FFFFFF" cx="303.02" cy="294.639" r="6.871"/>
			<circle fill="#FFFFFF" cx="560.419" cy="391.26" r="6.871"/>
			<circle fill="#FFFFFF" cx="556.914" cy="235.623" r="6.872"/>
			<circle fill="#FFFFFF" cx="602.454" cy="274.624" r="6.871"/>
			<circle fill="#FFFFFF" cx="436.784" cy="443.724" r="6.871"/>
			<circle fill="#FFFFFF" cx="490.086" cy="304.12" r="6.872"/>
			<g>
				
					<line fill="none" stroke="#FFFFFF" stroke-width="2" stroke-miterlimit="10" x1="345.134" y1="251.975" x2="446.263" y2="285.157"/>
				
					<line fill="none" stroke="#FFFFFF" stroke-width="2" stroke-miterlimit="10" x1="364.095" y1="342.043" x2="446.263" y2="285.157"/>
				
					<line fill="none" stroke="#FFFFFF" stroke-width="2" stroke-miterlimit="10" x1="446.263" y1="285.157" x2="380.446" y2="207.73"/>
				
					<line fill="none" stroke="#FFFFFF" stroke-width="2" stroke-miterlimit="10" x1="345.134" y1="251.975" x2="380.446" y2="207.73"/>
				
					<line fill="none" stroke="#FFFFFF" stroke-width="2" stroke-miterlimit="10" x1="345.134" y1="251.975" x2="303.019" y2="294.639"/>
				
					<line fill="none" stroke="#FFFFFF" stroke-width="2" stroke-miterlimit="10" x1="506.439" y1="361.005" x2="567.26" y2="294.639"/>
				
					<line fill="none" stroke="#FFFFFF" stroke-width="2" stroke-miterlimit="10" x1="567.26" y1="294.639" x2="490.086" y2="304.12"/>
				
					<line fill="none" stroke="#FFFFFF" stroke-width="2" stroke-miterlimit="10" x1="446.263" y1="285.157" x2="490.086" y2="304.12"/>
				
					<line fill="none" stroke="#FFFFFF" stroke-width="2" stroke-miterlimit="10" x1="506.439" y1="361.005" x2="560.418" y2="391.26"/>
				
					<line fill="none" stroke="#FFFFFF" stroke-width="2" stroke-miterlimit="10" x1="506.439" y1="361.005" x2="546.017" y2="416.311"/>
				
					<line fill="none" stroke="#FFFFFF" stroke-width="2" stroke-miterlimit="10" x1="427.303" y1="397.349" x2="490.086" y2="304.12"/>
				
					<line fill="none" stroke="#FFFFFF" stroke-width="2" stroke-miterlimit="10" x1="427.303" y1="397.349" x2="436.783" y2="443.724"/>
				
					<line fill="none" stroke="#FFFFFF" stroke-width="2" stroke-miterlimit="10" x1="436.783" y1="443.724" x2="546.017" y2="416.311"/>
				
					<line fill="none" stroke="#FFFFFF" stroke-width="2" stroke-miterlimit="10" x1="546.017" y1="416.311" x2="427.303" y2="397.349"/>
				
					<line fill="none" stroke="#FFFFFF" stroke-width="2" stroke-miterlimit="10" x1="567.26" y1="294.639" x2="615.461" y2="361.005"/>
				
					<line fill="none" stroke="#FFFFFF" stroke-width="2" stroke-miterlimit="10" x1="615.461" y1="361.005" x2="600.347" y2="268.805"/>
				
					<line fill="none" stroke="#FFFFFF" stroke-width="2" stroke-miterlimit="10" x1="600.347" y1="268.805" x2="556.914" y2="235.623"/>
				
					<line fill="none" stroke="#FFFFFF" stroke-width="2" stroke-miterlimit="10" x1="600.347" y1="268.805" x2="672.814" y2="384.389"/>
			</g>
		</g>
	</g>
	<g opacity="0.2">
		<g>
			<circle fill="#FFFFFF" cx="199.412" cy="362.78" r="9.481"/>
			<circle fill="#FFFFFF" cx="180.45" cy="272.711" r="9.48"/>
			<circle fill="#FFFFFF" cx="281.581" cy="305.894" r="9.48"/>
			<circle fill="#FFFFFF" cx="381.333" cy="437.047" r="9.479"/>
			<circle fill="#FFFFFF" cx="341.756" cy="381.742" r="9.481"/>
			<circle fill="#FFFFFF" cx="402.577" cy="315.375" r="9.481"/>
			<circle fill="#FFFFFF" cx="262.62" cy="418.085" r="9.481"/>
			<circle fill="#FFFFFF" cx="450.778" cy="381.742" r="9.48"/>
			<circle fill="#FFFFFF" cx="218.166" cy="210.454" r="6.871"/>
			<circle fill="#FFFFFF" cx="138.337" cy="315.375" r="6.871"/>
			<path fill="#FFFFFF" d="M402.607,411.997c0,3.795-3.077,6.871-6.87,6.871c-3.798,0-6.872-3.076-6.872-6.871
				c0-3.795,3.074-6.871,6.872-6.871C399.53,405.125,402.607,408.202,402.607,411.997z"/>
			<circle fill="#FFFFFF" cx="392.232" cy="256.359" r="6.872"/>
			<circle fill="#FFFFFF" cx="437.771" cy="295.36" r="6.872"/>
			<circle fill="#FFFFFF" cx="272.102" cy="464.46" r="6.871"/>
			<circle fill="#FFFFFF" cx="325.405" cy="324.856" r="6.871"/>
			<g>
				
					<line fill="none" stroke="#FFFFFF" stroke-width="4" stroke-miterlimit="10" x1="180.451" y1="272.711" x2="281.58" y2="305.894"/>
				
					<line fill="none" stroke="#FFFFFF" stroke-width="4" stroke-miterlimit="10" x1="199.412" y1="362.78" x2="281.58" y2="305.894"/>
				
					<line fill="none" stroke="#FFFFFF" stroke-width="4" stroke-miterlimit="10" x1="281.58" y1="305.894" x2="216.766" y2="207.847"/>
				
					<line fill="none" stroke="#FFFFFF" stroke-width="4" stroke-miterlimit="10" x1="180.451" y1="272.711" x2="215.766" y2="204.45"/>
				
					<line fill="none" stroke="#FFFFFF" stroke-width="4" stroke-miterlimit="10" x1="180.451" y1="272.711" x2="138.338" y2="315.375"/>
				
					<line fill="none" stroke="#FFFFFF" stroke-width="4" stroke-miterlimit="10" x1="341.758" y1="381.742" x2="402.577" y2="315.375"/>
				
					<line fill="none" stroke="#FFFFFF" stroke-width="4" stroke-miterlimit="10" x1="402.577" y1="315.375" x2="325.404" y2="324.856"/>
				
					<line fill="none" stroke="#FFFFFF" stroke-width="4" stroke-miterlimit="10" x1="281.58" y1="305.894" x2="325.404" y2="324.856"/>
				
					<line fill="none" stroke="#FFFFFF" stroke-width="4" stroke-miterlimit="10" x1="341.758" y1="381.742" x2="395.737" y2="411.997"/>
				
					<line fill="none" stroke="#FFFFFF" stroke-width="4" stroke-miterlimit="10" x1="341.758" y1="381.742" x2="381.333" y2="437.047"/>
				
					<line fill="none" stroke="#FFFFFF" stroke-width="4" stroke-miterlimit="10" x1="262.621" y1="418.085" x2="325.404" y2="324.856"/>
				
					<line fill="none" stroke="#FFFFFF" stroke-width="4" stroke-miterlimit="10" x1="262.621" y1="418.085" x2="272.101" y2="464.46"/>
				
					<line fill="none" stroke="#FFFFFF" stroke-width="4" stroke-miterlimit="10" x1="272.101" y1="464.46" x2="381.333" y2="437.047"/>
				
					<line fill="none" stroke="#FFFFFF" stroke-width="4" stroke-miterlimit="10" x1="381.333" y1="437.047" x2="262.621" y2="418.085"/>
				
					<line fill="none" stroke="#FFFFFF" stroke-width="4" stroke-miterlimit="10" x1="402.577" y1="315.375" x2="450.777" y2="381.742"/>
				
					<line fill="none" stroke="#FFFFFF" stroke-width="4" stroke-miterlimit="10" x1="450.777" y1="381.742" x2="435.663" y2="289.542"/>
				
					<line fill="none" stroke="#FFFFFF" stroke-width="4" stroke-miterlimit="10" x1="435.663" y1="289.542" x2="392.23" y2="256.359"/>
				
					<line fill="none" stroke="#FFFFFF" stroke-width="4" stroke-miterlimit="10" x1="435.663" y1="289.542" x2="508.133" y2="405.125"/>
			</g>
		</g>
		<g>
			<circle fill="#FFFFFF" cx="87.421" cy="487.648" r="9.48"/>
			<circle fill="#FFFFFF" cx="68.458" cy="397.58" r="9.482"/>
			<circle fill="#FFFFFF" cx="169.589" cy="430.762" r="9.482"/>
			<circle fill="#FFFFFF" cx="269.34" cy="561.916" r="9.48"/>
			<circle fill="#FFFFFF" cx="229.765" cy="506.61" r="9.481"/>
			<circle fill="#FFFFFF" cx="290.585" cy="440.243" r="9.481"/>
			<circle fill="#FFFFFF" cx="150.627" cy="542.954" r="9.48"/>
			<circle fill="#FFFFFF" cx="338.786" cy="506.61" r="9.48"/>
			<circle fill="#FFFFFF" cx="396.141" cy="529.993" r="6.871"/>
			<circle fill="#FFFFFF" cx="103.773" cy="353.334" r="6.872"/>
			<circle fill="#FFFFFF" cx="283.744" cy="536.864" r="6.87"/>
			<circle fill="#FFFFFF" cx="280.239" cy="381.228" r="6.871"/>
			<path fill="#FFFFFF" d="M332.651,420.228c0,3.795-3.079,6.871-6.87,6.871c-3.797,0-6.872-3.076-6.872-6.871
				s3.075-6.871,6.872-6.871C329.572,413.357,332.651,416.433,332.651,420.228z"/>
			<circle fill="#FFFFFF" cx="213.412" cy="449.724" r="6.871"/>
			<g>
				
					<line fill="none" stroke="#FFFFFF" stroke-width="2" stroke-miterlimit="10" x1="68.459" y1="397.58" x2="169.588" y2="430.762"/>
				
					<line fill="none" stroke="#FFFFFF" stroke-width="2" stroke-miterlimit="10" x1="87.42" y1="487.648" x2="169.588" y2="430.762"/>
				
					<line fill="none" stroke="#FFFFFF" stroke-width="2" stroke-miterlimit="10" x1="169.588" y1="430.762" x2="103.773" y2="353.334"/>
				
					<line fill="none" stroke="#FFFFFF" stroke-width="2" stroke-miterlimit="10" x1="68.459" y1="397.58" x2="103.773" y2="353.334"/>
				
					<line fill="none" stroke="#FFFFFF" stroke-width="2" stroke-miterlimit="10" x1="229.765" y1="506.61" x2="290.586" y2="440.243"/>
				
					<line fill="none" stroke="#FFFFFF" stroke-width="2" stroke-miterlimit="10" x1="290.586" y1="440.243" x2="213.411" y2="449.724"/>
				
					<line fill="none" stroke="#FFFFFF" stroke-width="2" stroke-miterlimit="10" x1="169.588" y1="430.762" x2="213.411" y2="449.724"/>
				
					<line fill="none" stroke="#FFFFFF" stroke-width="2" stroke-miterlimit="10" x1="229.765" y1="506.61" x2="283.744" y2="536.864"/>
				
					<line fill="none" stroke="#FFFFFF" stroke-width="2" stroke-miterlimit="10" x1="229.765" y1="506.61" x2="269.34" y2="561.916"/>
				
					<line fill="none" stroke="#FFFFFF" stroke-width="2" stroke-miterlimit="10" x1="150.626" y1="542.954" x2="213.411" y2="449.724"/>
				
					<line fill="none" stroke="#FFFFFF" stroke-width="2" stroke-miterlimit="10" x1="209.983" y1="576.213" x2="269.34" y2="561.916"/>
				
					<line fill="none" stroke="#FFFFFF" stroke-width="2" stroke-miterlimit="10" x1="269.34" y1="561.916" x2="150.626" y2="542.954"/>
				
					<line fill="none" stroke="#FFFFFF" stroke-width="2" stroke-miterlimit="10" x1="290.586" y1="440.243" x2="338.787" y2="506.61"/>
				
					<line fill="none" stroke="#FFFFFF" stroke-width="2" stroke-miterlimit="10" x1="338.787" y1="506.61" x2="323.673" y2="414.41"/>
				
					<line fill="none" stroke="#FFFFFF" stroke-width="2" stroke-miterlimit="10" x1="323.673" y1="414.41" x2="280.24" y2="381.228"/>
				
					<line fill="none" stroke="#FFFFFF" stroke-width="2" stroke-miterlimit="10" x1="323.673" y1="414.41" x2="396.141" y2="529.993"/>
			</g>
		</g>
		<g>
			<circle fill="#FFFFFF" cx="55.735" cy="286.423" r="9.481"/>
			<circle fill="#FFFFFF" cx="99.936" cy="352.789" r="9.48"/>
			<path fill="#FFFFFF" d="M164.162,376.173c0,3.794-3.075,6.871-6.873,6.871c-3.793,0-6.869-3.077-6.869-6.871
				c0-3.795,3.076-6.872,6.869-6.872C161.087,369.301,164.162,372.377,164.162,376.173z"/>
			<circle fill="#FFFFFF" cx="86.93" cy="266.408" r="6.871"/>
			<g>
				
					<line fill="none" stroke="#FFFFFF" stroke-width="2" stroke-miterlimit="10" x1="55.735" y1="288.423" x2="99.937" y2="352.789"/>
				
					<line fill="none" stroke="#FFFFFF" stroke-width="2" stroke-miterlimit="10" x1="99.937" y1="352.789" x2="84.822" y2="260.589"/>
				
					<line fill="none" stroke="#FFFFFF" stroke-width="2" stroke-miterlimit="10" x1="84.822" y1="260.589" x2="46.39" y2="227.406"/>
				
					<line fill="none" stroke="#FFFFFF" stroke-width="2" stroke-miterlimit="10" x1="84.822" y1="260.589" x2="157.289" y2="376.173"/>
			</g>
		</g>
	</g>
	<g opacity="0.3">
		<path fill="none" stroke="#FFFFFF" stroke-width="3" stroke-miterlimit="10" d="M786.133,207.069
			c28.497,13.568,53.504,35.302,71.158,64.262"/>
		<path fill="none" stroke="#FFFFFF" stroke-width="3" stroke-miterlimit="10" d="M857.291,271.331
			c48.352,79.319,23.258,182.814-56.063,231.168c-79.301,48.345-182.805,23.251-231.161-56.067
			c-48.357-79.316-23.243-182.82,56.056-231.162c4.928-3.003,9.948-5.724,15.043-8.165"/>
		<path fill="#FFFFFF" stroke="#4B4B4B" stroke-miterlimit="10" d="M752.047,400.805c3.008-0.963,4.387-1.228,5.515-1.747
			c4.509-2.157,11.797-8.002,15.229-3.795c1.813,2.219,1.665,4.814-10.897,8.276c-5.471,1.515-10.933,2.943-17.086,4.806"/>
		<path fill="#FFFFFF" stroke="#4B4B4B" stroke-width="0.5" stroke-miterlimit="10" d="M752.047,400.805
			c3.008-0.963,4.387-1.228,5.515-1.747c4.509-2.157,11.797-8.002,15.229-3.795c1.813,2.219,1.665,4.814-10.897,8.276
			c-5.471,1.515-10.933,2.943-17.086,4.806"/>
		<path fill="#FFFFFF" stroke="#4B4B4B" stroke-miterlimit="10" d="M639.094,362.007l71.41-10.75l145.323-14.079
			c0,0-12.994,11.409-31.898,16.648c-13.618,3.777-180.563,21.543-180.563,21.543"/>
		<path fill="#FFFFFF" stroke="#4B4B4B" stroke-miterlimit="10" d="M745.097,297.384L628.938,475.497
			c0,0,19.097-6.621,29.144-20.563c10.031-13.944,101.875-151.692,101.875-151.692L745.097,297.384z"/>
		<path fill="#FFFFFF" stroke="#4B4B4B" stroke-width="0.5" stroke-miterlimit="10" d="M654.275,435.546l-25.337,39.951
			c0,0,13.023-3.503,24.324-14.831c4.544-4.551,13.144-17.282,21.306-28.908"/>
		<path fill="#FFFFFF" stroke="#4B4B4B" stroke-width="0.5" stroke-miterlimit="10" d="M663.645,435.21
			c0,0-10.089,17.716-13.904,21.996c-4.16,4.668-4.109,4.396-7.502,7.387"/>
		<path fill="#FFFFFF" stroke="#4B4B4B" stroke-miterlimit="10" d="M780.863,248.829c0,0,3.971-6.151,8.874-1.805
			c5.325,4.693-0.17,9.075-0.17,9.075"/>
		<path fill="#FFFFFF" stroke="#4B4B4B" stroke-width="0.5" stroke-miterlimit="10" d="M780.863,248.829
			c0,0,3.971-6.151,8.874-1.805c5.325,4.693-0.17,9.075-0.17,9.075"/>
		<path fill="#FFFFFF" stroke="#4B4B4B" stroke-miterlimit="10" d="M766.29,290.394c0,0-0.789,5.909-6.239,2.401
			c-5.289-3.416-9.044-7.072-4.157-10.167"/>
		<path fill="#FFFFFF" stroke="#4B4B4B" stroke-width="0.75" stroke-miterlimit="10" d="M766.29,290.394
			c0,0-0.789,5.909-6.239,2.401c-5.289-3.416-9.044-7.072-4.157-10.167"/>
		<path fill="#FFFFFF" stroke="#4B4B4B" stroke-miterlimit="10" d="M757.939,278.688c0,0-4.535,2.365,0.521,7.464
			c5.192,5.23,11.004,5.666,11.314,1.229"/>
		<path fill="#FFFFFF" stroke="#4B4B4B" stroke-width="0.5" stroke-miterlimit="10" d="M757.939,278.688
			c0,0-4.535,2.365,0.521,7.464c5.192,5.23,11.004,5.666,11.314,1.229"/>
		<path fill="#FFFFFF" stroke="#4B4B4B" stroke-miterlimit="10" d="M773.022,283.705c0,0-0.102,4.947-5.455,2.775
			c-4.062-1.66-8.696-5.56-9.887-8.327c-1.329-3.074,2.012-4.309,2.012-4.309"/>
		<path fill="#FFFFFF" stroke="#4B4B4B" stroke-width="0.5" stroke-miterlimit="10" d="M773.022,283.705
			c0,0-0.102,4.947-5.455,2.775c-4.062-1.66-8.696-5.56-9.887-8.327c-1.329-3.074,2.012-4.309,2.012-4.309"/>
		
			<line fill="#FFFFFF" stroke="#4B4B4B" stroke-width="0.5" stroke-miterlimit="10" x1="638.457" y1="360.972" x2="678.17" y2="355.962"/>
		<path fill="#FFFFFF" stroke="#4B4B4B" stroke-miterlimit="10" d="M762.766,269.994c0,0-4.216-0.041-3.069,3.847
			c0.779,2.722,11.062,12.148,14.884,9.367c2.219-1.6,0.813-3.639,0.813-3.639"/>
		<path fill="#FFFFFF" stroke="#4B4B4B" stroke-width="0.5" stroke-miterlimit="10" d="M762.766,269.994
			c0,0-4.216-0.041-3.069,3.847c0.779,2.722,11.062,12.148,14.884,9.367c2.219-1.6,0.813-3.639,0.813-3.639"/>
		<path fill="#FFFFFF" stroke="#4B4B4B" stroke-miterlimit="10" d="M777.727,276.078c0,0,0.72,3.54-2.849,3.524
			c-3.453-0.026-9.047-4.758-10.737-7.354c-2.194-3.36-1.802-5.857,1.454-6.229"/>
		<path fill="#FFFFFF" stroke="#4B4B4B" stroke-width="0.5" stroke-miterlimit="10" d="M777.727,276.078c0,0,0.72,3.54-2.849,3.524
			c-3.453-0.026-9.047-4.758-10.737-7.354c-2.194-3.36-1.802-5.857,1.454-6.229"/>
		<path fill="#FFFFFF" stroke="#4B4B4B" stroke-miterlimit="10" d="M779.147,271.726c0,0,1.151,2.701-0.683,3.817
			c-2.579,1.585-6.947-2.394-10.863-6.004c-3.642-3.35-1.253-6.903,1.464-5.735"/>
		<path fill="#FFFFFF" stroke="#4B4B4B" stroke-width="0.5" stroke-miterlimit="10" d="M779.147,271.726
			c0,0,1.151,2.701-0.683,3.817c-2.579,1.585-6.947-2.394-10.863-6.004c-3.642-3.35-1.253-6.903,1.464-5.735"/>
		<path fill="#FFFFFF" stroke="#4B4B4B" stroke-miterlimit="10" d="M780.441,267.205c0.676,1.876,0.569,4.028-1.294,4.521
			c-2.637,0.679-8.14-4.384-9.593-6.696c-1.684-2.688,0.015-4.25,2.159-4.106"/>
		<path fill="#FFFFFF" stroke="#4B4B4B" stroke-width="0.5" stroke-miterlimit="10" d="M780.441,267.205
			c0.676,1.876,0.569,4.028-1.294,4.521c-2.637,0.679-8.14-4.384-9.593-6.696c-1.684-2.688,0.015-4.25,2.159-4.106"/>
		<path fill="#FFFFFF" stroke="#4B4B4B" stroke-miterlimit="10" d="M772.332,258.311c0,0-1.271,1.344-0.063,3.353
			c1.205,1.997,5.758,5.247,7.236,5.555c1.487,0.316,3.545-0.51,3.563-1.66"/>
		<path fill="#FFFFFF" stroke="#4B4B4B" stroke-width="0.5" stroke-miterlimit="10" d="M772.332,258.311
			c0,0-1.271,1.344-0.063,3.353c1.205,1.997,5.758,5.247,7.236,5.555c1.487,0.316,3.545-0.51,3.563-1.66"/>
		<path fill="#FFFFFF" stroke="#4B4B4B" stroke-miterlimit="10" d="M579.783,369.016c0,0-7.301,0.448-5.91,6.867
			c1.514,6.929,7.999,4.26,7.999,4.26"/>
		<path fill="#FFFFFF" stroke="#4B4B4B" stroke-width="0.5" stroke-miterlimit="10" d="M579.783,369.016c0,0-7.301,0.448-5.91,6.867
			c1.514,6.929,7.999,4.26,7.999,4.26"/>
		<path fill="#FFFFFF" stroke="#4B4B4B" stroke-miterlimit="10" d="M623.169,376.581c0,0,5.546,2.188,5.13-4.284
			c-0.373-6.291-1.752-11.341-6.839-8.571"/>
		<path fill="#FFFFFF" stroke="#4B4B4B" stroke-width="0.75" stroke-miterlimit="10" d="M623.169,376.581
			c0,0,5.546,2.188,5.13-4.284c-0.373-6.291-1.752-11.341-6.839-8.571"/>
		<path fill="#FFFFFF" stroke="#4B4B4B" stroke-miterlimit="10" d="M617.027,363.569c0,0,4.268-2.79,6.246,4.104
			c2.052,7.083-0.408,12.356-4.422,10.473"/>
		<path fill="#FFFFFF" stroke="#4B4B4B" stroke-width="0.5" stroke-miterlimit="10" d="M617.027,363.569c0,0,4.268-2.79,6.246,4.104
			c2.052,7.083-0.408,12.356-4.422,10.473"/>
		<path fill="#FFFFFF" stroke="#4B4B4B" stroke-miterlimit="10" d="M614.041,379.182c0,0,4.37,2.329,5.094-3.414
			c0.525-4.335-0.624-10.286-2.448-12.689c-2.042-2.655-4.746-0.351-4.746-0.351"/>
		<path fill="#FFFFFF" stroke="#4B4B4B" stroke-width="0.5" stroke-miterlimit="10" d="M614.041,379.182c0,0,4.37,2.329,5.094-3.414
			c0.525-4.335-0.624-10.286-2.448-12.689c-2.042-2.655-4.746-0.351-4.746-0.351"/>
		<path fill="#FFFFFF" stroke="#4B4B4B" stroke-miterlimit="10" d="M607.092,363.537c0,0,2.02-3.696,4.852-0.812
			c1.996,2.029,5.203,15.6,0.893,17.588c-2.463,1.148-3.547-1.08-3.547-1.08"/>
		<path fill="#FFFFFF" stroke="#4B4B4B" stroke-width="0.5" stroke-miterlimit="10" d="M607.092,363.537c0,0,2.02-3.696,4.852-0.812
			c1.996,2.029,5.203,15.6,0.893,17.588c-2.463,1.148-3.547-1.08-3.547-1.08"/>
		<path fill="#FFFFFF" stroke="#4B4B4B" stroke-miterlimit="10" d="M605.104,379.564c0,0,2.735,2.362,4.459-0.767
			c1.66-3.021,0.261-10.211-1.161-12.948c-1.873-3.565-4.251-4.439-6.149-1.785"/>
		<path fill="#FFFFFF" stroke="#4B4B4B" stroke-width="0.5" stroke-miterlimit="10" d="M605.104,379.564
			c0,0,2.735,2.362,4.459-0.767c1.66-3.021,0.261-10.211-1.161-12.948c-1.873-3.565-4.251-4.439-6.149-1.785"/>
		<path fill="#FFFFFF" stroke="#4B4B4B" stroke-miterlimit="10" d="M600.594,378.681c0,0,1.817,2.314,3.665,1.268
			c2.639-1.479,1.313-7.223,0.069-12.41c-1.153-4.814-5.414-4.458-5.716-1.529"/>
		<path fill="#FFFFFF" stroke="#4B4B4B" stroke-width="0.5" stroke-miterlimit="10" d="M600.594,378.681
			c0,0,1.817,2.314,3.665,1.268c2.639-1.479,1.313-7.223,0.069-12.41c-1.153-4.814-5.414-4.458-5.716-1.529"/>
		<path fill="#FFFFFF" stroke="#4B4B4B" stroke-miterlimit="10" d="M596.028,377.602c1.301,1.506,3.225,2.465,4.556,1.077
			c1.92-1.975,0.172-9.246-1.155-11.644c-1.509-2.778-3.702-2.055-4.634-0.108"/>
		<path fill="#FFFFFF" stroke="#4B4B4B" stroke-width="0.5" stroke-miterlimit="10" d="M596.028,377.602
			c1.301,1.506,3.225,2.465,4.556,1.077c1.92-1.975,0.172-9.246-1.155-11.644c-1.509-2.778-3.702-2.055-4.634-0.108"/>
		<path fill="#FFFFFF" stroke="#4B4B4B" stroke-miterlimit="10" d="M592.223,366.194c0,0,1.789-0.458,2.956,1.572
			c1.153,2.026,1.769,7.59,1.308,9.039c-0.448,1.448-2.178,2.833-3.182,2.293"/>
		<path fill="#FFFFFF" stroke="#4B4B4B" stroke-width="0.5" stroke-miterlimit="10" d="M592.223,366.194
			c0,0,1.789-0.458,2.956,1.572c1.153,2.026,1.769,7.59,1.308,9.039c-0.448,1.448-2.178,2.833-3.182,2.293"/>
		<path fill="#FFFFFF" stroke="#4B4B4B" stroke-miterlimit="10" d="M698.326,397.792l13.4-20.77l9.626-2.855
			c0,0,2.804,2.976,0.701,9.158c-3.194,9.413-17.603,16.757-17.603,16.757L698.326,397.792z"/>
		<path fill="#FFFFFF" stroke="#4B4B4B" stroke-width="0.5" stroke-miterlimit="10" d="M698.326,397.792l13.4-20.77l9.626-2.855
			c0,0,2.804,2.976,0.701,9.158c-3.194,9.413-17.603,16.757-17.603,16.757L698.326,397.792z"/>
		<path fill="#FFFFFF" stroke="#4B4B4B" stroke-miterlimit="10" d="M756.191,363.213l-24.618,2.411l-8.577,6.842
			c0,0,1.987,4.872,8.445,5.835c9.812,1.475,22.197-8.634,22.197-8.634L756.191,363.213z"/>
		<path fill="#FFFFFF" stroke="#4B4B4B" stroke-width="0.5" stroke-miterlimit="10" d="M756.191,363.213l-24.618,2.411l-8.577,6.842
			c0,0,1.987,4.872,8.445,5.835c9.812,1.475,22.197-8.634,22.197-8.634L756.191,363.213z"/>
		<path fill="#FFFFFF" stroke="#4B4B4B" stroke-miterlimit="10" d="M699.983,349.707c0,0-9.021-4.467-8.199,1.156
			c0.792,5.634,6.98,17.795,6.98,17.795l-19.042,29.806l-7.674,1.002c0,0-0.102-4.489,2.331-6.503
			c2.46-2.022,5.981-4.285,5.981-4.285s-4.237-1.494-5.469-5.22c-1.651-5.034-0.621-7.042-0.621-7.042s4.699,2.542,7.132,3.073
			c2.422,0.532,6.406,1.168,6.406,1.168s-9.751-12.671-10.991-26.452c-1.212-13.774,7.684-18.215,10.749-19.121
			c4.45-1.314,10.268,0.19,10.268,0.19s1.093-7.114,7.852-11.235c5.229-3.186,17.123-4.341,26.056,6.306
			c9.758,11.606,9.406,11.358,12.525,16.288c0,0,1.215-2.297,1.994-8.406c0.561-4.311-0.028-6.219-0.028-6.219
			s4.615,0.688,7.048,5.508c1.865,3.769,2.33,5.576,2.33,5.576s4.263-3.105,7.571-3.392c3.654-0.304,5.138,2.129,5.138,2.129
			l-4.319,5.254l-34.641,4.314c0,0-11.203-11.566-14.159-13.766c-4.147-3.063-5.588,1.95-5.896,4.126l-0.296,2.165
			C709.01,343.922,702.444,346.744,699.983,349.707"/>
		<path fill="#FFFFFF" stroke="#4B4B4B" stroke-width="0.5" stroke-miterlimit="10" d="M699.983,349.707
			c0,0-9.021-4.467-8.199,1.156c0.792,5.634,6.98,17.795,6.98,17.795l-19.042,29.806l-7.674,1.002c0,0-0.102-4.489,2.331-6.503
			c2.46-2.022,5.981-4.285,5.981-4.285s-4.237-1.494-5.469-5.22c-1.651-5.034-0.621-7.042-0.621-7.042s4.699,2.542,7.132,3.073
			c2.422,0.532,6.406,1.168,6.406,1.168s-9.751-12.671-10.991-26.452c-1.212-13.774,7.684-18.215,10.749-19.121
			c4.45-1.314,10.268,0.19,10.268,0.19s1.093-7.114,7.852-11.235c5.229-3.186,17.123-4.341,26.056,6.306
			c9.758,11.606,9.406,11.358,12.525,16.288c0,0,1.215-2.297,1.994-8.406c0.561-4.311-0.028-6.219-0.028-6.219
			s4.615,0.688,7.048,5.508c1.865,3.769,2.33,5.576,2.33,5.576s4.263-3.105,7.571-3.392c3.654-0.304,5.138,2.129,5.138,2.129
			l-4.319,5.254l-34.641,4.314c0,0-11.203-11.566-14.159-13.766c-4.147-3.063-5.588,1.95-5.896,4.126l-0.296,2.165
			C709.01,343.922,702.444,346.744,699.983,349.707z"/>
		
			<line fill="#FFFFFF" stroke="#4B4B4B" stroke-width="0.75" stroke-miterlimit="10" x1="699.076" y1="353.257" x2="691.537" y2="353.962"/>
		
			<line fill="#FFFFFF" stroke="#4B4B4B" stroke-width="0.5" stroke-miterlimit="10" x1="766.941" y1="347.014" x2="729.36" y2="351.397"/>
		
			<line fill="#FFFFFF" stroke="#4B4B4B" stroke-width="0.5" stroke-miterlimit="10" x1="726.5" y1="325.886" x2="746.274" y2="295.598"/>
		
			<line fill="#FFFFFF" stroke="#4B4B4B" stroke-width="0.5" stroke-miterlimit="10" x1="679.723" y1="398.464" x2="697.659" y2="370.125"/>
		
			<line fill="#FFFFFF" stroke="#4B4B4B" stroke-width="0.5" stroke-miterlimit="10" x1="731.577" y1="365.622" x2="756.191" y2="363.213"/>
		
			<line fill="#FFFFFF" stroke="#4B4B4B" stroke-width="0.5" stroke-miterlimit="10" x1="641.244" y1="375.605" x2="682.4" y2="371.076"/>
		
			<line fill="#FFFFFF" stroke="#4B4B4B" stroke-width="0.5" stroke-miterlimit="10" x1="758.951" y1="305.788" x2="737.47" y2="336.386"/>
		
			<line fill="#FFFFFF" stroke="#4B4B4B" stroke-width="0.5" stroke-miterlimit="10" x1="732.709" y1="358.228" x2="758.369" y2="355.354"/>
		
			<line fill="#FFFFFF" stroke="#4B4B4B" stroke-width="0.5" stroke-miterlimit="10" x1="642.584" y1="367.735" x2="679.888" y2="363.628"/>
		
			<line fill="#FFFFFF" stroke="#4B4B4B" stroke-width="0.5" stroke-miterlimit="10" x1="703.343" y1="377.291" x2="690.512" y2="396.724"/>
		
			<line fill="#FFFFFF" stroke="#4B4B4B" stroke-width="0.5" stroke-miterlimit="10" x1="750.939" y1="303.256" x2="731.955" y2="331.99"/>
		<path fill="#FFFFFF" stroke="#4B4B4B" stroke-miterlimit="10" d="M591.593,363.17c-1.429-2.277-8.644-1.541-11.22,3.099
			c-2.571,4.638,1.036,28.707,19.155,37.606c12.678,6.219,30.287,0.6,38.652-12.133c8.371-12.727,4.985-36.411-1.642-36.379
			c-6.622,0.036-11.226,4.077-10.496,7.254c0.706,3.188,6.38,13.886-2.296,23.893c-11.354,13.12-27.4,1.887-30.61-11.209
			C591.319,367.953,593.01,365.46,591.593,363.17"/>
		<path fill="#FFFFFF" stroke="#4B4B4B" stroke-width="0.5" stroke-miterlimit="10" d="M591.593,363.17
			c-1.429-2.277-8.644-1.541-11.22,3.099c-2.571,4.638,1.036,28.707,19.155,37.606c12.678,6.219,30.287,0.6,38.652-12.133
			c8.371-12.727,4.985-36.411-1.642-36.379c-6.622,0.036-11.226,4.077-10.496,7.254c0.706,3.188,6.38,13.886-2.296,23.893
			c-11.354,13.12-27.4,1.887-30.61-11.209C591.319,367.953,593.01,365.46,591.593,363.17z"/>
		<path fill="#FFFFFF" stroke="#4B4B4B" stroke-miterlimit="10" d="M770.015,256.287c-1.301-2.349,2.869-8.3,8.173-8.278
			c5.304,0.019,25.206,14.929,23.449,35.035c-1.336,15.377-14.226,26.766-29.441,27.863c-15.186,1.078-34.204-13.438-30.936-19.192
			c3.246-5.755,9.032-7.805,11.458-5.631c2.433,2.188,9.287,13.52,21.955,9.664c16.126-4.899,15.04-23.005,5.171-32.195
			C774.311,258.389,771.318,258.647,770.015,256.287"/>
		<path fill="#FFFFFF" stroke="#4B4B4B" stroke-width="0.5" stroke-miterlimit="10" d="M770.015,256.287
			c-1.301-2.349,2.869-8.3,8.173-8.278c5.304,0.019,25.206,14.929,23.449,35.035c-1.336,15.377-14.226,26.766-29.441,27.863
			c-15.186,1.078-34.204-13.438-30.936-19.192c3.246-5.755,9.032-7.805,11.458-5.631c2.433,2.188,9.287,13.52,21.955,9.664
			c16.126-4.899,15.04-23.005,5.171-32.195C774.311,258.389,771.318,258.647,770.015,256.287z"/>
		
			<line fill="#FFFFFF" stroke="#4B4B4B" stroke-width="0.5" stroke-miterlimit="10" x1="698.326" y1="397.792" x2="711.645" y2="379.002"/>
		<path fill="#FFFFFF" stroke="#4B4B4B" stroke-width="0.5" stroke-miterlimit="10" d="M808.715,341.395l47.112-4.217
			c0,0-9.088,9.975-24.329,14.829c-6.125,1.954-21.383,3.769-35.451,5.694"/>
		<path fill="#FFFFFF" stroke="#4B4B4B" stroke-width="0.5" stroke-miterlimit="10" d="M804.577,350.265
			c0,0,19.905-1.538,25.454-2.968c6.06-1.562,5.788-1.642,10.002-3.289"/>
		<path fill="#FFFFFF" stroke="#4B4B4B" stroke-miterlimit="10" d="M650.003,430.448c-11.752,6.704-22.673,6.832-29.844,6.064
			c-7.163-0.755-20.546-5.659-17.833-5.824c2.699-0.156,17.393-7.434,25.685-12.2c8.299-4.748,17.255-4.978,17.255-4.978
			l16.497,2.936l14.665,3.96"/>
		<path fill="#FFFFFF" stroke="#4B4B4B" stroke-width="0.5" stroke-miterlimit="10" d="M650.003,430.448
			c-11.752,6.704-22.673,6.832-29.844,6.064c-7.163-0.755-20.546-5.659-17.833-5.824c2.699-0.156,17.393-7.434,25.685-12.2
			c8.299-4.748,17.255-4.978,17.255-4.978l16.497,2.936l14.665,3.96"/>
		<path fill="#FFFFFF" stroke="#4B4B4B" stroke-miterlimit="10" d="M680.187,429.262c0,0-5.813,5.75-18.931,6.729
			c-13.115,0.976-22.066,0.831-22.066,0.831s7.833-4.073,13.371-8.157c5.532-4.072,16.576-7.749,16.576-7.749
			s-10.861-0.635-17.586-4.007c-6.72-3.358-12.363-3.438-12.363-3.438s19.296-9.178,25.987-7.37l39.984,4.323l4.468,5.316"/>
		<path fill="#FFFFFF" stroke="#4B4B4B" stroke-width="0.5" stroke-miterlimit="10" d="M680.187,429.262
			c0,0-5.813,5.75-18.931,6.729c-13.115,0.976-22.066,0.831-22.066,0.831s7.833-4.073,13.371-8.157
			c5.532-4.072,16.576-7.749,16.576-7.749s-10.861-0.635-17.586-4.007c-6.72-3.358-12.363-3.438-12.363-3.438
			s19.296-9.178,25.987-7.37l39.984,4.323l4.468,5.316"/>
		<path fill="#FFFFFF" stroke="#4B4B4B" stroke-miterlimit="10" d="M734.181,411.833c-3.989,1.516-7.301,3.11-9.36,4.741
			c-6.279,4.996-12.101,12.286-23.514,18.076c-11.4,5.782-17.221,4.781-22.457,5.279c-7.259,0.694-10.645,3.925-10.645,3.925
			s7.905-12.286,16.852-18.662c8.941-6.389,16.367-9.977,16.367-9.977s-9.348,0.827-17.174-2.813
			c-7.822-3.657-21.329-7.08-23.224-7.088c-1.876-0.029,16.339-8.8,28.326-7.887c15.303,1.152,30.579,7.772,34.795,9.46
			c2.082,0.842,9.239-0.549,16.449-2.44"/>
		<path fill="#FFFFFF" stroke="#4B4B4B" stroke-width="0.5" stroke-miterlimit="10" d="M734.181,411.833
			c-3.989,1.516-7.301,3.11-9.36,4.741c-6.279,4.996-12.101,12.286-23.514,18.076c-11.4,5.782-17.221,4.781-22.457,5.279
			c-7.259,0.694-10.645,3.925-10.645,3.925s7.905-12.286,16.852-18.662c8.941-6.389,16.367-9.977,16.367-9.977
			s-9.348,0.827-17.174-2.813c-7.822-3.657-21.329-7.08-23.224-7.088c-1.876-0.029,16.339-8.8,28.326-7.887
			c15.303,1.152,30.579,7.772,34.795,9.46c2.082,0.842,9.239-0.549,16.449-2.44"/>
		<path fill="#FFFFFF" stroke="#4B4B4B" stroke-miterlimit="10" d="M705.101,345.722c0,0-17.931,9.092-5.433,26.414
			c10.078,14.005,23.161,2.282,23.161,2.282s16.586-7.963,7.096-23.535C720.822,335.957,705.101,345.722,705.101,345.722"/>
		<path fill="#FFFFFF" stroke="#4B4B4B" stroke-width="0.5" stroke-miterlimit="10" d="M705.101,345.722
			c0,0-17.931,9.092-5.433,26.414c10.078,14.005,23.161,2.282,23.161,2.282s16.586-7.963,7.096-23.535
			C720.822,335.957,705.101,345.722,705.101,345.722z"/>
		<path fill="#FFFFFF" stroke="#4B4B4B" stroke-miterlimit="10" d="M706.015,346.83c0,0-5.897,5.678-0.441,14.625
			c9.921,16.276,16.618,11.913,16.618,11.913s6.765-4.551-3.5-20.256C715.149,347.725,709.353,345.267,706.015,346.83"/>
		<path fill="#FFFFFF" stroke="#4B4B4B" stroke-width="0.5" stroke-miterlimit="10" d="M706.015,346.83
			c0,0-5.897,5.678-0.441,14.625c9.921,16.276,16.618,11.913,16.618,11.913s6.765-4.551-3.5-20.256
			C715.149,347.725,709.353,345.267,706.015,346.83z"/>
		<g opacity="0.36">
			<g>
				<path fill="#FFFFFF" stroke="#4B4B4B" stroke-miterlimit="10" d="M724.999,297.748"/>
			</g>
		</g>
		
			<line fill="#FFFFFF" stroke="#4B4B4B" stroke-width="0.75" stroke-miterlimit="10" x1="717.827" y1="339.201" x2="715.605" y2="342.622"/>
		<path fill="#FFFFFF" stroke="#4B4B4B" stroke-width="0.5" stroke-miterlimit="10" d="M698.572,332.505c0,0-1.76,1.333,1.209,9.352
			c2.183,5.966,3.593,5.235,3.593,5.235"/>
		<path fill="#FFFFFF" stroke="#4B4B4B" stroke-miterlimit="10" d="M806.647,334.955c11.341-7.378,16.447-17.02,19.048-23.744
			c2.612-6.718,4.385-20.854,3.003-18.529c-1.372,2.331-14.577,12.06-22.615,17.247c-8.021,5.202-12.986,14.571-12.986,14.571
			L783,343.235L785.359,354l12.966-3.707L806.647,334.955"/>
		<path fill="#FFFFFF" stroke="#4B4B4B" stroke-width="0.5" stroke-miterlimit="10" d="M806.647,334.955
			c11.341-7.378,16.447-17.02,19.048-23.744c2.612-6.718,4.385-20.854,3.003-18.529c-1.372,2.331-14.577,12.06-22.615,17.247
			c-8.021,5.202-12.986,14.571-12.986,14.571L783,343.235L785.359,354l12.966-3.707L806.647,334.955"/>
		<path fill="#FFFFFF" stroke="#4B4B4B" stroke-miterlimit="10" d="M791.759,361.244c0,0,7.771-2.531,14.663-13.751
			c6.867-11.208,10.838-19.232,10.838-19.232s-7.216,5.104-13.377,8.154c-6.146,3.05-14.479,11.182-14.479,11.182
			s4.415-9.947,4.493-17.468c0.098-7.51,2.61-12.566,2.61-12.566s-16.033,9.773-20.129,23.714l-17.813,38.692l21.105-1.15
			L791.759,361.244"/>
		<path fill="#FFFFFF" stroke="#4B4B4B" stroke-width="0.5" stroke-miterlimit="10" d="M791.759,361.244
			c0,0,7.771-2.531,14.663-13.751c6.867-11.208,10.838-19.232,10.838-19.232s-7.216,5.104-13.377,8.154
			c-6.146,3.05-14.479,11.182-14.479,11.182s4.415-9.947,4.493-17.468c0.098-7.51,2.61-12.566,2.61-12.566
			s-16.033,9.773-20.129,23.714l-17.813,38.692l21.105-1.15L791.759,361.244"/>
		<path fill="#FFFFFF" stroke="#4B4B4B" stroke-miterlimit="10" d="M719.122,427.981c1.141,2.629,3.505,3.693,12.357-5.902
			c8.828-9.571,21.229-23.674,28.547-26.969c7.334-3.302,16.471-5.133,26.837-12.621c10.369-7.487,12.146-13.116,14.991-17.544
			c3.929-6.132,8.368-7.67,8.368-7.67s-14.545,1.401-24.312,6.435c-9.77,5.018-16.37,9.977-16.37,9.977s5.021-7.931,5.369-16.552
			c0.33-8.628,3.488-22.213,4.339-23.892c0.837-1.685-15.302,10.491-19.987,21.567c-5.98,14.125-7.104,30.74-7.521,35.258
			c-0.422,4.522-18.315,23.105-22.272,26.116C725.487,419.204,716.947,423,719.122,427.981"/>
		<path fill="#FFFFFF" stroke="#4B4B4B" stroke-width="0.5" stroke-miterlimit="10" d="M719.122,427.981
			c1.141,2.629,3.505,3.693,12.357-5.902c8.828-9.571,21.229-23.674,28.547-26.969c7.334-3.302,16.471-5.133,26.837-12.621
			c10.369-7.487,12.146-13.116,14.991-17.544c3.929-6.132,8.368-7.67,8.368-7.67s-14.545,1.401-24.312,6.435
			c-9.77,5.018-16.37,9.977-16.37,9.977s5.021-7.931,5.369-16.552c0.33-8.628,3.488-22.213,4.339-23.892
			c0.837-1.685-15.302,10.491-19.987,21.567c-5.98,14.125-7.104,30.74-7.521,35.258c-0.422,4.522-18.315,23.105-22.272,26.116
			C725.487,419.204,716.947,423,719.122,427.981z"/>
		<polygon fill="none" stroke="#FFFFFF" stroke-width="2" stroke-miterlimit="10" points="558.158,477.063 516.293,504.828 
			495.71,473.785 502.789,469.085 517.763,491.665 527.052,485.52 513.112,464.499 520.167,459.818 534.104,480.838 
			545.498,473.287 529.992,449.893 537.044,445.218 		"/>
		<path fill="none" stroke="#FFFFFF" stroke-width="2" stroke-miterlimit="10" d="M520.052,447.961l-4.389-8.896
			c2.888-1.719,4.739-3.721,5.55-5.958c0.82-2.251,0.68-4.825-0.415-7.702c-1.157-3.059-2.67-5.119-4.55-6.176
			c-1.873-1.065-3.688-1.263-5.413-0.617c-1.105,0.424-1.934,1.108-2.468,2.047c-0.53,0.955-0.776,2.349-0.739,4.19
			c0.022,1.261,0.302,4.045,0.813,8.375c0.662,5.572,0.455,9.719-0.602,12.46c-1.496,3.867-4.105,6.496-7.833,7.902
			c-2.383,0.9-4.88,1.072-7.473,0.499c-2.595-0.572-4.917-1.93-6.978-4.062c-2.063-2.145-3.763-5.014-5.129-8.633
			c-2.231-5.892-2.617-10.824-1.161-14.78c1.471-3.959,4.321-6.828,8.586-8.615l4.002,9.338c-2.27,1.316-3.67,2.839-4.226,4.576
			c-0.554,1.729-0.315,3.935,0.688,6.608c1.045,2.756,2.432,4.708,4.147,5.838c1.097,0.727,2.265,0.867,3.48,0.399
			c1.111-0.417,1.891-1.246,2.326-2.482c0.551-1.577,0.499-4.889-0.156-9.909c-0.655-5.032-0.818-8.862-0.486-11.514
			c0.322-2.655,1.275-5,2.821-7.004c1.539-2.016,3.795-3.582,6.77-4.71c2.683-1.015,5.49-1.215,8.419-0.614
			c2.906,0.606,5.46,2.063,7.635,4.369c2.176,2.307,4.032,5.499,5.581,9.578c2.234,5.952,2.591,11.023,1.049,15.25
			C528.358,441.939,525.087,445.353,520.052,447.961"/>
		<path fill="none" stroke="#FFFFFF" stroke-width="2" stroke-miterlimit="10" d="M497.135,368.506l1.89-10.135
			c5.62,0.816,9.973,2.804,13.05,5.951c3.069,3.16,4.931,7.407,5.608,12.752c0.81,6.627-0.777,12.343-4.769,17.167
			c-3.985,4.83-9.907,7.72-17.751,8.698c-8.295,1.027-15.014-0.312-20.133-4.024c-5.128-3.71-8.116-9.062-8.98-16.043
			c-0.766-6.095,0.415-11.271,3.555-15.534c1.856-2.528,4.706-4.611,8.548-6.239l3.615,9.664c-2.507,0.915-4.398,2.4-5.656,4.448
			c-1.27,2.065-1.737,4.423-1.4,7.104c0.466,3.693,2.163,6.522,5.102,8.5c2.933,1.98,7.371,2.587,13.305,1.854
			c6.309-0.783,10.657-2.484,13.053-5.082c2.391-2.596,3.367-5.716,2.91-9.335c-0.324-2.672-1.457-4.876-3.406-6.592
			C503.729,369.948,500.89,368.897,497.135,368.506"/>
		<path fill="none" stroke="#FFFFFF" stroke-width="2" stroke-miterlimit="10" d="M464.565,344.384l1.238-10.068l27.002,3.303
			c4.291,0.531,7.08,0.738,8.373,0.649c2.1-0.185,3.86-1.013,5.302-2.482c1.433-1.474,2.313-3.609,2.652-6.424
			c0.364-2.854,0.041-5.077-0.95-6.67c-0.986-1.606-2.311-2.649-3.989-3.146c-1.652-0.507-4.461-0.997-8.403-1.486l-27.593-3.362
			l1.227-10.067l26.195,3.201c5.988,0.722,10.18,1.521,12.594,2.361c2.396,0.845,4.353,2.107,5.89,3.774
			c1.517,1.669,2.632,3.794,3.333,6.37c0.73,2.569,0.837,5.825,0.354,9.773c-0.58,4.764-1.574,8.303-2.983,10.632
			c-1.395,2.328-3.066,4.097-4.987,5.309c-1.938,1.211-3.892,1.927-5.878,2.15c-2.928,0.302-7.187,0.122-12.773-0.565
			L464.565,344.384z"/>
		<polygon fill="none" stroke="#FFFFFF" stroke-width="2" stroke-miterlimit="10" points="521.396,302.78 474.328,285.248 
			487.326,250.334 495.279,253.303 485.824,278.714 496.261,282.598 505.06,258.959 512.999,261.914 504.193,285.551 517.01,290.32 
			526.798,264.027 534.731,266.977 		"/>
		<polygon fill="none" stroke="#FFFFFF" stroke-width="2" stroke-miterlimit="10" points="538.033,261.32 496.181,234.283 
			501.692,225.757 536.431,248.201 550.108,227.021 557.221,231.612 		"/>
		<path fill="none" stroke="#FFFFFF" stroke-width="2" stroke-miterlimit="10" d="M565.226,207.07l-5.998,5.809l4.97,11.095
			l-7.729,7.479l-10.301-24.484"/>
		<path fill="none" stroke="#FFFFFF" stroke-width="2" stroke-miterlimit="10" d="M899.299,207.461
			c0,4.661-3.621,10.327-9.652,15.839c-5.996,5.469-12.171,8.127-18.521,7.953c-6.363-0.16-12.021-2.975-16.996-8.425
			c-5.044-5.516-6.973-11.979-6.973-15.766 M857.012,206.599c-0.393,3.918,0.77,7.366,3.498,10.361
			c2.723,2.979,6.024,4.452,9.934,4.405c3.898-0.048,8.006-2.048,12.301-5.962c2.99-2.73,5.028-5.436,6.109-8.114"/>
		<path fill="none" stroke="#FFFFFF" stroke-width="2" stroke-miterlimit="10" d="M873.773,244.934l44.407-23.493l9.986,18.861
			c2.508,4.749,3.932,8.407,4.276,10.986c0.332,2.563-0.176,5.043-1.533,7.413c-1.357,2.376-3.338,4.249-5.975,5.639
			c-3.324,1.767-6.59,2.242-9.8,1.433c-3.205-0.812-6.125-3.02-8.751-6.614c-0.105,2.532-0.499,4.788-1.2,6.772
			c-0.676,1.975-2.174,4.951-4.487,8.913l-5.799,10.005l-5.673-10.724l6.229-11.594c2.244-4.127,3.577-6.856,4.025-8.169
			c0.449-1.325,0.597-2.552,0.423-3.672c-0.158-1.135-0.795-2.723-1.879-4.792l-0.967-1.812l-18.543,9.812L873.773,244.934z
			 M904.14,240.343l3.513,6.637c2.273,4.299,3.876,6.882,4.81,7.762c0.926,0.879,1.99,1.388,3.206,1.517
			c1.21,0.15,2.468-0.141,3.806-0.848c1.506-0.796,2.495-1.825,2.992-3.116c0.497-1.283,0.489-2.719-0.042-4.296
			c-0.275-0.783-1.39-2.989-3.313-6.621l-3.696-7.001L904.14,240.343z"/>
		<path fill="none" stroke="#FFFFFF" stroke-width="2" stroke-miterlimit="10" d="M585.554,576.219
			c-1.938-1.954-3.484-4.084-4.644-6.392c-2.012-4.015-2.672-8.272-2.016-12.765c0.651-4.498,2.327-8.751,5.029-12.746
			c2.914-4.34,6.418-7.583,10.512-9.73c4.099-2.148,8.495-2.947,13.217-2.388c3.601,0.416,7.393,1.963,11.371,4.65
			c5.176,3.481,8.489,7.285,9.936,11.411c1.451,4.124,1.297,8.385-0.44,12.772l-9.408-4.063c0.786-2.441,0.765-4.793-0.058-7.073
			c-0.818-2.274-2.444-4.229-4.871-5.857c-3.676-2.485-7.386-3.279-11.113-2.413c-3.741,0.861-7.159,3.602-10.246,8.186
			c-3.336,4.953-4.737,9.395-4.203,13.348c0.537,3.954,2.589,7.127,6.143,9.532c1.77,1.181,3.772,2.022,6.003,2.523
			c2.246,0.503,4.324,0.696,6.268,0.552l3.55-5.285l-9.633-6.479l4.729-7.025l18.125,12.211l-4.505,6.7"/>
		<polyline fill="none" stroke="#FFFFFF" stroke-width="2" stroke-miterlimit="10" points="632.003,576.566 640.824,551.29 
			676.004,563.555 673.2,571.582 647.603,562.659 643.93,573.178 655.352,576.513 		"/>
		<polyline fill="none" stroke="#FFFFFF" stroke-width="2" stroke-miterlimit="10" points="710.003,576.6 710.76,567.042 
			720.153,567.786 719.455,576.566 		"/>
		<polyline fill="none" stroke="#FFFFFF" stroke-width="2" stroke-miterlimit="10" points="679.479,576.566 680.424,564.636 
			690.262,565.412 695.941,576.566 		"/>
		<path fill="none" stroke="#FFFFFF" stroke-width="2" stroke-miterlimit="10" d="M727.411,576.567l-1.574-9.098l18.259-3.152
			c4.129-0.723,7.328-0.957,9.587-0.691c3.056,0.344,5.796,1.436,8.246,3.258c2.456,1.828,4.5,4.225,6.125,7.207
			c0.39,0.707,0.756,1.461,1.098,2.264 M758.74,577.225c-1.022-1.935-2.247-2.363-3.648-3.309c-1.422-0.938-3.104-1.45-5.029-1.527
			c-1.455-0.078-4.223,0.246-8.299,0.951l-4.485,0.781l0.71,3.102"/>
		<path fill="none" stroke="#FFFFFF" stroke-width="2" stroke-miterlimit="10" d="M784.98,576.181l-0.485-22.858l9.907-4.098
			l26.36,26.996 M807.345,576.721l-13.521-14.566l0.625,14.399"/>
		<path fill="none" stroke="#FFFFFF" stroke-width="2" stroke-miterlimit="10" d="M838.56,576.214l-24.94-35.595l17.479-12.248
			c4.398-3.081,7.855-4.956,10.358-5.603c2.532-0.669,5.029-0.472,7.562,0.583c2.514,1.053,4.622,2.79,6.329,5.232
			c2.181,3.075,3.04,6.262,2.64,9.553c-0.396,3.284-2.223,6.436-5.467,9.494c2.519-0.212,4.813-0.094,6.858,0.332
			c2.059,0.438,5.19,1.565,9.413,3.379l10.644,4.5l-9.927,6.959l-12.278-4.744c-4.387-1.698-7.252-2.691-8.618-2.977
			c-1.369-0.281-2.6-0.273-3.693,0.035c-1.1,0.309-2.603,1.138-4.519,2.471l-1.665,1.181l12.025,17.173 M834.123,552.197
			l6.145-4.313c3.979-2.781,6.361-4.688,7.104-5.715c0.751-1.046,1.145-2.17,1.114-3.383c-0.018-1.215-0.458-2.446-1.33-3.672
			c-0.96-1.4-2.115-2.249-3.451-2.581c-1.34-0.336-2.756-0.142-4.258,0.587c-0.741,0.366-2.795,1.748-6.153,4.097l-6.482,4.544
			L834.123,552.197z"/>
		<polygon fill="none" stroke="#FFFFFF" stroke-width="2" stroke-miterlimit="10" points="888.585,547.589 851.231,514.002 
			861.385,502.711 892.957,518.851 873.513,489.225 883.683,477.921 921.025,511.527 914.738,518.524 885.334,492.078 
			908.059,525.939 901.529,533.206 865.485,514.139 894.888,540.584 		"/>
		<polygon fill="none" stroke="#FFFFFF" stroke-width="2" stroke-miterlimit="10" points="930.263,497.607 886.428,473.07 
			904.624,440.563 912.025,444.715 898.792,468.374 908.521,473.808 920.826,451.804 928.219,455.925 915.894,477.937 
			927.824,484.625 941.546,460.138 948.923,464.266 		"/>
		<path fill="none" stroke="#FFFFFF" stroke-width="2" stroke-miterlimit="10" d="M954.967,450.233l-48.219-14.109l6.001-20.492
			c1.507-5.16,3.031-8.769,4.576-10.848c1.56-2.096,3.64-3.503,6.271-4.254c2.627-0.774,5.363-0.721,8.205,0.112
			c3.626,1.056,6.298,3.003,8.038,5.818c1.735,2.81,2.279,6.428,1.661,10.835c1.852-1.743,3.704-3.081,5.577-4.027
			c1.865-0.936,5.02-2.029,9.441-3.25l11.128-3.134l-3.4,11.636l-12.556,3.969c-4.477,1.403-7.348,2.432-8.594,3.063
			c-1.229,0.629-2.191,1.416-2.844,2.335c-0.677,0.923-1.34,2.51-1.989,4.74l-0.582,1.977l20.136,5.888L954.967,450.233z
			 M929.991,432.353l2.107-7.206c1.367-4.672,2.032-7.64,1.972-8.917c-0.065-1.279-0.476-2.383-1.245-3.336
			c-0.77-0.934-1.88-1.62-3.329-2.039c-1.618-0.475-3.057-0.422-4.303,0.152c-1.262,0.573-2.246,1.604-2.973,3.116
			c-0.337,0.75-1.079,3.101-2.244,7.053l-2.219,7.593L929.991,432.353z"/>
		<path fill="none" stroke="#FFFFFF" stroke-width="2" stroke-miterlimit="10" d="M915.024,391.78l-9.707-5.761l1.12-10.737
			l9.211,10.432L915.024,391.78z M967.979,396.128l-49.974-5.207l1.056-10.092l49.963,5.21L967.979,396.128z"/>
		<path fill="none" stroke="#FFFFFF" stroke-width="2" stroke-miterlimit="10" d="M966.564,325.604l0.984,11.001l-10.971,5.384
			l1.789,20.003l11.738,3.107l0.967,10.714l-51.79-14.985l-0.962-10.695L966.564,325.604z M948.43,345.991l-17.945,8.564
			l19.177,5.085L948.43,345.991z"/>
		<path fill="none" stroke="#FFFFFF" stroke-width="3" stroke-miterlimit="10" d="M528.179,574.357
			c-60.409-52.327-98.621-129.595-98.621-215.788c0-55.702,15.959-107.677,43.555-151.601"/>
		<path fill="none" stroke="#FFFFFF" stroke-width="3" stroke-miterlimit="10" d="M988.817,438.983
			c-15.928,54.34-47.589,101.957-89.715,137.583"/>
		<path fill="none" stroke="#FFFFFF" stroke-width="3" stroke-miterlimit="10" d="M957.724,208.53
			c13.396,21.631,23.982,45.186,31.249,70.154"/>
	</g>
	<rect x="154.826" y="207.07" fill="#255151" width="317.939" height="369.496"/>
	<text transform="matrix(1 0 0 1 212.8872 317.9844)" fill="#FFFFFF" font-family="'Calibri-Bold'" font-size="34.1711">PLATAFORMA</text>
	<g>
		
			<text transform="matrix(1 0 0 1 184.8501 276.855)" fill="none" stroke="#FFFFFF" stroke-linecap="round" stroke-linejoin="round" font-family="'EuphemiaCAS'" font-size="48">NOVEDADES</text>
	</g>
	<rect x="193.172" y="359.274" fill="none" width="239" height="172.718"/>
	<text transform="matrix(1 0 0 1 193.1724 371.4785)"><tspan x="0" y="0" fill="#FFFFFF" font-family="'Calibri'" font-size="18">Todos</tspan><tspan x="44.253" y="0" fill="#FFFFFF" font-family="'Calibri'" font-size="18"> </tspan><tspan x="48.639" y="0" fill="#FFFFFF" font-family="'Calibri'" font-size="18">los</tspan><tspan x="69.302" y="0" fill="#FFFFFF" font-family="'Calibri'" font-size="18"> </tspan><tspan x="73.687" y="0" fill="#FFFFFF" font-family="'Calibri'" font-size="18">usuarios</tspan><tspan x="135.202" y="0" fill="#FFFFFF" font-family="'Calibri'" font-size="18"> </tspan><tspan x="139.587" y="0" fill="#FFFFFF" font-family="'Calibri'" font-size="18">convocados</tspan><tspan x="225.993" y="0" fill="#FFFFFF" font-family="'Calibri'" font-size="18"> </tspan><tspan x="230.377" y="0" fill="#FFFFFF" font-family="'Calibri'" font-size="18">a </tspan><tspan x="0" y="21.6" fill="#FFFFFF" font-family="'Calibri'" font-size="18">realizar</tspan><tspan x="54.123" y="21.6" fill="#FFFFFF" font-family="'Calibri'" font-size="18" letter-spacing="1"> </tspan><tspan x="59.453" y="21.6" fill="#FFFFFF" font-family="'Calibri'" font-size="18">los</tspan><tspan x="80.116" y="21.6" fill="#FFFFFF" font-family="'Calibri'" font-size="18" letter-spacing="1"> </tspan><tspan x="85.445" y="21.6" fill="#FFFFFF" font-family="'Calibri'" font-size="18">cursos</tspan><tspan x="132.361" y="21.6" fill="#FFFFFF" font-family="'Calibri'" font-size="18" letter-spacing="1"> </tspan><tspan x="137.69" y="21.6" fill="#FFFFFF" font-family="'Calibri'" font-size="18">de</tspan><tspan x="156.104" y="21.6" fill="#FFFFFF" font-family="'Calibri'" font-size="18" letter-spacing="1"> </tspan><tspan x="161.433" y="21.6" fill="#FFFFFF" font-family="'Calibri'" font-size="18">ingreso</tspan><tspan x="215.257" y="21.6" fill="#FFFFFF" font-family="'Calibri'" font-size="18" letter-spacing="1"> </tspan><tspan x="220.587" y="21.6" fill="#FFFFFF" font-family="'Calibri'" font-size="18">de </tspan><tspan x="0" y="43.2" fill="#FFFFFF" font-family="'Calibri'" font-size="18">Cadete</tspan><tspan x="51.618" y="43.2" fill="#FFFFFF" font-family="'Calibri'" font-size="18"> </tspan><tspan x="56.322" y="43.2" fill="#FFFFFF" font-family="'Calibri'" font-size="18">y</tspan><tspan x="64.469" y="43.2" fill="#FFFFFF" font-family="'Calibri'" font-size="18"> </tspan><tspan x="69.173" y="43.2" fill="#FFFFFF" font-family="'Calibri'" font-size="18">Gendarme</tspan><tspan x="146.631" y="43.2" fill="#FFFFFF" font-family="'Calibri'" font-size="18"> </tspan><tspan x="151.335" y="43.2" fill="#FFFFFF" font-family="'Calibri'" font-size="18">II</tspan><tspan x="160.405" y="43.2" fill="#FFFFFF" font-family="'Calibri'" font-size="18"> </tspan><tspan x="165.109" y="43.2" fill="#FFFFFF" font-family="'Calibri'" font-size="18">deben,</tspan><tspan x="215.883" y="43.2" fill="#FFFFFF" font-family="'Calibri'" font-size="18"> </tspan><tspan x="220.587" y="43.2" fill="#FFFFFF" font-family="'Calibri'" font-size="18">en </tspan><tspan x="0" y="64.8" fill="#FFFFFF" font-family="'Calibri'" font-size="18">el</tspan><tspan x="13.087" y="64.8" fill="#FFFFFF" font-family="'Calibri'" font-size="18" letter-spacing="2"> </tspan><tspan x="19.272" y="64.8" fill="#FFFFFF" font-family="'Calibri'" font-size="18">transcurso</tspan><tspan x="96.572" y="64.8" fill="#FFFFFF" font-family="'Calibri'" font-size="18" letter-spacing="2"> </tspan><tspan x="102.758" y="64.8" fill="#FFFFFF" font-family="'Calibri'" font-size="18">o</tspan><tspan x="112.25" y="64.8" fill="#FFFFFF" font-family="'Calibri'" font-size="18" letter-spacing="2"> </tspan><tspan x="118.436" y="64.8" fill="#FFFFFF" font-family="'Calibri'" font-size="18">final</tspan><tspan x="150.173" y="64.8" fill="#FFFFFF" font-family="'Calibri'" font-size="18" letter-spacing="2"> </tspan><tspan x="156.358" y="64.8" fill="#FFFFFF" font-family="'Calibri'" font-size="18">del</tspan><tspan x="178.902" y="64.8" fill="#FFFFFF" font-family="'Calibri'" font-size="18" letter-spacing="2"> </tspan><tspan x="185.088" y="64.8" fill="#FFFFFF" font-family="'Calibri'" font-size="18">mismo, </tspan><tspan x="0" y="86.399" fill="#FFFFFF" font-family="'Calibri'" font-size="18">realizar</tspan><tspan x="54.123" y="86.399" fill="#FFFFFF" font-family="'Calibri'" font-size="18"> </tspan><tspan x="57.865" y="86.399" fill="#FFFFFF" font-family="'Calibri'" font-size="18">la</tspan><tspan x="70.618" y="86.399" fill="#FFFFFF" font-family="'Calibri'" font-size="18"> </tspan><tspan x="74.359" y="86.399" fill="#FFFFFF" font-family="'Calibri'" font-size="18">preinscripcin</tspan><tspan x="177.842" y="86.399" fill="#FFFFFF" font-family="'Calibri'" font-size="18"> </tspan><tspan x="181.583" y="86.399" fill="#FFFFFF" font-family="'Calibri'" font-size="18">a</tspan><tspan x="190.206" y="86.399" fill="#FFFFFF" font-family="'Calibri'" font-size="18"> </tspan><tspan x="193.947" y="86.399" fill="#FFFFFF" font-family="'Calibri'" font-size="18">travs </tspan><tspan x="0" y="108" fill="#FFFFFF" font-family="'Calibri'" font-size="18">del SIU Garan.</tspan><tspan x="0" y="151.2" fill="#FFFFFF" font-family="'Calibri'" font-size="18">Requisito obligatorio.</tspan></text>
</g>
</svg>
